<svg width="367" height="381" viewBox="0 0 367 381" fill="none" xmlns="http://www.w3.org/2000/svg">
<path d="M124.536 290.073L124.241 290.178L124.206 290.489C124.198 290.561 124.196 290.63 124.203 290.7C124.21 290.764 124.223 290.817 124.229 290.842L124.23 290.846C124.236 290.869 124.238 290.875 124.239 290.885C124.24 290.893 124.242 290.911 124.243 290.942C123.743 295.976 122.54 300.917 120.668 305.616C119.871 307.141 118.981 307.807 118.307 307.858C117.711 307.904 116.962 307.463 116.416 305.881L116.415 305.88C115.882 304.353 115.389 301.873 114.953 298.936C114.518 296.009 114.145 292.662 113.846 289.421C113.245 282.92 112.945 276.909 113.022 275.573L113.024 275.544L113.022 275.515C112.988 274.932 113.15 274.355 113.482 273.875C114.052 273.358 115.115 272.948 116.553 272.65C117.996 272.351 119.727 272.182 121.508 272.091C122.565 272.037 123.631 272.011 124.657 272.001C123.919 272.032 123.249 272.073 122.362 272.146L121.886 272.185L121.903 272.662C122.107 278.302 122.745 283.917 123.812 289.459L123.918 290.009L124.452 289.842C126.469 289.212 128.511 288.672 130.574 288.224C128.536 288.753 126.522 289.37 124.536 290.073ZM131.326 272.197L131.233 271.844L131.128 271.423C131.037 271.06 130.957 270.752 130.899 270.535C130.87 270.427 130.846 270.341 130.83 270.282L130.811 270.214L130.807 270.198C130.784 270.103 130.792 270.004 130.828 269.912C130.862 269.826 130.919 269.753 130.99 269.701C138.366 266.269 152.259 260.958 160.241 257.985C160.237 258.768 160.229 259.534 160.22 260.297C160.199 262.233 160.177 264.147 160.239 266.269L160.204 266.335L159.962 266.796C159.755 267.189 159.46 267.75 159.098 268.444C158.374 269.832 157.378 271.755 156.267 273.94C154.091 278.221 151.469 283.521 149.58 287.801L136.13 289.367C136.129 289.367 136.129 289.367 136.128 289.367C136.059 289.374 135.993 289.357 135.939 289.32L135.939 289.32C135.884 289.281 135.844 289.225 135.827 289.16L135.827 289.159L135.825 289.153L135.405 287.613L135.335 287.356L135.35 287.353L135.206 286.815C134.206 283.076 132.266 275.757 131.326 272.197Z" stroke="white"/>
<mask id="path-2-inside-1_1426_419" fill="white">
<path d="M308.783 97.6044C309.283 96.9044 308.643 96.0044 308.103 95.3044C309.633 93.7313 311.33 92.3295 313.163 91.1244C316.258 89.5822 319.086 87.5571 321.543 85.1244C322.563 84.0644 324.483 81.8844 323.763 80.6044C323.043 79.3244 321.763 79.2444 320.023 79.9844C320.776 79.1931 321.393 78.28 321.843 77.2844C322.403 75.7244 321.083 74.4644 318.223 75.6244C319.263 73.9644 319.503 72.2244 317.743 71.3844C316.323 70.7044 314.243 72.3244 313.043 73.3844C310.686 75.4433 308.474 77.6618 306.423 80.0244C305.163 77.3844 303.163 74.3444 300.663 75.3044C298.163 76.2644 300.103 80.5644 301.383 82.9044L296.843 86.0444C296.156 85.6738 295.381 85.5011 294.603 85.5444C289.443 86.4244 265.743 104.464 263.343 104.464C261.503 104.464 235.223 91.8644 212.503 88.2244C212.459 88.088 212.378 87.9673 212.268 87.8753C212.158 87.7833 212.024 87.724 211.883 87.7044C207.919 87.028 203.903 86.7269 199.883 86.8044C199.761 86.8127 199.643 86.8473 199.536 86.9058C199.428 86.9647 199.336 87.0462 199.263 87.1444H197.583C197.183 85.5244 195.703 81.7844 195.183 80.3444C196.543 79.1644 198.423 78.5644 199.403 76.6644C201.203 73.1444 201.123 67.0244 200.623 63.1044C202.883 61.3844 202.943 58.6244 202.423 55.8044C202.223 54.6644 201.603 52.0844 200.643 51.4444C200.103 51.0844 198.963 51.4444 197.983 51.8044C197.003 49.5244 197.003 50.5644 197.403 49.6444C197.59 49.2204 197.698 48.7666 197.723 48.3044C198.783 48.6244 200.983 46.5044 200.223 43.7044C199.824 42.7022 199.336 41.7382 198.763 40.8244C199.043 40.1444 199.643 39.3244 197.763 36.8244C196.953 35.9509 195.901 35.3382 194.743 35.0644H193.823C193.159 34.1011 192.184 33.3949 191.063 33.0644C189.37 32.6324 187.573 32.884 186.063 33.7644C185.663 34.0644 185.343 34.4644 184.943 34.7444C184.038 34.1953 183.001 33.9051 181.943 33.9051C180.884 33.9051 179.848 34.1953 178.943 34.7444C178.413 34.952 177.931 35.2647 177.526 35.6633C177.121 36.0622 176.799 36.5386 176.583 37.0644C175.603 36.7262 174.563 36.596 173.53 36.6822C172.498 36.7684 171.493 37.0687 170.583 37.5644C167.128 39.4378 164.543 42.5895 163.383 46.3444C163.351 46.9106 163.351 47.4782 163.383 48.0444H163.163C160.163 47.6044 156.343 54.7244 159.403 60.2644C159.763 60.9244 160.223 61.5444 160.663 62.2644C161.943 64.2644 161.443 64.8644 164.303 67.3044C165.143 68.0244 165.283 67.9644 165.803 68.4044C166.323 68.8444 166.123 68.6244 166.423 69.7444C166.586 70.404 166.879 71.0251 167.284 71.5709C167.69 72.1167 168.199 72.5767 168.783 72.9244C168.996 74.8807 169.83 76.7171 171.163 78.1644C171.584 78.6371 172.078 79.0415 172.623 79.3644C172.77 79.4473 172.934 79.4953 173.103 79.5044C173.703 83.2244 174.443 88.0644 174.763 90.1244L172.983 91.0844C170.654 92.0215 168.39 93.1106 166.203 94.3444C166.031 94.4633 165.91 94.6411 165.863 94.8444C163.743 95.9644 161.743 97.0244 160.603 97.7044C144.723 107.124 99.6226 169.224 99.1626 172.064C99.1121 172.228 99.1121 172.401 99.1626 172.564C99.8092 173.596 100.597 174.531 101.503 175.344C101.224 175.855 100.888 176.329 100.503 176.764C96.5026 179.384 90.503 183.284 87.283 186.764C87.0568 186.966 86.8873 187.223 86.7913 187.509C86.695 187.796 86.675 188.103 86.7335 188.399C86.7921 188.696 86.927 188.973 87.1252 189.203C87.3233 189.431 87.5775 189.604 87.8626 189.704C88.4626 189.904 88.563 189.844 92.463 187.704C91.391 188.644 90.5143 189.786 89.883 191.064C89.623 192.164 90.623 192.804 91.883 192.604C92.5917 192.418 93.2666 192.121 93.883 191.724C93.5219 192.281 93.3303 192.931 93.3303 193.595C93.3303 194.258 93.5219 194.908 93.883 195.464C95.883 197.984 101.123 190.044 103.883 188.084C105.003 189.504 106.523 192.824 108.943 191.944C111.043 191.164 108.743 186.544 108.943 185.204C109.756 184.423 110.626 183.701 111.543 183.044C113.086 184.188 114.85 184.999 116.723 185.424C120.023 185.424 154.463 150.664 157.083 147.884C156.143 156.724 151.403 194.664 152.403 202.044C152.863 205.384 160.883 205.864 164.263 206.044C163.243 230.044 162.563 266.404 162.383 266.784C157.083 278.204 155.643 281.324 153.863 284.784C150.623 290.984 136.983 313.864 135.443 319.064C135.223 319.884 135.203 320.204 136.063 321.724C133.486 324.435 131.094 327.315 128.903 330.344C127.803 332.344 132.523 350.984 135.863 357.584C136.623 359.064 137.863 361.344 139.523 361.286C144.523 361.104 144.503 343.144 144.363 338.124C144.362 337.969 144.305 337.821 144.203 337.704C145.109 336.351 146.098 335.056 147.163 333.824C147.799 334.263 148.467 334.649 149.163 334.984C149.843 335.284 150.603 334.764 151.163 334.304C157.823 329.064 193.743 284.304 201.443 263.184C204.943 253.544 209.603 240.224 210.923 230.784C211.73 224.816 211.804 218.771 211.143 212.784C211.143 212.699 211.176 212.618 211.236 212.558C211.296 212.498 211.378 212.464 211.463 212.464C211.548 212.464 211.63 212.498 211.69 212.558C211.75 212.618 211.783 212.699 211.783 212.784C212.784 218.804 212.979 224.933 212.363 231.004C210.883 244.104 200.543 271.404 195.023 281.444C199.783 280.564 209.463 278.644 214.143 277.244C229.743 272.504 244.143 258.364 245.403 242.484C245.811 235.003 245.811 227.506 245.403 220.024C245.268 209.696 243.926 199.419 241.403 189.404C245.643 187.104 249.523 184.404 250.783 181.924C253.483 176.624 246.343 146.124 244.783 137.564C253.323 138.504 267.863 140.204 274.643 134.904C282.403 128.664 299.163 111.104 308.783 97.6044ZM143.283 337.024C139.683 334.844 134.643 329.664 133.883 325.604C134.703 324.564 135.563 323.604 136.363 322.524C139.073 326.661 142.453 330.318 146.363 333.344C145.264 334.509 144.236 335.738 143.283 337.024ZM302.283 83.4644C302.386 83.3986 302.461 83.2953 302.49 83.1764C302.519 83.0571 302.503 82.9313 302.443 82.8244C301.743 81.5244 299.643 76.9444 301.103 76.4244C301.943 76.1044 302.683 76.6244 303.303 77.3244C304.25 78.5255 304.986 79.8778 305.483 81.3244C305.519 81.4418 305.588 81.5473 305.681 81.6291C305.773 81.7109 305.886 81.7658 306.006 81.7887C306.128 81.8113 306.253 81.8004 306.37 81.7575C306.484 81.7146 306.586 81.6407 306.663 81.5444C308.663 79.3244 313.343 74.2644 315.983 72.9044C317.983 71.8644 318.463 73.7844 313.563 78.2644C312.438 79.1226 311.356 80.0371 310.323 81.0044C310.266 81.0829 310.234 81.1775 310.234 81.2746C310.234 81.3713 310.266 81.4658 310.323 81.5444C310.323 82.0644 310.743 82.6444 311.463 82.1044C313.201 80.5782 315.039 79.1687 316.963 77.8844C317.944 77.1869 319.086 76.7466 320.283 76.6044C319.683 78.4444 314.103 83.4444 313.623 84.0044C313.471 84.1411 313.378 84.3317 313.364 84.5357C313.353 84.7397 313.419 84.9407 313.553 85.0953C313.688 85.2498 313.876 85.3458 314.079 85.3626C314.284 85.3793 314.486 85.3153 314.643 85.1844C316.863 83.7444 320.743 80.3844 322.083 80.8844C323.423 81.3844 319.443 85.1044 318.443 85.9844C312.703 90.9644 314.183 87.7644 307.543 94.5244C304.653 91.3582 301.334 88.6117 297.683 86.3644L302.283 83.4644ZM215.383 179.124C215.043 176.364 214.623 173.384 214.103 170.284L214.963 169.144C218.963 164.004 220.163 155.824 219.783 149.404C221.923 158.784 223.623 168.004 224.923 177.164L215.383 179.124ZM185.643 110.644C180.383 106.644 171.923 99.7444 167.003 95.0244L175.003 91.0244C182.35 97.8862 188.638 105.799 193.663 114.504C201.348 128.621 207.048 143.73 210.603 159.404L182.083 119.064L185.803 111.344C185.853 111.225 185.863 111.094 185.834 110.969C185.806 110.843 185.739 110.73 185.643 110.644ZM199.163 87.9644C199.283 88.1844 200.663 91.1244 202.763 96.2644C202.763 96.4844 202.383 101.484 202.203 103.244C199.65 102.233 197.243 100.888 195.043 99.2444C195.483 97.5044 197.463 89.6044 197.603 87.8244L199.163 87.9644ZM192.063 109.444C192.203 109.084 192.343 108.604 192.503 108.044L193.843 108.744C194.603 109.244 194.303 107.724 194.983 112.124C194.983 112.864 195.183 113.684 195.223 114.584C194.303 112.924 193.163 111.144 192.083 109.444H192.063ZM190.943 107.764C187.164 102.405 182.863 97.4342 178.103 92.9244L193.163 99.4644C192.583 100.844 191.743 105.064 190.963 107.764H190.943ZM206.323 119.484C204.323 114.024 202.783 107.924 202.023 106.324C202.068 105.825 202.068 105.323 202.023 104.824C202.313 104.932 202.614 104.999 202.923 105.024C203.116 105.027 203.303 104.959 203.45 104.834C203.598 104.709 203.694 104.535 203.723 104.344C203.883 103.684 204.143 100.344 204.183 99.6044C210.001 114.293 214.858 129.345 218.723 144.664C207.423 120.624 209.163 127.584 206.343 119.484H206.323ZM222.863 157.664C218.303 135.804 210.283 108.544 201.163 88.3444C204.513 88.3462 207.856 88.6138 211.163 89.1444C212.863 104.344 211.443 103.824 212.583 104.424C213.723 105.024 220.583 107.784 221.603 108.204C221.503 109.744 222.943 153.784 222.883 157.664H222.863ZM199.843 52.7244C200.886 54.9997 201.253 57.5262 200.903 60.0044C200.739 60.6353 200.406 61.2084 199.936 61.66C199.466 62.112 198.881 62.4247 198.244 62.5637C197.61 62.7026 196.946 62.6622 196.331 62.4469C195.716 62.2317 195.174 61.8498 194.763 61.3444C193.808 59.3342 193.091 57.22 192.623 55.0444C193.163 54.3444 198.923 52.9444 199.843 52.7244ZM172.323 72.7244C171.593 72.3917 170.844 72.0982 170.083 71.8444C169.571 71.6342 169.116 71.3098 168.75 70.896C168.383 70.4822 168.116 69.9902 167.97 69.4571C167.823 68.9244 167.799 68.3651 167.903 67.8218C168.006 67.2789 168.231 66.7666 168.563 66.3244C169.823 65.2644 170.963 65.3244 172.003 66.9044C172.663 68.1244 172.643 68.2244 172.943 68.3444C173.03 68.3822 173.123 68.4015 173.216 68.4004C173.31 68.3993 173.403 68.3782 173.488 68.3386C173.573 68.2989 173.65 68.2411 173.71 68.1698C173.771 68.0986 173.816 68.0149 173.843 67.9244C174.139 66.6727 174.186 65.3746 173.983 64.1044C173.743 62.7244 173.703 56.6044 173.743 56.4044C174.328 56.7124 174.983 56.8575 175.643 56.8244C179.263 56.6844 179.983 54.8244 181.423 53.3044C183.083 53.4644 183.423 54.2644 185.303 53.3044C186.183 52.8037 186.991 52.1848 187.703 51.4644C188.278 51.6997 188.833 51.9807 189.363 52.3044C190.561 52.8807 191.913 53.0578 193.219 52.8095C194.526 52.5611 195.719 51.9004 196.623 50.9244C196.843 51.3444 197.043 51.7644 197.223 52.2044C195.384 52.7749 193.654 53.6466 192.103 54.7844C191.763 55.2044 192.263 57.4844 192.383 58.0244C190.708 58.2353 189.086 58.7575 187.603 59.5644C187.303 58.5244 186.643 56.5844 185.603 56.0444C185.29 55.9487 184.956 55.9487 184.643 56.0444C182.843 56.3244 176.383 58.2644 175.603 59.3244C174.923 60.0644 176.863 65.7844 177.463 66.7244C179.763 70.2844 186.503 69.2444 187.763 65.0844C188.074 63.6884 188.074 62.2404 187.763 60.8444C188.343 60.8444 190.083 60.2244 190.283 60.1644C191.663 63.2644 192.063 63.4444 193.663 66.7844C193.443 66.9644 193.083 67.2644 192.783 67.4644C191.363 68.4044 191.063 68.2444 191.143 68.6444C191.166 68.7237 191.218 68.792 191.288 68.836C191.358 68.8804 191.441 68.8975 191.523 68.8844C192.363 68.7644 193.183 68.536 193.963 68.2044C194.43 68.0302 194.814 67.6877 195.043 67.2444C195.603 65.9844 192.503 61.2444 191.283 59.8244C191.523 59.8244 192.083 59.4244 192.503 59.2044C193.063 61.4444 193.443 63.2044 195.603 64.0844C196.228 64.32 196.893 64.4273 197.559 64.4C198.226 64.3724 198.879 64.2106 199.483 63.9244C199.803 67.4444 199.743 73.1644 198.063 76.2844C197.203 77.9044 195.083 78.5244 193.723 79.8644C193.323 80.2444 193.583 80.7844 193.723 81.3644C195.943 87.5444 195.983 87.5244 195.863 88.3244C195.274 91.6447 194.453 94.9197 193.403 98.1244C192.903 97.9044 187.283 94.9244 176.283 90.6444C175.943 88.3844 174.123 76.3244 173.543 74.1044C173.583 73.3244 173.483 73.1444 172.323 72.6244V72.7244ZM186.323 64.5644C185.683 66.7444 182.663 67.6844 180.503 67.0844C178.343 66.4844 178.203 65.3844 177.183 62.7844C176.704 61.7913 176.374 60.7331 176.203 59.6444C176.863 58.9244 184.083 57.4444 184.983 57.3044C186.244 59.464 186.719 61.9946 186.323 64.4644V64.5644ZM108.063 184.644C107.303 185.384 108.323 187.804 108.483 189.904C108.483 190.084 108.483 190.864 108.363 190.924C107.263 191.284 106.243 189.624 105.623 188.624C105.003 187.624 104.383 186.264 103.403 186.624C101.403 187.564 96.7626 193.724 94.9426 194.364C94.0226 192.604 99.283 187.584 99.463 187.304C99.5401 187.176 99.5804 187.028 99.5797 186.879C99.579 186.729 99.5372 186.581 99.459 186.455C99.3804 186.326 99.2684 186.223 99.1353 186.153C99.0019 186.084 98.8524 186.055 98.703 186.064C98.343 186.064 98.1026 186.384 97.5426 186.884C95.8393 188.546 93.8899 189.936 91.7626 191.004C93.6913 188.791 95.7553 186.701 97.9426 184.744C98.051 184.633 98.127 184.495 98.163 184.344C98.163 184.344 97.743 183.284 96.923 183.704C95.763 184.344 90.1226 187.604 88.343 188.444C88.103 188.284 88.243 188.044 88.343 187.804C91.1626 184.344 97.363 180.144 101.163 177.484C101.609 177.024 101.98 176.499 102.263 175.924C104.895 178.373 107.702 180.626 110.663 182.664C109.751 183.263 108.882 183.924 108.063 184.644ZM154.603 202.824C154.163 202.544 153.843 202.284 153.783 201.924C152.683 193.764 158.803 147.524 158.703 145.704C158.703 145.597 158.681 145.492 158.639 145.393C158.599 145.295 158.538 145.206 158.461 145.132C158.384 145.057 158.294 144.999 158.194 144.959C158.096 144.92 157.99 144.902 157.883 144.904C156.863 144.904 158.663 144.904 133.183 169.304C131.503 170.884 118.663 183.164 116.523 183.984C113.583 183.764 102.523 174.944 100.723 172.164C104.203 165.124 146.403 107.204 161.003 98.3444C162.123 97.6644 164.043 96.6044 166.143 95.4844C166.87 96.1695 167.651 96.7913 168.483 97.3444C173.123 101.744 179.583 107.224 184.483 111.344L180.663 118.924C180.604 119.025 180.574 119.139 180.574 119.255C180.574 119.37 180.604 119.484 180.663 119.584C211.683 164.084 211.223 163.584 211.423 163.584C213.411 173.868 214.648 184.281 215.123 194.744C215.123 197.564 215.123 197.324 215.243 197.124C215.363 196.924 215.243 197.264 215.243 197.264C210.403 202.544 162.503 207.464 154.603 202.824ZM265.163 136.564C256.103 137.824 245.863 135.944 243.883 135.864C242.783 130.533 240.59 125.487 237.443 121.044C237.394 120.98 237.324 120.935 237.244 120.921C237.166 120.906 237.084 120.921 237.016 120.964C236.948 121.007 236.898 121.075 236.876 121.152C236.856 121.23 236.864 121.313 236.903 121.384C238.063 123.744 241.943 133.924 242.903 136.404C242.603 137.364 251.943 175.984 249.303 181.184C246.943 185.884 233.203 191.804 228.243 193.504C227.263 182.369 225.659 171.299 223.443 160.344C224.123 154.584 223.243 120.344 222.983 107.684C222.974 107.537 222.926 107.395 222.841 107.275C222.756 107.155 222.639 107.061 222.503 107.004L213.523 103.224C213.483 98.4717 213.181 93.7244 212.623 89.0044C235.043 92.8844 261.163 105.704 263.343 105.724C266.503 105.724 289.983 87.7244 294.843 87.0044C297.003 86.6644 306.283 94.7644 307.363 97.0044C297.883 110.244 281.223 127.644 273.503 133.664C271.016 135.327 268.144 136.325 265.163 136.564Z"/>
</mask>
<path d="M308.783 97.6044C309.283 96.9044 308.643 96.0044 308.103 95.3044C309.633 93.7313 311.33 92.3295 313.163 91.1244C316.258 89.5822 319.086 87.5571 321.543 85.1244C322.563 84.0644 324.483 81.8844 323.763 80.6044C323.043 79.3244 321.763 79.2444 320.023 79.9844C320.776 79.1931 321.393 78.28 321.843 77.2844C322.403 75.7244 321.083 74.4644 318.223 75.6244C319.263 73.9644 319.503 72.2244 317.743 71.3844C316.323 70.7044 314.243 72.3244 313.043 73.3844C310.686 75.4433 308.474 77.6618 306.423 80.0244C305.163 77.3844 303.163 74.3444 300.663 75.3044C298.163 76.2644 300.103 80.5644 301.383 82.9044L296.843 86.0444C296.156 85.6738 295.381 85.5011 294.603 85.5444C289.443 86.4244 265.743 104.464 263.343 104.464C261.503 104.464 235.223 91.8644 212.503 88.2244C212.459 88.088 212.378 87.9673 212.268 87.8753C212.158 87.7833 212.024 87.724 211.883 87.7044C207.919 87.028 203.903 86.7269 199.883 86.8044C199.761 86.8127 199.643 86.8473 199.536 86.9058C199.428 86.9647 199.336 87.0462 199.263 87.1444H197.583C197.183 85.5244 195.703 81.7844 195.183 80.3444C196.543 79.1644 198.423 78.5644 199.403 76.6644C201.203 73.1444 201.123 67.0244 200.623 63.1044C202.883 61.3844 202.943 58.6244 202.423 55.8044C202.223 54.6644 201.603 52.0844 200.643 51.4444C200.103 51.0844 198.963 51.4444 197.983 51.8044C197.003 49.5244 197.003 50.5644 197.403 49.6444C197.59 49.2204 197.698 48.7666 197.723 48.3044C198.783 48.6244 200.983 46.5044 200.223 43.7044C199.824 42.7022 199.336 41.7382 198.763 40.8244C199.043 40.1444 199.643 39.3244 197.763 36.8244C196.953 35.9509 195.901 35.3382 194.743 35.0644H193.823C193.159 34.1011 192.184 33.3949 191.063 33.0644C189.37 32.6324 187.573 32.884 186.063 33.7644C185.663 34.0644 185.343 34.4644 184.943 34.7444C184.038 34.1953 183.001 33.9051 181.943 33.9051C180.884 33.9051 179.848 34.1953 178.943 34.7444C178.413 34.952 177.931 35.2647 177.526 35.6633C177.121 36.0622 176.799 36.5386 176.583 37.0644C175.603 36.7262 174.563 36.596 173.53 36.6822C172.498 36.7684 171.493 37.0687 170.583 37.5644C167.128 39.4378 164.543 42.5895 163.383 46.3444C163.351 46.9106 163.351 47.4782 163.383 48.0444H163.163C160.163 47.6044 156.343 54.7244 159.403 60.2644C159.763 60.9244 160.223 61.5444 160.663 62.2644C161.943 64.2644 161.443 64.8644 164.303 67.3044C165.143 68.0244 165.283 67.9644 165.803 68.4044C166.323 68.8444 166.123 68.6244 166.423 69.7444C166.586 70.404 166.879 71.0251 167.284 71.5709C167.69 72.1167 168.199 72.5767 168.783 72.9244C168.996 74.8807 169.83 76.7171 171.163 78.1644C171.584 78.6371 172.078 79.0415 172.623 79.3644C172.77 79.4473 172.934 79.4953 173.103 79.5044C173.703 83.2244 174.443 88.0644 174.763 90.1244L172.983 91.0844C170.654 92.0215 168.39 93.1106 166.203 94.3444C166.031 94.4633 165.91 94.6411 165.863 94.8444C163.743 95.9644 161.743 97.0244 160.603 97.7044C144.723 107.124 99.6226 169.224 99.1626 172.064C99.1121 172.228 99.1121 172.401 99.1626 172.564C99.8092 173.596 100.597 174.531 101.503 175.344C101.224 175.855 100.888 176.329 100.503 176.764C96.5026 179.384 90.503 183.284 87.283 186.764C87.0568 186.966 86.8873 187.223 86.7913 187.509C86.695 187.796 86.675 188.103 86.7335 188.399C86.7921 188.696 86.927 188.973 87.1252 189.203C87.3233 189.431 87.5775 189.604 87.8626 189.704C88.4626 189.904 88.563 189.844 92.463 187.704C91.391 188.644 90.5143 189.786 89.883 191.064C89.623 192.164 90.623 192.804 91.883 192.604C92.5917 192.418 93.2666 192.121 93.883 191.724C93.5219 192.281 93.3303 192.931 93.3303 193.595C93.3303 194.258 93.5219 194.908 93.883 195.464C95.883 197.984 101.123 190.044 103.883 188.084C105.003 189.504 106.523 192.824 108.943 191.944C111.043 191.164 108.743 186.544 108.943 185.204C109.756 184.423 110.626 183.701 111.543 183.044C113.086 184.188 114.85 184.999 116.723 185.424C120.023 185.424 154.463 150.664 157.083 147.884C156.143 156.724 151.403 194.664 152.403 202.044C152.863 205.384 160.883 205.864 164.263 206.044C163.243 230.044 162.563 266.404 162.383 266.784C157.083 278.204 155.643 281.324 153.863 284.784C150.623 290.984 136.983 313.864 135.443 319.064C135.223 319.884 135.203 320.204 136.063 321.724C133.486 324.435 131.094 327.315 128.903 330.344C127.803 332.344 132.523 350.984 135.863 357.584C136.623 359.064 137.863 361.344 139.523 361.286C144.523 361.104 144.503 343.144 144.363 338.124C144.362 337.969 144.305 337.821 144.203 337.704C145.109 336.351 146.098 335.056 147.163 333.824C147.799 334.263 148.467 334.649 149.163 334.984C149.843 335.284 150.603 334.764 151.163 334.304C157.823 329.064 193.743 284.304 201.443 263.184C204.943 253.544 209.603 240.224 210.923 230.784C211.73 224.816 211.804 218.771 211.143 212.784C211.143 212.699 211.176 212.618 211.236 212.558C211.296 212.498 211.378 212.464 211.463 212.464C211.548 212.464 211.63 212.498 211.69 212.558C211.75 212.618 211.783 212.699 211.783 212.784C212.784 218.804 212.979 224.933 212.363 231.004C210.883 244.104 200.543 271.404 195.023 281.444C199.783 280.564 209.463 278.644 214.143 277.244C229.743 272.504 244.143 258.364 245.403 242.484C245.811 235.003 245.811 227.506 245.403 220.024C245.268 209.696 243.926 199.419 241.403 189.404C245.643 187.104 249.523 184.404 250.783 181.924C253.483 176.624 246.343 146.124 244.783 137.564C253.323 138.504 267.863 140.204 274.643 134.904C282.403 128.664 299.163 111.104 308.783 97.6044ZM143.283 337.024C139.683 334.844 134.643 329.664 133.883 325.604C134.703 324.564 135.563 323.604 136.363 322.524C139.073 326.661 142.453 330.318 146.363 333.344C145.264 334.509 144.236 335.738 143.283 337.024ZM302.283 83.4644C302.386 83.3986 302.461 83.2953 302.49 83.1764C302.519 83.0571 302.503 82.9313 302.443 82.8244C301.743 81.5244 299.643 76.9444 301.103 76.4244C301.943 76.1044 302.683 76.6244 303.303 77.3244C304.25 78.5255 304.986 79.8778 305.483 81.3244C305.519 81.4418 305.588 81.5473 305.681 81.6291C305.773 81.7109 305.886 81.7658 306.006 81.7887C306.128 81.8113 306.253 81.8004 306.37 81.7575C306.484 81.7146 306.586 81.6407 306.663 81.5444C308.663 79.3244 313.343 74.2644 315.983 72.9044C317.983 71.8644 318.463 73.7844 313.563 78.2644C312.438 79.1226 311.356 80.0371 310.323 81.0044C310.266 81.0829 310.234 81.1775 310.234 81.2746C310.234 81.3713 310.266 81.4658 310.323 81.5444C310.323 82.0644 310.743 82.6444 311.463 82.1044C313.201 80.5782 315.039 79.1687 316.963 77.8844C317.944 77.1869 319.086 76.7466 320.283 76.6044C319.683 78.4444 314.103 83.4444 313.623 84.0044C313.471 84.1411 313.378 84.3317 313.364 84.5357C313.353 84.7397 313.419 84.9407 313.553 85.0953C313.688 85.2498 313.876 85.3458 314.079 85.3626C314.284 85.3793 314.486 85.3153 314.643 85.1844C316.863 83.7444 320.743 80.3844 322.083 80.8844C323.423 81.3844 319.443 85.1044 318.443 85.9844C312.703 90.9644 314.183 87.7644 307.543 94.5244C304.653 91.3582 301.334 88.6117 297.683 86.3644L302.283 83.4644ZM215.383 179.124C215.043 176.364 214.623 173.384 214.103 170.284L214.963 169.144C218.963 164.004 220.163 155.824 219.783 149.404C221.923 158.784 223.623 168.004 224.923 177.164L215.383 179.124ZM185.643 110.644C180.383 106.644 171.923 99.7444 167.003 95.0244L175.003 91.0244C182.35 97.8862 188.638 105.799 193.663 114.504C201.348 128.621 207.048 143.73 210.603 159.404L182.083 119.064L185.803 111.344C185.853 111.225 185.863 111.094 185.834 110.969C185.806 110.843 185.739 110.73 185.643 110.644ZM199.163 87.9644C199.283 88.1844 200.663 91.1244 202.763 96.2644C202.763 96.4844 202.383 101.484 202.203 103.244C199.65 102.233 197.243 100.888 195.043 99.2444C195.483 97.5044 197.463 89.6044 197.603 87.8244L199.163 87.9644ZM192.063 109.444C192.203 109.084 192.343 108.604 192.503 108.044L193.843 108.744C194.603 109.244 194.303 107.724 194.983 112.124C194.983 112.864 195.183 113.684 195.223 114.584C194.303 112.924 193.163 111.144 192.083 109.444H192.063ZM190.943 107.764C187.164 102.405 182.863 97.4342 178.103 92.9244L193.163 99.4644C192.583 100.844 191.743 105.064 190.963 107.764H190.943ZM206.323 119.484C204.323 114.024 202.783 107.924 202.023 106.324C202.068 105.825 202.068 105.323 202.023 104.824C202.313 104.932 202.614 104.999 202.923 105.024C203.116 105.027 203.303 104.959 203.45 104.834C203.598 104.709 203.694 104.535 203.723 104.344C203.883 103.684 204.143 100.344 204.183 99.6044C210.001 114.293 214.858 129.345 218.723 144.664C207.423 120.624 209.163 127.584 206.343 119.484H206.323ZM222.863 157.664C218.303 135.804 210.283 108.544 201.163 88.3444C204.513 88.3462 207.856 88.6138 211.163 89.1444C212.863 104.344 211.443 103.824 212.583 104.424C213.723 105.024 220.583 107.784 221.603 108.204C221.503 109.744 222.943 153.784 222.883 157.664H222.863ZM199.843 52.7244C200.886 54.9997 201.253 57.5262 200.903 60.0044C200.739 60.6353 200.406 61.2084 199.936 61.66C199.466 62.112 198.881 62.4247 198.244 62.5637C197.61 62.7026 196.946 62.6622 196.331 62.4469C195.716 62.2317 195.174 61.8498 194.763 61.3444C193.808 59.3342 193.091 57.22 192.623 55.0444C193.163 54.3444 198.923 52.9444 199.843 52.7244ZM172.323 72.7244C171.593 72.3917 170.844 72.0982 170.083 71.8444C169.571 71.6342 169.116 71.3098 168.75 70.896C168.383 70.4822 168.116 69.9902 167.97 69.4571C167.823 68.9244 167.799 68.3651 167.903 67.8218C168.006 67.2789 168.231 66.7666 168.563 66.3244C169.823 65.2644 170.963 65.3244 172.003 66.9044C172.663 68.1244 172.643 68.2244 172.943 68.3444C173.03 68.3822 173.123 68.4015 173.216 68.4004C173.31 68.3993 173.403 68.3782 173.488 68.3386C173.573 68.2989 173.65 68.2411 173.71 68.1698C173.771 68.0986 173.816 68.0149 173.843 67.9244C174.139 66.6727 174.186 65.3746 173.983 64.1044C173.743 62.7244 173.703 56.6044 173.743 56.4044C174.328 56.7124 174.983 56.8575 175.643 56.8244C179.263 56.6844 179.983 54.8244 181.423 53.3044C183.083 53.4644 183.423 54.2644 185.303 53.3044C186.183 52.8037 186.991 52.1848 187.703 51.4644C188.278 51.6997 188.833 51.9807 189.363 52.3044C190.561 52.8807 191.913 53.0578 193.219 52.8095C194.526 52.5611 195.719 51.9004 196.623 50.9244C196.843 51.3444 197.043 51.7644 197.223 52.2044C195.384 52.7749 193.654 53.6466 192.103 54.7844C191.763 55.2044 192.263 57.4844 192.383 58.0244C190.708 58.2353 189.086 58.7575 187.603 59.5644C187.303 58.5244 186.643 56.5844 185.603 56.0444C185.29 55.9487 184.956 55.9487 184.643 56.0444C182.843 56.3244 176.383 58.2644 175.603 59.3244C174.923 60.0644 176.863 65.7844 177.463 66.7244C179.763 70.2844 186.503 69.2444 187.763 65.0844C188.074 63.6884 188.074 62.2404 187.763 60.8444C188.343 60.8444 190.083 60.2244 190.283 60.1644C191.663 63.2644 192.063 63.4444 193.663 66.7844C193.443 66.9644 193.083 67.2644 192.783 67.4644C191.363 68.4044 191.063 68.2444 191.143 68.6444C191.166 68.7237 191.218 68.792 191.288 68.836C191.358 68.8804 191.441 68.8975 191.523 68.8844C192.363 68.7644 193.183 68.536 193.963 68.2044C194.43 68.0302 194.814 67.6877 195.043 67.2444C195.603 65.9844 192.503 61.2444 191.283 59.8244C191.523 59.8244 192.083 59.4244 192.503 59.2044C193.063 61.4444 193.443 63.2044 195.603 64.0844C196.228 64.32 196.893 64.4273 197.559 64.4C198.226 64.3724 198.879 64.2106 199.483 63.9244C199.803 67.4444 199.743 73.1644 198.063 76.2844C197.203 77.9044 195.083 78.5244 193.723 79.8644C193.323 80.2444 193.583 80.7844 193.723 81.3644C195.943 87.5444 195.983 87.5244 195.863 88.3244C195.274 91.6447 194.453 94.9197 193.403 98.1244C192.903 97.9044 187.283 94.9244 176.283 90.6444C175.943 88.3844 174.123 76.3244 173.543 74.1044C173.583 73.3244 173.483 73.1444 172.323 72.6244V72.7244ZM186.323 64.5644C185.683 66.7444 182.663 67.6844 180.503 67.0844C178.343 66.4844 178.203 65.3844 177.183 62.7844C176.704 61.7913 176.374 60.7331 176.203 59.6444C176.863 58.9244 184.083 57.4444 184.983 57.3044C186.244 59.464 186.719 61.9946 186.323 64.4644V64.5644ZM108.063 184.644C107.303 185.384 108.323 187.804 108.483 189.904C108.483 190.084 108.483 190.864 108.363 190.924C107.263 191.284 106.243 189.624 105.623 188.624C105.003 187.624 104.383 186.264 103.403 186.624C101.403 187.564 96.7626 193.724 94.9426 194.364C94.0226 192.604 99.283 187.584 99.463 187.304C99.5401 187.176 99.5804 187.028 99.5797 186.879C99.579 186.729 99.5372 186.581 99.459 186.455C99.3804 186.326 99.2684 186.223 99.1353 186.153C99.0019 186.084 98.8524 186.055 98.703 186.064C98.343 186.064 98.1026 186.384 97.5426 186.884C95.8393 188.546 93.8899 189.936 91.7626 191.004C93.6913 188.791 95.7553 186.701 97.9426 184.744C98.051 184.633 98.127 184.495 98.163 184.344C98.163 184.344 97.743 183.284 96.923 183.704C95.763 184.344 90.1226 187.604 88.343 188.444C88.103 188.284 88.243 188.044 88.343 187.804C91.1626 184.344 97.363 180.144 101.163 177.484C101.609 177.024 101.98 176.499 102.263 175.924C104.895 178.373 107.702 180.626 110.663 182.664C109.751 183.263 108.882 183.924 108.063 184.644ZM154.603 202.824C154.163 202.544 153.843 202.284 153.783 201.924C152.683 193.764 158.803 147.524 158.703 145.704C158.703 145.597 158.681 145.492 158.639 145.393C158.599 145.295 158.538 145.206 158.461 145.132C158.384 145.057 158.294 144.999 158.194 144.959C158.096 144.92 157.99 144.902 157.883 144.904C156.863 144.904 158.663 144.904 133.183 169.304C131.503 170.884 118.663 183.164 116.523 183.984C113.583 183.764 102.523 174.944 100.723 172.164C104.203 165.124 146.403 107.204 161.003 98.3444C162.123 97.6644 164.043 96.6044 166.143 95.4844C166.87 96.1695 167.651 96.7913 168.483 97.3444C173.123 101.744 179.583 107.224 184.483 111.344L180.663 118.924C180.604 119.025 180.574 119.139 180.574 119.255C180.574 119.37 180.604 119.484 180.663 119.584C211.683 164.084 211.223 163.584 211.423 163.584C213.411 173.868 214.648 184.281 215.123 194.744C215.123 197.564 215.123 197.324 215.243 197.124C215.363 196.924 215.243 197.264 215.243 197.264C210.403 202.544 162.503 207.464 154.603 202.824ZM265.163 136.564C256.103 137.824 245.863 135.944 243.883 135.864C242.783 130.533 240.59 125.487 237.443 121.044C237.394 120.98 237.324 120.935 237.244 120.921C237.166 120.906 237.084 120.921 237.016 120.964C236.948 121.007 236.898 121.075 236.876 121.152C236.856 121.23 236.864 121.313 236.903 121.384C238.063 123.744 241.943 133.924 242.903 136.404C242.603 137.364 251.943 175.984 249.303 181.184C246.943 185.884 233.203 191.804 228.243 193.504C227.263 182.369 225.659 171.299 223.443 160.344C224.123 154.584 223.243 120.344 222.983 107.684C222.974 107.537 222.926 107.395 222.841 107.275C222.756 107.155 222.639 107.061 222.503 107.004L213.523 103.224C213.483 98.4717 213.181 93.7244 212.623 89.0044C235.043 92.8844 261.163 105.704 263.343 105.724C266.503 105.724 289.983 87.7244 294.843 87.0044C297.003 86.6644 306.283 94.7644 307.363 97.0044C297.883 110.244 281.223 127.644 273.503 133.664C271.016 135.327 268.144 136.325 265.163 136.564Z" stroke="white" stroke-width="2" mask="url(#path-2-inside-1_1426_419)"/>
<mask id="path-3-inside-2_1426_419" fill="white">
<path d="M184.263 60.5644C184.237 60.4331 184.188 60.308 184.114 60.1964C184.041 60.0844 183.946 59.988 183.836 59.9128C183.724 59.8378 183.601 59.7851 183.469 59.7578C183.339 59.7306 183.204 59.7295 183.072 59.7546C182.941 59.7793 182.816 59.8298 182.704 59.9033C182.592 59.9768 182.496 60.0709 182.421 60.1815C182.346 60.292 182.292 60.4164 182.266 60.5473C182.239 60.6782 182.237 60.8131 182.262 60.9444C182.663 62.9444 182.743 63.4044 183.622 63.4044C183.789 63.4048 183.952 63.364 184.099 63.2855C184.246 63.2066 184.371 63.0928 184.461 62.9535C184.552 62.8146 184.608 62.6549 184.623 62.4891C184.636 62.3233 184.609 62.1567 184.543 62.0044C184.483 61.6844 184.303 60.7444 184.263 60.5644ZM190.383 73.8044C191.683 74.1844 192.923 73.5644 192.883 73.2444C192.843 72.9244 192.883 73.0844 191.122 72.4244C189.943 71.9844 188.643 70.4244 188.183 70.6644C187.723 70.9044 188.423 72.1844 188.583 72.4244C189.011 73.0735 189.644 73.5597 190.383 73.8044ZM226.962 54.8044C224.342 65.7844 222.423 75.1044 222.103 76.9644C221.889 77.7735 221.849 78.6186 221.982 79.4444C223.042 81.7044 236.743 86.1644 238.483 85.2844C240.223 84.4044 244.743 74.2244 250.003 63.7244C253.224 63.8273 256.449 63.5928 259.623 63.0244C262.964 62.4113 266.216 61.3833 269.303 59.9644C276.063 56.8444 283.463 43.4844 284.463 36.7644C285.212 29.4684 283.668 22.1204 280.043 15.7444C263.263 -13.3556 214.043 2.30439 218.043 34.6244C219.184 42.0197 222.262 48.9818 226.962 54.8044ZM239.163 78.6244C239.163 78.9444 238.803 78.9044 237.163 78.6244C233.808 78.2029 230.559 77.1655 227.583 75.5644C226.183 74.8044 225.803 74.6444 225.943 74.3044C226.083 73.9644 226.383 74.0844 228.543 74.6844C228.743 74.6844 234.942 76.6844 236.722 77.3044C239.022 78.3444 239.163 78.3444 239.163 78.6244ZM238.803 46.0844C240.937 46.1949 243.066 45.7546 244.983 44.8044C246.763 45.6669 248.689 46.1895 250.663 46.3444C247.303 52.6044 240.483 65.3644 238.283 72.1644L229.802 69.8244C231.802 64.9044 236.223 53.3844 238.763 46.0844H238.803ZM238.102 44.4244C236.609 44.1989 235.231 43.4898 234.181 42.4062C233.129 41.3222 232.463 39.9237 232.283 38.4244C231.723 34.4244 234.283 29.9444 238.143 31.0044C240.562 31.6644 240.863 33.5844 240.443 36.0044C240.083 37.7644 238.783 42.1844 238.063 44.3444L238.102 44.4244ZM243.543 39.6244C243.756 38.3157 244.248 37.0677 244.983 35.9644C245.332 35.3629 245.844 34.8717 246.459 34.5466C247.074 34.2211 247.768 34.0749 248.463 34.1244C249.943 34.5644 250.583 37.3644 249.363 39.1244C248.189 40.6804 246.731 41.9975 245.063 43.0044C244.488 42.6677 244.031 42.1633 243.752 41.5589C243.474 40.9549 243.386 40.2797 243.503 39.6244H243.543ZM225.163 14.2044C234.123 3.42439 250.983 -0.855607 263.163 3.58439C269.779 5.8557 275.344 10.4546 278.823 16.5244C282.271 22.5916 283.746 29.5811 283.043 36.5244C282.123 42.7444 275.043 55.6644 268.823 58.5244C263.136 61.1186 256.931 62.3771 250.683 62.2044C250.003 62.2044 249.283 62.2044 249.023 62.6844C247.843 65.0844 245.683 69.7244 243.563 74.0844C242.097 73.3775 240.581 72.7888 239.023 72.3244C241.343 65.6844 248.663 52.6444 252.143 46.3244C255.157 46.5826 258.189 46.0593 260.943 44.8044C261.686 44.4128 262.303 43.8171 262.721 43.0869C263.137 42.3571 263.339 41.5233 263.299 40.6833C263.259 39.8437 262.979 39.0328 262.496 38.3455C262.011 37.6586 261.341 37.1237 260.563 36.8044C257.463 35.2844 254.683 38.9244 253.063 41.9844C252.623 42.7844 252.123 43.7244 251.563 44.7844C249.944 44.6782 248.349 44.3484 246.823 43.8044C248.343 42.7353 249.692 41.4408 250.823 39.9644C251.456 39.008 251.776 37.8789 251.741 36.7328C251.704 35.5862 251.314 34.4793 250.623 33.5644C250.079 32.9335 249.324 32.5222 248.499 32.408C247.674 32.2938 246.836 32.4848 246.143 32.9444C244.741 33.8051 243.619 35.0517 242.909 36.5346C242.201 38.0175 241.934 39.6738 242.143 41.3044C242.359 42.2248 242.856 43.056 243.563 43.6844C242.251 44.2277 240.843 44.5 239.423 44.4844C240.223 42.1244 241.523 37.8644 241.863 36.1244C242.076 35.1324 242.123 34.112 242.003 33.1044C241.848 32.2397 241.446 31.4378 240.846 30.7957C240.248 30.1531 239.474 29.6982 238.623 29.4844C233.763 28.1044 230.183 33.4844 230.883 38.5044C231.079 40.3033 231.852 41.9906 233.084 43.3164C234.316 44.6422 235.943 45.5357 237.723 45.8644C235.163 53.0644 231.163 64.6844 229.163 69.6444L224.763 68.5044C227.583 54.3444 227.923 54.6844 227.522 54.5044C222.977 48.7106 220.071 41.804 219.103 34.5044C218.631 30.8848 218.928 27.2066 219.971 23.7093C221.014 20.2116 222.784 16.9731 225.163 14.2044ZM252.923 44.9044C254.323 42.3644 257.123 36.8044 259.843 38.1644C260.386 38.3837 260.861 38.7473 261.212 39.216C261.566 39.6848 261.783 40.2408 261.843 40.8244C261.803 44.3444 256.323 44.9644 252.843 44.9044H252.923ZM329.483 53.7244C331.892 52.3069 334.739 51.8229 337.483 52.3644C340.496 52.4182 343.374 53.6229 345.528 55.7317C347.683 57.8404 348.944 60.6928 349.061 63.7044C347.25 62.6531 345.131 62.2575 343.063 62.5844C338.043 63.0244 331.483 65.7444 332.363 70.5844C333.083 74.5844 338.363 74.0444 342.363 72.9644C346.363 71.8844 349.541 69.9244 350.363 66.0644C355.221 69.6044 356.363 75.8044 356.563 81.8644C356.563 81.9491 356.595 82.0306 356.657 82.0906C356.715 82.1506 356.799 82.1844 356.883 82.1844C356.966 82.1844 357.05 82.1506 357.108 82.0906C357.17 82.0306 357.203 81.9491 357.203 81.8644C357.341 75.0844 356.123 68.4444 350.581 64.5844C350.639 62.848 350.341 61.1182 349.712 59.4993C349.083 57.8807 348.126 56.4069 346.912 55.1669C345.694 53.9273 344.237 52.9477 342.631 52.2869C341.024 51.6266 339.299 51.2989 337.563 51.3244C334.786 50.9189 331.956 51.4993 329.563 52.9644C328.823 53.3244 329.163 53.8644 329.483 53.7244ZM347.723 68.0644C345.463 71.0244 339.063 72.5644 336.103 72.0644C335.003 71.8844 334.103 71.4244 333.863 70.2844C333.143 66.2844 340.043 64.1044 344.163 63.9644C345.839 63.8357 347.512 64.2648 348.923 65.1844C348.77 66.2302 348.359 67.2207 347.723 68.0644ZM320.323 30.3444C322.463 27.7044 321.023 23.1044 315.043 23.0844C312.723 23.0844 311.603 25.4444 311.763 27.7044C312.123 33.0844 318.183 32.9244 320.323 30.3444ZM313.163 27.6044C313.163 26.2844 313.783 24.5644 315.163 24.5844C318.383 24.5844 319.863 26.0844 319.863 27.7444C319.783 31.5244 312.903 33.4844 313.163 27.6044ZM312.343 254.344C294.763 247.324 286.603 281.304 272.243 310.504C272.151 311.731 272.192 312.966 272.363 314.184C272.363 317.244 272.703 337.504 274.483 339.804C274.963 340.724 276.983 339.804 277.923 339.224C285.906 334.283 293.429 328.633 300.403 322.344C300.463 322.276 300.506 322.198 300.534 322.111C300.561 322.024 300.571 321.935 300.563 321.844C304.283 316.544 318.223 288.944 321.603 275.104C323.963 265.304 321.623 258.004 312.343 254.344ZM318.623 279.744C309.211 278.538 300.111 275.566 291.803 270.984C296.483 262.124 302.263 252.024 311.803 255.824C322.423 260.044 322.203 268.784 318.623 279.684V279.744ZM285.343 331.744C284.728 331.229 284.057 330.786 283.343 330.424C280.639 329.051 277.517 328.749 274.603 329.584C274.403 327.204 273.263 311.724 273.263 311.584C288.243 317.064 283.622 314.684 298.463 322.064C296.902 323.544 291.043 327.644 285.343 331.704V331.744ZM295.663 273.864C297.612 274.929 299.616 275.898 301.663 276.764C297.077 283.964 293.028 291.493 289.543 299.284C286.183 306.304 286.303 306.264 282.883 313.924C280.883 313.284 278.883 312.684 276.883 312.084C279.043 307.784 294.403 276.344 295.663 273.824V273.864ZM283.663 314.124C290.163 302.464 296.783 287.964 302.463 277.024C304.463 277.864 306.463 278.544 308.463 279.144C307.402 281.144 304.303 286.464 303.483 288.004C302.663 289.544 294.443 305.744 293.863 306.984C292.943 308.984 290.423 314.564 289.643 316.344C287.603 315.444 285.643 314.764 283.583 314.084L283.663 314.124ZM290.363 316.604C291.583 314.384 296.603 305.064 297.223 303.864C298.163 302.004 308.643 280.584 309.223 279.344C311.062 279.864 313.003 280.304 314.243 280.544C310.583 290.544 300.043 309.804 296.243 319.304C292.783 317.684 292.003 317.284 290.283 316.564L290.363 316.604ZM291.583 271.564L295.163 273.564C287.948 285.851 281.664 298.659 276.363 311.884L273.363 310.964C284.983 286.204 285.523 282.964 291.503 271.524L291.583 271.564ZM299.823 321.044L296.803 319.604C300.063 313.204 310.263 296.784 314.923 280.684C316.043 280.884 317.143 281.064 318.203 281.204C313.063 294.918 306.892 308.223 299.743 321.004L299.823 321.044ZM237.163 334.024C237.959 333.364 238.529 332.471 238.791 331.469C239.052 330.468 238.994 329.409 238.623 328.444C238.452 327.051 237.814 325.756 236.811 324.775C235.808 323.793 234.499 323.181 233.102 323.043C231.706 322.903 230.303 323.243 229.126 324.006C227.948 324.769 227.064 325.913 226.623 327.244C224.062 325.584 221.283 323.824 218.623 322.144C220.623 319.484 226.503 320.664 227.103 322.844C227.116 322.929 227.162 323.006 227.231 323.056C227.301 323.106 227.388 323.128 227.472 323.115C227.557 323.101 227.632 323.055 227.684 322.986C227.734 322.916 227.756 322.829 227.743 322.744C227.443 319.264 220.203 317.224 217.283 321.324C214.703 319.744 211.503 317.824 208.823 316.364C211.122 314.364 216.263 315.484 216.823 317.564C216.849 317.636 216.899 317.695 216.966 317.733C217.031 317.769 217.109 317.783 217.183 317.768C217.257 317.753 217.324 317.713 217.372 317.653C217.419 317.595 217.444 317.519 217.443 317.444C217.183 314.204 210.482 312.024 207.443 315.584C206.169 314.871 204.829 314.281 203.443 313.824C203.189 313.719 202.911 313.689 202.641 313.739C202.371 313.789 202.121 313.916 201.923 314.104C196.863 320.404 179.803 336.764 171.923 338.664C171.724 338.695 171.537 338.776 171.381 338.901C171.224 339.026 171.104 339.189 171.031 339.376C170.957 339.563 170.934 339.766 170.964 339.963C170.996 340.161 171.077 340.348 171.202 340.504C172.932 342.261 174.914 343.751 177.083 344.924C175.083 346.924 173.523 348.724 172.363 350.024C171.762 350.664 171.443 362.904 171.962 365.606C172.039 365.868 172.211 366.097 172.443 366.246C174.962 367.966 207.423 382.006 210.743 380.126C212.963 378.864 239.463 351.284 239.883 350.444C240.523 349.124 240.303 340.324 240.263 336.804C240.103 335.744 238.122 334.604 237.163 334.024ZM173.163 360.446V355.984C181.463 359.984 200.463 368.144 207.663 370.424C209.503 371.024 209.663 370.944 210.622 370.424C216.122 366.904 235.543 345.024 239.103 341.684V345.904C228.303 356.726 209.963 375.686 209.623 374.606C207.643 374.486 174.883 361.246 173.163 360.446ZM236.663 327.284C237.381 328.496 237.768 329.876 237.783 331.284C237.776 331.733 237.666 332.173 237.461 332.573C237.256 332.971 236.963 333.318 236.603 333.584C234.923 332.464 231.743 330.384 227.983 327.944C230.043 323.884 234.622 323.824 236.583 327.284H236.663ZM172.663 340.084C181.183 337.564 197.363 321.964 202.803 315.204C204.111 315.569 205.374 316.086 206.563 316.744C204.563 320.464 206.702 324.544 207.463 323.964C207.883 323.644 207.123 323.524 207.003 321.564C206.951 320.133 207.276 318.713 207.943 317.444C210.702 318.884 213.943 320.764 216.683 322.344C215.003 326.084 217.022 329.784 217.723 329.244C218.423 328.704 217.403 328.824 217.283 326.864C217.234 325.579 217.479 324.299 218.003 323.124C220.823 324.784 223.702 326.504 226.342 328.124C225.936 329.121 225.774 330.201 225.871 331.273C225.969 332.344 226.323 333.378 226.903 334.284C226.929 334.318 226.961 334.348 226.999 334.369C227.036 334.389 227.077 334.404 227.119 334.409C227.162 334.415 227.206 334.413 227.248 334.401C227.289 334.389 227.328 334.371 227.363 334.344C227.396 334.318 227.426 334.286 227.446 334.248C227.468 334.211 227.483 334.169 227.488 334.126C227.492 334.084 227.491 334.041 227.479 333.999C227.468 333.958 227.449 333.918 227.423 333.884C227.063 333.089 226.886 332.224 226.903 331.353C226.919 330.481 227.131 329.624 227.522 328.844C232.182 331.684 235.943 334.064 237.103 334.844C236.883 335.044 216.023 353.604 208.923 359.126C204.263 357.904 179.803 345.764 172.663 340.084ZM173.423 351.224C182.482 355.224 203.063 364.504 207.803 365.406C208.623 365.566 208.943 365.624 210.503 364.384C217.163 359.046 238.823 336.384 239.023 336.624C239.032 336.684 239.032 336.744 239.023 336.804V340.804C234.563 344.384 209.763 370.424 209.363 369.184C207.363 369.184 174.863 355.926 173.203 355.184C173.163 354.344 173.342 352.104 173.423 351.224ZM209.843 378.784C207.843 379.926 177.383 367.544 173.303 365.024C173.149 363.748 173.076 362.468 173.083 361.184C181.843 365.504 207.322 376.264 209.663 376.166C213.083 375.984 237.263 348.764 238.983 346.864C239.003 347.886 238.901 348.906 238.683 349.904C238.343 350.564 211.163 378.046 209.843 378.784ZM44.1418 266.044C44.2818 268.184 44.3818 270.044 44.3818 271.784C44.3818 272.049 44.4872 272.304 44.6745 272.491C44.8621 272.679 45.1163 272.784 45.3818 272.784C45.6469 272.784 45.9014 272.679 46.0887 272.491C46.2763 272.304 46.3818 272.049 46.3818 271.784C46.3818 269.924 46.2818 268.084 46.1418 265.904C46.1232 265.639 46 265.393 45.7992 265.218C45.5985 265.043 45.337 264.956 45.0716 264.975C44.8065 264.993 44.5596 265.116 44.3851 265.316C44.2105 265.518 44.1232 265.779 44.1418 266.044ZM348.883 225.944C348.752 225.953 348.624 225.986 348.504 226.043C348.388 226.101 348.283 226.181 348.199 226.281C348.112 226.379 348.046 226.495 348.006 226.618C347.966 226.743 347.952 226.875 347.963 227.004C348.083 228.844 348.203 230.824 348.203 232.744C348.203 233.009 348.308 233.264 348.497 233.451C348.683 233.639 348.937 233.744 349.203 233.744C349.468 233.744 349.723 233.639 349.908 233.451C350.097 233.264 350.203 233.009 350.203 232.744C350.203 230.744 350.083 228.744 349.941 226.864C349.933 226.735 349.901 226.606 349.843 226.489C349.784 226.371 349.704 226.266 349.606 226.181C349.508 226.095 349.392 226.029 349.268 225.989C349.144 225.949 349.013 225.933 348.883 225.944ZM38.9618 261.064C39.2269 261.064 39.4814 260.959 39.6687 260.771C39.8563 260.584 39.9618 260.329 39.9618 260.064C39.9618 259.799 39.8563 259.544 39.6687 259.358C39.4814 259.169 39.2269 259.064 38.9618 259.064C36.5418 259.064 34.5218 259.244 32.5218 259.204C32.2545 259.204 31.9981 259.309 31.8076 259.496C31.6167 259.683 31.5069 259.938 31.5018 260.204C31.5018 260.469 31.6072 260.724 31.7945 260.911C31.9821 261.099 32.2363 261.204 32.5018 261.204C34.5618 261.244 36.8218 261.164 38.9618 261.064ZM342.683 220.024C340.283 220.024 338.263 220.164 336.243 220.184C335.977 220.184 335.723 220.289 335.536 220.478C335.348 220.664 335.243 220.919 335.243 221.184C335.243 221.449 335.348 221.704 335.536 221.891C335.723 222.079 335.977 222.184 336.243 222.184C338.403 222.184 340.643 222.184 342.803 222.024C343.068 222.008 343.316 221.888 343.492 221.689C343.668 221.491 343.757 221.229 343.743 220.964C343.726 220.699 343.606 220.451 343.408 220.275C343.208 220.098 342.948 220.008 342.683 220.024ZM43.6018 248.704C43.7218 250.544 43.8418 252.524 43.8418 254.444C43.8469 254.708 43.9538 254.959 44.1403 255.146C44.3265 255.333 44.5781 255.439 44.8418 255.444C45.1069 255.444 45.3614 255.339 45.5487 255.151C45.7363 254.964 45.8418 254.709 45.8418 254.444C45.8418 252.444 45.7218 250.444 45.6018 248.564C45.5832 248.299 45.46 248.053 45.2592 247.878C45.0585 247.703 44.797 247.616 44.5316 247.635C44.2665 247.653 44.0196 247.776 43.8451 247.976C43.6705 248.178 43.5832 248.439 43.6018 248.704ZM349.661 215.404C349.661 213.404 349.541 211.404 349.403 209.524C349.384 209.259 349.261 209.013 349.061 208.838C348.861 208.663 348.599 208.576 348.333 208.595C348.068 208.613 347.821 208.736 347.646 208.936C347.472 209.138 347.384 209.399 347.403 209.664C347.523 211.504 347.643 213.484 347.643 215.404C347.643 215.669 347.748 215.924 347.937 216.111C348.123 216.299 348.377 216.404 348.643 216.404C348.908 216.404 349.166 216.299 349.355 216.113C349.548 215.926 349.657 215.671 349.661 215.404ZM58.3618 260.804C58.493 260.799 58.6221 260.768 58.7414 260.713C58.8607 260.658 58.9683 260.579 59.0574 260.483C59.1465 260.386 59.216 260.275 59.261 260.149C59.3065 260.026 59.3272 259.896 59.3218 259.764C59.3014 259.503 59.1832 259.258 58.9901 259.079C58.7974 258.903 58.5443 258.804 58.2818 258.804C55.8618 258.904 53.8418 258.984 51.8218 258.944C51.5563 258.944 51.3021 259.049 51.1145 259.238C50.9272 259.424 50.8218 259.679 50.8218 259.944C50.8218 260.209 50.9272 260.464 51.1145 260.651C51.3021 260.839 51.5563 260.944 51.8218 260.944C53.9618 260.984 56.2018 260.904 58.3618 260.804ZM362.083 219.764C360.083 219.864 357.861 219.924 355.643 219.924C355.512 219.919 355.381 219.941 355.253 219.988C355.13 220.035 355.021 220.106 354.923 220.196C354.828 220.288 354.752 220.398 354.701 220.519C354.65 220.641 354.621 220.773 354.621 220.904C354.621 221.171 354.726 221.428 354.915 221.619C355.101 221.809 355.355 221.919 355.621 221.924C357.901 221.924 359.741 221.924 362.163 221.764C362.293 221.759 362.421 221.728 362.541 221.673C362.661 221.618 362.77 221.539 362.857 221.443C362.948 221.346 363.017 221.235 363.061 221.109C363.108 220.986 363.126 220.856 363.123 220.724C363.097 220.464 362.977 220.223 362.784 220.046C362.595 219.868 362.344 219.768 362.083 219.764ZM12.4016 201.544C12.6616 201.744 69.0618 193.384 71.4818 191.904C71.616 191.806 71.7229 191.676 71.7927 191.526C71.8625 191.376 71.8934 191.209 71.8818 191.044C71.8818 188.464 68.5018 164.244 66.8818 158.204C66.6818 157.464 66.4818 156.724 66.0218 156.464C62.9618 154.624 9.04167 164.784 5.82167 166.864C5.73447 166.916 5.65898 166.986 5.60047 167.068C5.54181 167.151 5.50149 167.244 5.48163 167.344C4.80163 169.764 10.6616 200.344 12.4016 201.544ZM6.70167 167.824C10.5417 166.084 59.4818 157.124 65.0818 157.824C66.4418 161.324 70.0818 186.964 70.3218 190.724C67.5418 191.544 13.1617 200.884 12.9617 200.924C12.7617 200.964 12.7417 201.204 12.3217 199.944C10.5617 194.664 6.60167 172.344 6.70167 167.824Z"/>
</mask>
<path d="M184.263 60.5644C184.237 60.4331 184.188 60.308 184.114 60.1964C184.041 60.0844 183.946 59.988 183.836 59.9128C183.724 59.8378 183.601 59.7851 183.469 59.7578C183.339 59.7306 183.204 59.7295 183.072 59.7546C182.941 59.7793 182.816 59.8298 182.704 59.9033C182.592 59.9768 182.496 60.0709 182.421 60.1815C182.346 60.292 182.292 60.4164 182.266 60.5473C182.239 60.6782 182.237 60.8131 182.262 60.9444C182.663 62.9444 182.743 63.4044 183.622 63.4044C183.789 63.4048 183.952 63.364 184.099 63.2855C184.246 63.2066 184.371 63.0928 184.461 62.9535C184.552 62.8146 184.608 62.6549 184.623 62.4891C184.636 62.3233 184.609 62.1567 184.543 62.0044C184.483 61.6844 184.303 60.7444 184.263 60.5644ZM190.383 73.8044C191.683 74.1844 192.923 73.5644 192.883 73.2444C192.843 72.9244 192.883 73.0844 191.122 72.4244C189.943 71.9844 188.643 70.4244 188.183 70.6644C187.723 70.9044 188.423 72.1844 188.583 72.4244C189.011 73.0735 189.644 73.5597 190.383 73.8044ZM226.962 54.8044C224.342 65.7844 222.423 75.1044 222.103 76.9644C221.889 77.7735 221.849 78.6186 221.982 79.4444C223.042 81.7044 236.743 86.1644 238.483 85.2844C240.223 84.4044 244.743 74.2244 250.003 63.7244C253.224 63.8273 256.449 63.5928 259.623 63.0244C262.964 62.4113 266.216 61.3833 269.303 59.9644C276.063 56.8444 283.463 43.4844 284.463 36.7644C285.212 29.4684 283.668 22.1204 280.043 15.7444C263.263 -13.3556 214.043 2.30439 218.043 34.6244C219.184 42.0197 222.262 48.9818 226.962 54.8044ZM239.163 78.6244C239.163 78.9444 238.803 78.9044 237.163 78.6244C233.808 78.2029 230.559 77.1655 227.583 75.5644C226.183 74.8044 225.803 74.6444 225.943 74.3044C226.083 73.9644 226.383 74.0844 228.543 74.6844C228.743 74.6844 234.942 76.6844 236.722 77.3044C239.022 78.3444 239.163 78.3444 239.163 78.6244ZM238.803 46.0844C240.937 46.1949 243.066 45.7546 244.983 44.8044C246.763 45.6669 248.689 46.1895 250.663 46.3444C247.303 52.6044 240.483 65.3644 238.283 72.1644L229.802 69.8244C231.802 64.9044 236.223 53.3844 238.763 46.0844H238.803ZM238.102 44.4244C236.609 44.1989 235.231 43.4898 234.181 42.4062C233.129 41.3222 232.463 39.9237 232.283 38.4244C231.723 34.4244 234.283 29.9444 238.143 31.0044C240.562 31.6644 240.863 33.5844 240.443 36.0044C240.083 37.7644 238.783 42.1844 238.063 44.3444L238.102 44.4244ZM243.543 39.6244C243.756 38.3157 244.248 37.0677 244.983 35.9644C245.332 35.3629 245.844 34.8717 246.459 34.5466C247.074 34.2211 247.768 34.0749 248.463 34.1244C249.943 34.5644 250.583 37.3644 249.363 39.1244C248.189 40.6804 246.731 41.9975 245.063 43.0044C244.488 42.6677 244.031 42.1633 243.752 41.5589C243.474 40.9549 243.386 40.2797 243.503 39.6244H243.543ZM225.163 14.2044C234.123 3.42439 250.983 -0.855607 263.163 3.58439C269.779 5.8557 275.344 10.4546 278.823 16.5244C282.271 22.5916 283.746 29.5811 283.043 36.5244C282.123 42.7444 275.043 55.6644 268.823 58.5244C263.136 61.1186 256.931 62.3771 250.683 62.2044C250.003 62.2044 249.283 62.2044 249.023 62.6844C247.843 65.0844 245.683 69.7244 243.563 74.0844C242.097 73.3775 240.581 72.7888 239.023 72.3244C241.343 65.6844 248.663 52.6444 252.143 46.3244C255.157 46.5826 258.189 46.0593 260.943 44.8044C261.686 44.4128 262.303 43.8171 262.721 43.0869C263.137 42.3571 263.339 41.5233 263.299 40.6833C263.259 39.8437 262.979 39.0328 262.496 38.3455C262.011 37.6586 261.341 37.1237 260.563 36.8044C257.463 35.2844 254.683 38.9244 253.063 41.9844C252.623 42.7844 252.123 43.7244 251.563 44.7844C249.944 44.6782 248.349 44.3484 246.823 43.8044C248.343 42.7353 249.692 41.4408 250.823 39.9644C251.456 39.008 251.776 37.8789 251.741 36.7328C251.704 35.5862 251.314 34.4793 250.623 33.5644C250.079 32.9335 249.324 32.5222 248.499 32.408C247.674 32.2938 246.836 32.4848 246.143 32.9444C244.741 33.8051 243.619 35.0517 242.909 36.5346C242.201 38.0175 241.934 39.6738 242.143 41.3044C242.359 42.2248 242.856 43.056 243.563 43.6844C242.251 44.2277 240.843 44.5 239.423 44.4844C240.223 42.1244 241.523 37.8644 241.863 36.1244C242.076 35.1324 242.123 34.112 242.003 33.1044C241.848 32.2397 241.446 31.4378 240.846 30.7957C240.248 30.1531 239.474 29.6982 238.623 29.4844C233.763 28.1044 230.183 33.4844 230.883 38.5044C231.079 40.3033 231.852 41.9906 233.084 43.3164C234.316 44.6422 235.943 45.5357 237.723 45.8644C235.163 53.0644 231.163 64.6844 229.163 69.6444L224.763 68.5044C227.583 54.3444 227.923 54.6844 227.522 54.5044C222.977 48.7106 220.071 41.804 219.103 34.5044C218.631 30.8848 218.928 27.2066 219.971 23.7093C221.014 20.2116 222.784 16.9731 225.163 14.2044ZM252.923 44.9044C254.323 42.3644 257.123 36.8044 259.843 38.1644C260.386 38.3837 260.861 38.7473 261.212 39.216C261.566 39.6848 261.783 40.2408 261.843 40.8244C261.803 44.3444 256.323 44.9644 252.843 44.9044H252.923ZM329.483 53.7244C331.892 52.3069 334.739 51.8229 337.483 52.3644C340.496 52.4182 343.374 53.6229 345.528 55.7317C347.683 57.8404 348.944 60.6928 349.061 63.7044C347.25 62.6531 345.131 62.2575 343.063 62.5844C338.043 63.0244 331.483 65.7444 332.363 70.5844C333.083 74.5844 338.363 74.0444 342.363 72.9644C346.363 71.8844 349.541 69.9244 350.363 66.0644C355.221 69.6044 356.363 75.8044 356.563 81.8644C356.563 81.9491 356.595 82.0306 356.657 82.0906C356.715 82.1506 356.799 82.1844 356.883 82.1844C356.966 82.1844 357.05 82.1506 357.108 82.0906C357.17 82.0306 357.203 81.9491 357.203 81.8644C357.341 75.0844 356.123 68.4444 350.581 64.5844C350.639 62.848 350.341 61.1182 349.712 59.4993C349.083 57.8807 348.126 56.4069 346.912 55.1669C345.694 53.9273 344.237 52.9477 342.631 52.2869C341.024 51.6266 339.299 51.2989 337.563 51.3244C334.786 50.9189 331.956 51.4993 329.563 52.9644C328.823 53.3244 329.163 53.8644 329.483 53.7244ZM347.723 68.0644C345.463 71.0244 339.063 72.5644 336.103 72.0644C335.003 71.8844 334.103 71.4244 333.863 70.2844C333.143 66.2844 340.043 64.1044 344.163 63.9644C345.839 63.8357 347.512 64.2648 348.923 65.1844C348.77 66.2302 348.359 67.2207 347.723 68.0644ZM320.323 30.3444C322.463 27.7044 321.023 23.1044 315.043 23.0844C312.723 23.0844 311.603 25.4444 311.763 27.7044C312.123 33.0844 318.183 32.9244 320.323 30.3444ZM313.163 27.6044C313.163 26.2844 313.783 24.5644 315.163 24.5844C318.383 24.5844 319.863 26.0844 319.863 27.7444C319.783 31.5244 312.903 33.4844 313.163 27.6044ZM312.343 254.344C294.763 247.324 286.603 281.304 272.243 310.504C272.151 311.731 272.192 312.966 272.363 314.184C272.363 317.244 272.703 337.504 274.483 339.804C274.963 340.724 276.983 339.804 277.923 339.224C285.906 334.283 293.429 328.633 300.403 322.344C300.463 322.276 300.506 322.198 300.534 322.111C300.561 322.024 300.571 321.935 300.563 321.844C304.283 316.544 318.223 288.944 321.603 275.104C323.963 265.304 321.623 258.004 312.343 254.344ZM318.623 279.744C309.211 278.538 300.111 275.566 291.803 270.984C296.483 262.124 302.263 252.024 311.803 255.824C322.423 260.044 322.203 268.784 318.623 279.684V279.744ZM285.343 331.744C284.728 331.229 284.057 330.786 283.343 330.424C280.639 329.051 277.517 328.749 274.603 329.584C274.403 327.204 273.263 311.724 273.263 311.584C288.243 317.064 283.622 314.684 298.463 322.064C296.902 323.544 291.043 327.644 285.343 331.704V331.744ZM295.663 273.864C297.612 274.929 299.616 275.898 301.663 276.764C297.077 283.964 293.028 291.493 289.543 299.284C286.183 306.304 286.303 306.264 282.883 313.924C280.883 313.284 278.883 312.684 276.883 312.084C279.043 307.784 294.403 276.344 295.663 273.824V273.864ZM283.663 314.124C290.163 302.464 296.783 287.964 302.463 277.024C304.463 277.864 306.463 278.544 308.463 279.144C307.402 281.144 304.303 286.464 303.483 288.004C302.663 289.544 294.443 305.744 293.863 306.984C292.943 308.984 290.423 314.564 289.643 316.344C287.603 315.444 285.643 314.764 283.583 314.084L283.663 314.124ZM290.363 316.604C291.583 314.384 296.603 305.064 297.223 303.864C298.163 302.004 308.643 280.584 309.223 279.344C311.062 279.864 313.003 280.304 314.243 280.544C310.583 290.544 300.043 309.804 296.243 319.304C292.783 317.684 292.003 317.284 290.283 316.564L290.363 316.604ZM291.583 271.564L295.163 273.564C287.948 285.851 281.664 298.659 276.363 311.884L273.363 310.964C284.983 286.204 285.523 282.964 291.503 271.524L291.583 271.564ZM299.823 321.044L296.803 319.604C300.063 313.204 310.263 296.784 314.923 280.684C316.043 280.884 317.143 281.064 318.203 281.204C313.063 294.918 306.892 308.223 299.743 321.004L299.823 321.044ZM237.163 334.024C237.959 333.364 238.529 332.471 238.791 331.469C239.052 330.468 238.994 329.409 238.623 328.444C238.452 327.051 237.814 325.756 236.811 324.775C235.808 323.793 234.499 323.181 233.102 323.043C231.706 322.903 230.303 323.243 229.126 324.006C227.948 324.769 227.064 325.913 226.623 327.244C224.062 325.584 221.283 323.824 218.623 322.144C220.623 319.484 226.503 320.664 227.103 322.844C227.116 322.929 227.162 323.006 227.231 323.056C227.301 323.106 227.388 323.128 227.472 323.115C227.557 323.101 227.632 323.055 227.684 322.986C227.734 322.916 227.756 322.829 227.743 322.744C227.443 319.264 220.203 317.224 217.283 321.324C214.703 319.744 211.503 317.824 208.823 316.364C211.122 314.364 216.263 315.484 216.823 317.564C216.849 317.636 216.899 317.695 216.966 317.733C217.031 317.769 217.109 317.783 217.183 317.768C217.257 317.753 217.324 317.713 217.372 317.653C217.419 317.595 217.444 317.519 217.443 317.444C217.183 314.204 210.482 312.024 207.443 315.584C206.169 314.871 204.829 314.281 203.443 313.824C203.189 313.719 202.911 313.689 202.641 313.739C202.371 313.789 202.121 313.916 201.923 314.104C196.863 320.404 179.803 336.764 171.923 338.664C171.724 338.695 171.537 338.776 171.381 338.901C171.224 339.026 171.104 339.189 171.031 339.376C170.957 339.563 170.934 339.766 170.964 339.963C170.996 340.161 171.077 340.348 171.202 340.504C172.932 342.261 174.914 343.751 177.083 344.924C175.083 346.924 173.523 348.724 172.363 350.024C171.762 350.664 171.443 362.904 171.962 365.606C172.039 365.868 172.211 366.097 172.443 366.246C174.962 367.966 207.423 382.006 210.743 380.126C212.963 378.864 239.463 351.284 239.883 350.444C240.523 349.124 240.303 340.324 240.263 336.804C240.103 335.744 238.122 334.604 237.163 334.024ZM173.163 360.446V355.984C181.463 359.984 200.463 368.144 207.663 370.424C209.503 371.024 209.663 370.944 210.622 370.424C216.122 366.904 235.543 345.024 239.103 341.684V345.904C228.303 356.726 209.963 375.686 209.623 374.606C207.643 374.486 174.883 361.246 173.163 360.446ZM236.663 327.284C237.381 328.496 237.768 329.876 237.783 331.284C237.776 331.733 237.666 332.173 237.461 332.573C237.256 332.971 236.963 333.318 236.603 333.584C234.923 332.464 231.743 330.384 227.983 327.944C230.043 323.884 234.622 323.824 236.583 327.284H236.663ZM172.663 340.084C181.183 337.564 197.363 321.964 202.803 315.204C204.111 315.569 205.374 316.086 206.563 316.744C204.563 320.464 206.702 324.544 207.463 323.964C207.883 323.644 207.123 323.524 207.003 321.564C206.951 320.133 207.276 318.713 207.943 317.444C210.702 318.884 213.943 320.764 216.683 322.344C215.003 326.084 217.022 329.784 217.723 329.244C218.423 328.704 217.403 328.824 217.283 326.864C217.234 325.579 217.479 324.299 218.003 323.124C220.823 324.784 223.702 326.504 226.342 328.124C225.936 329.121 225.774 330.201 225.871 331.273C225.969 332.344 226.323 333.378 226.903 334.284C226.929 334.318 226.961 334.348 226.999 334.369C227.036 334.389 227.077 334.404 227.119 334.409C227.162 334.415 227.206 334.413 227.248 334.401C227.289 334.389 227.328 334.371 227.363 334.344C227.396 334.318 227.426 334.286 227.446 334.248C227.468 334.211 227.483 334.169 227.488 334.126C227.492 334.084 227.491 334.041 227.479 333.999C227.468 333.958 227.449 333.918 227.423 333.884C227.063 333.089 226.886 332.224 226.903 331.353C226.919 330.481 227.131 329.624 227.522 328.844C232.182 331.684 235.943 334.064 237.103 334.844C236.883 335.044 216.023 353.604 208.923 359.126C204.263 357.904 179.803 345.764 172.663 340.084ZM173.423 351.224C182.482 355.224 203.063 364.504 207.803 365.406C208.623 365.566 208.943 365.624 210.503 364.384C217.163 359.046 238.823 336.384 239.023 336.624C239.032 336.684 239.032 336.744 239.023 336.804V340.804C234.563 344.384 209.763 370.424 209.363 369.184C207.363 369.184 174.863 355.926 173.203 355.184C173.163 354.344 173.342 352.104 173.423 351.224ZM209.843 378.784C207.843 379.926 177.383 367.544 173.303 365.024C173.149 363.748 173.076 362.468 173.083 361.184C181.843 365.504 207.322 376.264 209.663 376.166C213.083 375.984 237.263 348.764 238.983 346.864C239.003 347.886 238.901 348.906 238.683 349.904C238.343 350.564 211.163 378.046 209.843 378.784ZM44.1418 266.044C44.2818 268.184 44.3818 270.044 44.3818 271.784C44.3818 272.049 44.4872 272.304 44.6745 272.491C44.8621 272.679 45.1163 272.784 45.3818 272.784C45.6469 272.784 45.9014 272.679 46.0887 272.491C46.2763 272.304 46.3818 272.049 46.3818 271.784C46.3818 269.924 46.2818 268.084 46.1418 265.904C46.1232 265.639 46 265.393 45.7992 265.218C45.5985 265.043 45.337 264.956 45.0716 264.975C44.8065 264.993 44.5596 265.116 44.3851 265.316C44.2105 265.518 44.1232 265.779 44.1418 266.044ZM348.883 225.944C348.752 225.953 348.624 225.986 348.504 226.043C348.388 226.101 348.283 226.181 348.199 226.281C348.112 226.379 348.046 226.495 348.006 226.618C347.966 226.743 347.952 226.875 347.963 227.004C348.083 228.844 348.203 230.824 348.203 232.744C348.203 233.009 348.308 233.264 348.497 233.451C348.683 233.639 348.937 233.744 349.203 233.744C349.468 233.744 349.723 233.639 349.908 233.451C350.097 233.264 350.203 233.009 350.203 232.744C350.203 230.744 350.083 228.744 349.941 226.864C349.933 226.735 349.901 226.606 349.843 226.489C349.784 226.371 349.704 226.266 349.606 226.181C349.508 226.095 349.392 226.029 349.268 225.989C349.144 225.949 349.013 225.933 348.883 225.944ZM38.9618 261.064C39.2269 261.064 39.4814 260.959 39.6687 260.771C39.8563 260.584 39.9618 260.329 39.9618 260.064C39.9618 259.799 39.8563 259.544 39.6687 259.358C39.4814 259.169 39.2269 259.064 38.9618 259.064C36.5418 259.064 34.5218 259.244 32.5218 259.204C32.2545 259.204 31.9981 259.309 31.8076 259.496C31.6167 259.683 31.5069 259.938 31.5018 260.204C31.5018 260.469 31.6072 260.724 31.7945 260.911C31.9821 261.099 32.2363 261.204 32.5018 261.204C34.5618 261.244 36.8218 261.164 38.9618 261.064ZM342.683 220.024C340.283 220.024 338.263 220.164 336.243 220.184C335.977 220.184 335.723 220.289 335.536 220.478C335.348 220.664 335.243 220.919 335.243 221.184C335.243 221.449 335.348 221.704 335.536 221.891C335.723 222.079 335.977 222.184 336.243 222.184C338.403 222.184 340.643 222.184 342.803 222.024C343.068 222.008 343.316 221.888 343.492 221.689C343.668 221.491 343.757 221.229 343.743 220.964C343.726 220.699 343.606 220.451 343.408 220.275C343.208 220.098 342.948 220.008 342.683 220.024ZM43.6018 248.704C43.7218 250.544 43.8418 252.524 43.8418 254.444C43.8469 254.708 43.9538 254.959 44.1403 255.146C44.3265 255.333 44.5781 255.439 44.8418 255.444C45.1069 255.444 45.3614 255.339 45.5487 255.151C45.7363 254.964 45.8418 254.709 45.8418 254.444C45.8418 252.444 45.7218 250.444 45.6018 248.564C45.5832 248.299 45.46 248.053 45.2592 247.878C45.0585 247.703 44.797 247.616 44.5316 247.635C44.2665 247.653 44.0196 247.776 43.8451 247.976C43.6705 248.178 43.5832 248.439 43.6018 248.704ZM349.661 215.404C349.661 213.404 349.541 211.404 349.403 209.524C349.384 209.259 349.261 209.013 349.061 208.838C348.861 208.663 348.599 208.576 348.333 208.595C348.068 208.613 347.821 208.736 347.646 208.936C347.472 209.138 347.384 209.399 347.403 209.664C347.523 211.504 347.643 213.484 347.643 215.404C347.643 215.669 347.748 215.924 347.937 216.111C348.123 216.299 348.377 216.404 348.643 216.404C348.908 216.404 349.166 216.299 349.355 216.113C349.548 215.926 349.657 215.671 349.661 215.404ZM58.3618 260.804C58.493 260.799 58.6221 260.768 58.7414 260.713C58.8607 260.658 58.9683 260.579 59.0574 260.483C59.1465 260.386 59.216 260.275 59.261 260.149C59.3065 260.026 59.3272 259.896 59.3218 259.764C59.3014 259.503 59.1832 259.258 58.9901 259.079C58.7974 258.903 58.5443 258.804 58.2818 258.804C55.8618 258.904 53.8418 258.984 51.8218 258.944C51.5563 258.944 51.3021 259.049 51.1145 259.238C50.9272 259.424 50.8218 259.679 50.8218 259.944C50.8218 260.209 50.9272 260.464 51.1145 260.651C51.3021 260.839 51.5563 260.944 51.8218 260.944C53.9618 260.984 56.2018 260.904 58.3618 260.804ZM362.083 219.764C360.083 219.864 357.861 219.924 355.643 219.924C355.512 219.919 355.381 219.941 355.253 219.988C355.13 220.035 355.021 220.106 354.923 220.196C354.828 220.288 354.752 220.398 354.701 220.519C354.65 220.641 354.621 220.773 354.621 220.904C354.621 221.171 354.726 221.428 354.915 221.619C355.101 221.809 355.355 221.919 355.621 221.924C357.901 221.924 359.741 221.924 362.163 221.764C362.293 221.759 362.421 221.728 362.541 221.673C362.661 221.618 362.77 221.539 362.857 221.443C362.948 221.346 363.017 221.235 363.061 221.109C363.108 220.986 363.126 220.856 363.123 220.724C363.097 220.464 362.977 220.223 362.784 220.046C362.595 219.868 362.344 219.768 362.083 219.764ZM12.4016 201.544C12.6616 201.744 69.0618 193.384 71.4818 191.904C71.616 191.806 71.7229 191.676 71.7927 191.526C71.8625 191.376 71.8934 191.209 71.8818 191.044C71.8818 188.464 68.5018 164.244 66.8818 158.204C66.6818 157.464 66.4818 156.724 66.0218 156.464C62.9618 154.624 9.04167 164.784 5.82167 166.864C5.73447 166.916 5.65898 166.986 5.60047 167.068C5.54181 167.151 5.50149 167.244 5.48163 167.344C4.80163 169.764 10.6616 200.344 12.4016 201.544ZM6.70167 167.824C10.5417 166.084 59.4818 157.124 65.0818 157.824C66.4418 161.324 70.0818 186.964 70.3218 190.724C67.5418 191.544 13.1617 200.884 12.9617 200.924C12.7617 200.964 12.7417 201.204 12.3217 199.944C10.5617 194.664 6.60167 172.344 6.70167 167.824Z" stroke="#D89216" stroke-width="2" mask="url(#path-3-inside-2_1426_419)"/>
<path d="M75.4416 193.447L75.2749 193.757L75.5097 194.018C76.3535 194.959 77.6221 196.79 79.103 199.114C80.5772 201.427 82.243 204.197 83.8777 206.992C87.1472 212.582 90.2839 218.256 91.5005 220.539C92.2671 221.99 92.7622 223.569 92.9623 225.199C92.9671 225.626 92.8764 225.923 92.7535 226.114C92.6337 226.301 92.4691 226.412 92.261 226.455C74.8826 230.03 14.4355 239.622 2.07479 241.146C1.77281 241.165 1.55297 241.083 1.37615 240.942C1.18556 240.791 1.01709 240.548 0.879354 240.212C0.601112 239.534 0.501797 238.611 0.501797 237.764V237.757L0.501587 237.75C0.473722 236.789 0.804515 234.789 1.39399 232.168C1.95637 229.667 2.74067 226.655 3.62436 223.557C3.03349 225.754 2.49817 227.907 2.06518 229.863C1.42348 232.762 0.998169 235.264 0.961931 236.833L0.948181 237.428L1.53679 237.339C11.5624 235.818 79.6668 224.437 91.1476 222.437L91.7704 222.328L91.5214 221.747C91.2986 221.228 90.3168 219.395 88.9497 216.936C87.574 214.462 85.7891 211.319 83.9411 208.155C82.0934 204.991 80.1805 201.802 78.5491 199.235C77.7336 197.952 76.986 196.821 76.3505 195.924C75.723 195.039 75.1819 194.35 74.7823 193.978L74.5807 193.791L74.3145 193.861C71.7221 194.544 56.142 197.278 40.9517 199.902C37.3367 200.526 33.7472 201.144 30.3648 201.725C31.468 201.529 32.5899 201.33 33.725 201.129C36.6979 200.602 39.761 200.059 42.8147 199.514C49.9499 198.24 57.0271 196.955 62.7638 195.836C68.4824 194.72 72.914 193.761 74.7247 193.137L75.0866 193.012L75.0606 192.63C74.9292 190.699 73.8261 181.779 72.5594 172.812C71.9253 168.324 71.249 163.814 70.6308 160.15C70.0165 156.51 69.4508 153.646 69.0317 152.494L68.9301 152.214L68.6363 152.17C67.8322 152.049 66.2567 152.131 64.1785 152.344C62.0751 152.56 59.392 152.919 56.3297 153.381C50.2041 154.305 42.5426 155.642 34.9291 157.078C27.3154 158.514 19.745 160.049 13.801 161.368C10.8294 162.027 8.26082 162.633 6.29512 163.147C4.35477 163.653 2.94175 164.084 2.33176 164.4L2.09553 164.523L2.06508 164.787C2.00321 165.324 2.05122 166.332 2.16826 167.635C2.28702 168.956 2.48221 170.631 2.73296 172.534C3.13101 175.554 3.67035 179.159 4.26995 182.855C2.95951 175.255 1.9304 168.183 1.80088 166.054L1.80082 166.053C1.79863 166.018 1.79644 165.983 1.79428 165.949C1.76567 165.496 1.74155 165.114 1.772 164.797C1.80522 164.452 1.89194 164.327 1.9664 164.275L1.96675 164.275C2.13911 164.156 2.52047 163.98 3.14182 163.757C3.7472 163.54 4.53666 163.293 5.48877 163.021C7.39206 162.477 9.92228 161.839 12.8821 161.148C18.8005 159.764 26.417 158.17 34.1291 156.68C41.8412 155.191 49.6437 153.809 55.9343 152.85C59.0801 152.371 61.8434 151.998 64.0262 151.77C66.2288 151.541 67.7888 151.466 68.5611 151.561L68.5991 151.565L68.6375 151.564C68.7927 151.559 68.9462 151.596 69.0826 151.67L69.0829 151.67C69.2177 151.743 69.3308 151.849 69.4114 151.979C69.4808 152.102 69.5789 152.354 69.6987 152.76C69.8167 153.159 69.9461 153.673 70.0847 154.288C70.3618 155.518 70.6712 157.131 70.9983 159.006C71.6522 162.754 72.3732 167.524 73.0441 172.309C73.715 177.093 74.3351 181.888 74.7875 185.685C75.2423 189.503 75.5218 192.267 75.5218 193.024V193.043L75.5233 193.062C75.5334 193.195 75.505 193.33 75.4416 193.447Z" stroke="white"/>
<mask id="path-5-inside-3_1426_419" fill="white">
<path d="M17.8228 226.464C19.5628 226.204 56.4828 221.764 69.8228 218.144C69.905 218.123 69.9755 218.069 70.0188 217.998C70.0617 217.924 70.0741 217.836 70.053 217.755C70.0315 217.673 69.9788 217.601 69.9053 217.559C69.8323 217.516 69.745 217.503 69.6628 217.524C67.0428 218.064 35.0828 222.324 17.7828 225.844C17.735 225.836 17.6858 225.838 17.6392 225.851C17.5925 225.864 17.5493 225.888 17.5132 225.921C17.4768 225.953 17.4485 225.993 17.43 226.038C17.4116 226.083 17.4036 226.131 17.4068 226.179C17.41 226.228 17.424 226.276 17.4481 226.318C17.4721 226.359 17.5055 226.396 17.5455 226.423C17.5856 226.451 17.6315 226.469 17.6795 226.476C17.7275 226.483 17.7765 226.479 17.8228 226.464ZM44.8028 87.3044C44.0555 88.9916 43.4275 90.7295 42.9228 92.5044C42.893 92.7891 42.9715 93.0749 43.1428 93.3044C45.1628 96.3444 65.8628 119.684 71.2628 122.964C72.0028 123.424 72.8828 123.744 73.4228 123.084C77.3453 118.203 82.465 114.421 88.2828 112.104C93.0181 110.429 97.9828 109.491 103.003 109.324C107.003 108.964 107.703 108.564 109.243 105.944C111.06 102.496 113.47 99.3957 116.363 96.7844C120.052 93.5589 124.146 90.8291 128.543 88.6644C128.741 88.5524 128.896 88.3771 128.982 88.1669C129.069 87.9567 129.084 87.7236 129.023 87.5044C128.347 85.784 127.453 84.1575 126.363 82.6644C127.083 82.4244 127.883 82.2044 127.883 81.4844C127.883 79.4844 110.443 54.2444 105.603 49.4844C105.103 48.9844 104.383 48.3244 103.723 48.3644C93.7228 48.9244 83.9828 58.3644 78.3428 66.6044C71.8828 66.3644 67.7028 65.7844 60.3428 68.8844C55.1468 71.0898 50.4624 74.3447 46.5828 78.4444C45.9828 79.0644 41.9028 83.3844 41.8428 83.7244C41.7828 84.0644 41.9028 84.0644 44.8028 87.3044ZM124.803 86.7444C116.463 88.1644 111.143 95.1044 107.223 102.644C105.483 106.004 105.643 106.164 103.803 106.124C100.585 105.942 97.3577 106.063 94.1628 106.484C91.8192 106.835 89.5152 107.411 87.2828 108.204C82.2028 110.004 76.3828 115.764 73.2828 120.044C73.217 120.132 73.133 120.205 73.037 120.259C72.941 120.312 72.8348 120.345 72.725 120.354C72.6155 120.364 72.5053 120.35 72.4014 120.314C72.2977 120.277 72.2028 120.22 72.1228 120.144C65.6228 113.444 54.1228 101.684 48.3428 94.9244C48.0628 94.6244 48.5428 94.1844 48.8228 94.5044C52.5628 98.5044 62.2228 108.084 72.5828 118.504C76.0828 114.044 81.4828 108.644 86.8228 106.764C89.7348 105.726 92.765 105.054 95.8428 104.764C98.7253 104.545 101.62 104.545 104.503 104.764C105.683 103.404 111.523 87.9644 124.763 86.2444C124.801 86.2727 124.833 86.3095 124.856 86.352C124.879 86.3946 124.891 86.4415 124.893 86.4895C124.895 86.5375 124.886 86.5855 124.867 86.6295C124.848 86.6738 124.819 86.7127 124.783 86.7444H124.803ZM103.703 49.9844C107.703 52.7844 123.983 76.8844 126.103 81.1044C122.424 82.2698 118.873 83.8044 115.503 85.6844C112.312 87.2844 109.517 89.5757 107.324 92.392C105.13 95.2084 103.593 98.4786 102.823 101.964C95.6428 90.2844 85.6228 77.4244 78.9628 67.9644C79.3628 67.7044 90.6028 50.7644 103.703 49.9844ZM60.7828 69.9844C68.0828 67.0444 72.1228 67.7244 78.1628 67.9844C84.1628 78.2244 94.9428 92.6644 102.043 102.124C95.4897 100.574 88.5941 101.522 82.7028 104.784C79.1628 106.784 74.8428 111.584 72.1828 114.564C68.3428 111.484 46.1828 87.8844 42.6228 83.8844C48.1028 77.6844 53.1628 73.0244 60.7828 69.9044V69.9844ZM24.1828 120.844C23.6886 120.497 23.1043 120.301 22.5006 120.28C21.897 120.259 21.3003 120.413 20.7828 120.724C20.4061 120.892 20.0657 121.133 19.7821 121.433C19.498 121.732 19.276 122.085 19.1283 122.47C18.9807 122.855 18.9103 123.266 18.9215 123.679C18.9325 124.091 19.0247 124.497 19.1928 124.875C19.3608 125.251 19.6017 125.591 19.901 125.875C20.2006 126.159 20.553 126.381 20.9384 126.529C21.3239 126.677 21.7344 126.747 22.1472 126.736C22.5595 126.725 22.9661 126.632 23.3428 126.464C23.945 126.333 24.493 126.021 24.9137 125.571C25.3348 125.121 25.609 124.553 25.6999 123.944C25.7912 123.335 25.6948 122.712 25.4239 122.158C25.153 121.604 24.7203 121.147 24.1828 120.844ZM22.8628 124.844C21.4628 125.284 20.6228 124.844 20.2828 124.164C19.6428 122.744 20.4428 120.564 22.5228 121.204C23.9828 121.744 25.1628 124.204 22.8628 124.944V124.844ZM125.883 29.3244C126.463 30.5044 129.163 30.0644 130.343 29.6844C130.963 29.4844 131.363 29.2644 131.423 28.6644C131.603 27.1644 131.803 14.1644 131.123 12.9044C131.053 12.7722 130.945 12.6639 130.813 12.5927C130.681 12.5216 130.532 12.4907 130.383 12.5044C128.249 12.4984 126.126 12.8086 124.083 13.4244C123.263 13.9244 125.163 28.0044 125.883 29.3244ZM124.503 13.9044C126.35 13.6401 128.219 13.5531 130.083 13.6444C130.203 15.1244 129.883 27.9444 129.863 28.1444C129.018 28.4473 128.116 28.5567 127.223 28.4644C127.083 28.0044 126.843 26.7644 126.543 25.2044C125.661 21.4769 124.981 17.7047 124.503 13.9044ZM22.2428 103.964C22.4348 104.063 22.6472 104.114 22.8628 104.114C23.0784 104.114 23.2908 104.063 23.4828 103.964C24.2555 103.488 24.8683 102.791 25.2428 101.964C25.2937 101.832 25.3093 101.689 25.2883 101.549C25.2672 101.408 25.2104 101.276 25.1228 101.164C24.1628 100.024 13.6828 87.8844 12.4028 88.6444C10.8312 89.6618 9.34014 90.7986 7.9428 92.0444C7.88647 92.0949 7.84131 92.1564 7.81033 92.2251C7.77931 92.2942 7.76316 92.3687 7.7628 92.4444C7.7228 93.4844 19.3628 102.804 22.2428 103.964ZM12.6428 89.1644C14.1028 90.2244 19.0228 96.3044 23.5828 101.684C23.3868 101.993 23.1439 102.27 22.8628 102.504C18.0685 99.436 13.491 96.0411 9.1628 92.3444C10.2478 91.2051 11.4107 90.1426 12.6428 89.1644ZM44.0628 45.0444C44.5028 37.2844 49.0228 33.6844 53.7428 32.7644C52.4028 37.6844 52.6228 44.0844 57.4828 44.9044C59.8028 45.2844 60.9428 44.0844 62.6228 42.6844C69.8028 36.6844 64.0028 30.6844 55.9028 31.1044C58.9228 22.8244 65.9028 16.0844 75.1628 15.8644C75.2475 15.8644 75.329 15.8307 75.389 15.7707C75.449 15.7106 75.4828 15.6293 75.4828 15.5444C75.4828 15.4596 75.449 15.3781 75.389 15.3181C75.329 15.2581 75.2475 15.2244 75.1628 15.2244C65.1628 15.0244 57.3028 22.2244 54.2028 31.2244C48.8628 32.1444 43.5628 36.1444 43.4228 44.9244C43.4148 44.9666 43.4152 45.0095 43.4243 45.0513C43.433 45.0931 43.4501 45.1327 43.4741 45.1684C43.4984 45.2037 43.529 45.2338 43.565 45.2571C43.6006 45.2804 43.641 45.2967 43.6828 45.3044C43.725 45.3124 43.7679 45.3116 43.8097 45.3029C43.8515 45.2942 43.8912 45.2771 43.9268 45.2531C43.9621 45.2287 43.9923 45.1982 44.0155 45.1622C44.0388 45.1266 44.0548 45.0866 44.0628 45.0444ZM55.4428 32.5244C58.4228 32.3244 62.8628 33.2444 64.0828 35.9444C64.7828 37.4844 64.0828 39.3844 61.6028 41.4644C60.9293 42.1389 60.1613 42.7117 59.3228 43.1644C56.3228 44.4444 53.0028 40.7444 55.4428 32.5244ZM61.1628 315.384C59.2304 314.866 57.2144 314.741 55.2326 315.015C53.2508 315.288 51.3439 315.955 49.6239 316.976C47.9039 317.996 46.4053 319.351 45.217 320.961C44.0283 322.569 43.1733 324.399 42.7028 326.344C41.8144 330.384 42.5668 334.611 44.7948 338.095C47.0228 341.579 50.5435 344.036 54.5828 344.924C58.6221 345.813 62.849 345.061 66.333 342.833C69.8177 340.604 72.2744 337.084 73.1628 333.044C73.5424 331.096 73.5326 329.093 73.1337 327.148C72.7352 325.203 71.9555 323.358 70.8403 321.716C69.7246 320.075 68.2952 318.669 66.6344 317.583C64.9733 316.496 63.1137 315.749 61.1628 315.384ZM67.3428 331.684C66.5402 334.884 64.6192 337.693 61.9268 339.599C59.2344 341.508 55.9483 342.389 52.6628 342.084C49.6468 340.906 47.1428 338.701 45.5919 335.859C44.041 333.016 43.5417 329.718 44.1828 326.544C44.9312 323.266 46.8344 320.366 49.5446 318.376C52.2548 316.386 55.5908 315.438 58.9428 315.704C61.9886 316.963 64.493 319.255 66.0148 322.178C67.5366 325.101 67.9788 328.468 67.2628 331.684H67.3428Z"/>
</mask>
<path d="M17.8228 226.464C19.5628 226.204 56.4828 221.764 69.8228 218.144C69.905 218.123 69.9755 218.069 70.0188 217.998C70.0617 217.924 70.0741 217.836 70.053 217.755C70.0315 217.673 69.9788 217.601 69.9053 217.559C69.8323 217.516 69.745 217.503 69.6628 217.524C67.0428 218.064 35.0828 222.324 17.7828 225.844C17.735 225.836 17.6858 225.838 17.6392 225.851C17.5925 225.864 17.5493 225.888 17.5132 225.921C17.4768 225.953 17.4485 225.993 17.43 226.038C17.4116 226.083 17.4036 226.131 17.4068 226.179C17.41 226.228 17.424 226.276 17.4481 226.318C17.4721 226.359 17.5055 226.396 17.5455 226.423C17.5856 226.451 17.6315 226.469 17.6795 226.476C17.7275 226.483 17.7765 226.479 17.8228 226.464ZM44.8028 87.3044C44.0555 88.9916 43.4275 90.7295 42.9228 92.5044C42.893 92.7891 42.9715 93.0749 43.1428 93.3044C45.1628 96.3444 65.8628 119.684 71.2628 122.964C72.0028 123.424 72.8828 123.744 73.4228 123.084C77.3453 118.203 82.465 114.421 88.2828 112.104C93.0181 110.429 97.9828 109.491 103.003 109.324C107.003 108.964 107.703 108.564 109.243 105.944C111.06 102.496 113.47 99.3957 116.363 96.7844C120.052 93.5589 124.146 90.8291 128.543 88.6644C128.741 88.5524 128.896 88.3771 128.982 88.1669C129.069 87.9567 129.084 87.7236 129.023 87.5044C128.347 85.784 127.453 84.1575 126.363 82.6644C127.083 82.4244 127.883 82.2044 127.883 81.4844C127.883 79.4844 110.443 54.2444 105.603 49.4844C105.103 48.9844 104.383 48.3244 103.723 48.3644C93.7228 48.9244 83.9828 58.3644 78.3428 66.6044C71.8828 66.3644 67.7028 65.7844 60.3428 68.8844C55.1468 71.0898 50.4624 74.3447 46.5828 78.4444C45.9828 79.0644 41.9028 83.3844 41.8428 83.7244C41.7828 84.0644 41.9028 84.0644 44.8028 87.3044ZM124.803 86.7444C116.463 88.1644 111.143 95.1044 107.223 102.644C105.483 106.004 105.643 106.164 103.803 106.124C100.585 105.942 97.3577 106.063 94.1628 106.484C91.8192 106.835 89.5152 107.411 87.2828 108.204C82.2028 110.004 76.3828 115.764 73.2828 120.044C73.217 120.132 73.133 120.205 73.037 120.259C72.941 120.312 72.8348 120.345 72.725 120.354C72.6155 120.364 72.5053 120.35 72.4014 120.314C72.2977 120.277 72.2028 120.22 72.1228 120.144C65.6228 113.444 54.1228 101.684 48.3428 94.9244C48.0628 94.6244 48.5428 94.1844 48.8228 94.5044C52.5628 98.5044 62.2228 108.084 72.5828 118.504C76.0828 114.044 81.4828 108.644 86.8228 106.764C89.7348 105.726 92.765 105.054 95.8428 104.764C98.7253 104.545 101.62 104.545 104.503 104.764C105.683 103.404 111.523 87.9644 124.763 86.2444C124.801 86.2727 124.833 86.3095 124.856 86.352C124.879 86.3946 124.891 86.4415 124.893 86.4895C124.895 86.5375 124.886 86.5855 124.867 86.6295C124.848 86.6738 124.819 86.7127 124.783 86.7444H124.803ZM103.703 49.9844C107.703 52.7844 123.983 76.8844 126.103 81.1044C122.424 82.2698 118.873 83.8044 115.503 85.6844C112.312 87.2844 109.517 89.5757 107.324 92.392C105.13 95.2084 103.593 98.4786 102.823 101.964C95.6428 90.2844 85.6228 77.4244 78.9628 67.9644C79.3628 67.7044 90.6028 50.7644 103.703 49.9844ZM60.7828 69.9844C68.0828 67.0444 72.1228 67.7244 78.1628 67.9844C84.1628 78.2244 94.9428 92.6644 102.043 102.124C95.4897 100.574 88.5941 101.522 82.7028 104.784C79.1628 106.784 74.8428 111.584 72.1828 114.564C68.3428 111.484 46.1828 87.8844 42.6228 83.8844C48.1028 77.6844 53.1628 73.0244 60.7828 69.9044V69.9844ZM24.1828 120.844C23.6886 120.497 23.1043 120.301 22.5006 120.28C21.897 120.259 21.3003 120.413 20.7828 120.724C20.4061 120.892 20.0657 121.133 19.7821 121.433C19.498 121.732 19.276 122.085 19.1283 122.47C18.9807 122.855 18.9103 123.266 18.9215 123.679C18.9325 124.091 19.0247 124.497 19.1928 124.875C19.3608 125.251 19.6017 125.591 19.901 125.875C20.2006 126.159 20.553 126.381 20.9384 126.529C21.3239 126.677 21.7344 126.747 22.1472 126.736C22.5595 126.725 22.9661 126.632 23.3428 126.464C23.945 126.333 24.493 126.021 24.9137 125.571C25.3348 125.121 25.609 124.553 25.6999 123.944C25.7912 123.335 25.6948 122.712 25.4239 122.158C25.153 121.604 24.7203 121.147 24.1828 120.844ZM22.8628 124.844C21.4628 125.284 20.6228 124.844 20.2828 124.164C19.6428 122.744 20.4428 120.564 22.5228 121.204C23.9828 121.744 25.1628 124.204 22.8628 124.944V124.844ZM125.883 29.3244C126.463 30.5044 129.163 30.0644 130.343 29.6844C130.963 29.4844 131.363 29.2644 131.423 28.6644C131.603 27.1644 131.803 14.1644 131.123 12.9044C131.053 12.7722 130.945 12.6639 130.813 12.5927C130.681 12.5216 130.532 12.4907 130.383 12.5044C128.249 12.4984 126.126 12.8086 124.083 13.4244C123.263 13.9244 125.163 28.0044 125.883 29.3244ZM124.503 13.9044C126.35 13.6401 128.219 13.5531 130.083 13.6444C130.203 15.1244 129.883 27.9444 129.863 28.1444C129.018 28.4473 128.116 28.5567 127.223 28.4644C127.083 28.0044 126.843 26.7644 126.543 25.2044C125.661 21.4769 124.981 17.7047 124.503 13.9044ZM22.2428 103.964C22.4348 104.063 22.6472 104.114 22.8628 104.114C23.0784 104.114 23.2908 104.063 23.4828 103.964C24.2555 103.488 24.8683 102.791 25.2428 101.964C25.2937 101.832 25.3093 101.689 25.2883 101.549C25.2672 101.408 25.2104 101.276 25.1228 101.164C24.1628 100.024 13.6828 87.8844 12.4028 88.6444C10.8312 89.6618 9.34014 90.7986 7.9428 92.0444C7.88647 92.0949 7.84131 92.1564 7.81033 92.2251C7.77931 92.2942 7.76316 92.3687 7.7628 92.4444C7.7228 93.4844 19.3628 102.804 22.2428 103.964ZM12.6428 89.1644C14.1028 90.2244 19.0228 96.3044 23.5828 101.684C23.3868 101.993 23.1439 102.27 22.8628 102.504C18.0685 99.436 13.491 96.0411 9.1628 92.3444C10.2478 91.2051 11.4107 90.1426 12.6428 89.1644ZM44.0628 45.0444C44.5028 37.2844 49.0228 33.6844 53.7428 32.7644C52.4028 37.6844 52.6228 44.0844 57.4828 44.9044C59.8028 45.2844 60.9428 44.0844 62.6228 42.6844C69.8028 36.6844 64.0028 30.6844 55.9028 31.1044C58.9228 22.8244 65.9028 16.0844 75.1628 15.8644C75.2475 15.8644 75.329 15.8307 75.389 15.7707C75.449 15.7106 75.4828 15.6293 75.4828 15.5444C75.4828 15.4596 75.449 15.3781 75.389 15.3181C75.329 15.2581 75.2475 15.2244 75.1628 15.2244C65.1628 15.0244 57.3028 22.2244 54.2028 31.2244C48.8628 32.1444 43.5628 36.1444 43.4228 44.9244C43.4148 44.9666 43.4152 45.0095 43.4243 45.0513C43.433 45.0931 43.4501 45.1327 43.4741 45.1684C43.4984 45.2037 43.529 45.2338 43.565 45.2571C43.6006 45.2804 43.641 45.2967 43.6828 45.3044C43.725 45.3124 43.7679 45.3116 43.8097 45.3029C43.8515 45.2942 43.8912 45.2771 43.9268 45.2531C43.9621 45.2287 43.9923 45.1982 44.0155 45.1622C44.0388 45.1266 44.0548 45.0866 44.0628 45.0444ZM55.4428 32.5244C58.4228 32.3244 62.8628 33.2444 64.0828 35.9444C64.7828 37.4844 64.0828 39.3844 61.6028 41.4644C60.9293 42.1389 60.1613 42.7117 59.3228 43.1644C56.3228 44.4444 53.0028 40.7444 55.4428 32.5244ZM61.1628 315.384C59.2304 314.866 57.2144 314.741 55.2326 315.015C53.2508 315.288 51.3439 315.955 49.6239 316.976C47.9039 317.996 46.4053 319.351 45.217 320.961C44.0283 322.569 43.1733 324.399 42.7028 326.344C41.8144 330.384 42.5668 334.611 44.7948 338.095C47.0228 341.579 50.5435 344.036 54.5828 344.924C58.6221 345.813 62.849 345.061 66.333 342.833C69.8177 340.604 72.2744 337.084 73.1628 333.044C73.5424 331.096 73.5326 329.093 73.1337 327.148C72.7352 325.203 71.9555 323.358 70.8403 321.716C69.7246 320.075 68.2952 318.669 66.6344 317.583C64.9733 316.496 63.1137 315.749 61.1628 315.384ZM67.3428 331.684C66.5402 334.884 64.6192 337.693 61.9268 339.599C59.2344 341.508 55.9483 342.389 52.6628 342.084C49.6468 340.906 47.1428 338.701 45.5919 335.859C44.041 333.016 43.5417 329.718 44.1828 326.544C44.9312 323.266 46.8344 320.366 49.5446 318.376C52.2548 316.386 55.5908 315.438 58.9428 315.704C61.9886 316.963 64.493 319.255 66.0148 322.178C67.5366 325.101 67.9788 328.468 67.2628 331.684H67.3428Z" stroke="#69CF60" stroke-width="2" mask="url(#path-5-inside-3_1426_419)"/>
<mask id="path-6-inside-4_1426_419" fill="white">
<path d="M87.8026 321.084C86.0615 320.484 84.1954 320.339 82.3826 320.664C81.631 318.941 80.7066 317.299 79.6226 315.764C80.9226 314.584 84.4826 311.304 83.6226 309.764C80.5619 306.103 76.9281 302.963 72.8623 300.464C71.1648 299.513 69.2957 298.908 67.3626 298.684C66.0826 298.864 63.0423 303.844 62.3623 304.964C61.9223 304.964 60.3626 304.464 60.2426 304.404C60.2426 302.964 59.8226 297.764 58.5226 297.164C57.0688 296.629 55.5594 296.259 54.0226 296.064C52.6026 295.844 39.8226 298.184 38.8826 299.904C38.2626 301.064 39.7026 305.444 40.1226 306.664C39.0441 307.258 38.0081 307.926 37.0226 308.664C35.0226 310.084 35.5626 310.024 35.2026 309.864C34.7674 309.656 34.3012 309.521 33.8226 309.464C32.2248 308.528 30.3517 308.175 28.5226 308.464C26.6826 309.064 22.3426 318.944 21.6426 321.484C21.4135 322.124 21.3517 322.813 21.4626 323.484C21.9426 324.804 25.1426 325.864 26.4826 326.284C26.1125 328.858 26.1125 331.471 26.4826 334.044C24.7226 334.524 21.0623 335.604 21.2623 337.404C21.4623 339.204 26.1423 351.084 28.0823 352.024C29.1452 352.619 30.3205 352.984 31.5328 353.098C32.7452 353.211 33.9677 353.071 35.1226 352.684C35.7728 352.359 36.4012 351.993 37.0026 351.584C37.8026 352.184 38.6426 352.724 39.5026 353.244C38.8826 354.784 37.5026 358.224 37.9426 359.784C38.1626 360.606 38.8226 360.864 39.7426 361.206C42.2826 362.126 55.9626 365.406 58.0426 365.046C58.8226 364.926 59.2426 364.104 59.4826 363.326C59.927 361.548 60.1885 359.733 60.2623 357.904C61.2895 357.803 62.311 357.65 63.3226 357.446C63.9405 358.53 64.7306 359.512 65.6626 360.344C66.6826 361.064 67.5426 360.704 68.7026 359.966C69.2626 360.686 70.1026 361.686 71.0026 361.784C73.2626 362.046 82.6026 353.244 83.5626 351.444C84.3626 349.944 81.4426 347.264 80.1426 346.084C81.5488 343.968 82.6528 341.666 83.4226 339.244C84.8652 339.461 86.3252 339.543 87.7826 339.484C88.4426 339.484 89.2026 339.244 89.4826 338.624C90.7026 335.844 90.3426 325.304 89.4826 322.624C89.3626 321.844 88.4626 321.324 87.8026 321.084ZM88.2826 322.924C88.9626 325.524 89.1823 335.344 88.1823 337.884C86.4532 338.055 84.7084 337.975 83.0023 337.644C82.8204 337.613 82.6332 337.651 82.4779 337.751C82.3223 337.851 82.2099 338.006 82.1626 338.184C81.3663 340.888 80.1295 343.443 78.5023 345.744C78.3866 345.898 78.3343 346.088 78.3568 346.279C78.379 346.469 78.4746 346.643 78.6226 346.764C80.0259 347.876 81.2179 349.231 82.1426 350.764C81.1426 352.404 73.3226 359.566 71.1626 360.166C70.8426 360.166 69.9626 358.966 69.7426 358.646C69.0037 357.533 68.3361 356.381 67.7426 355.184C67.6561 355.01 67.5074 354.875 67.3263 354.806C67.1448 354.733 66.9437 354.733 66.7623 354.806C60.9623 356.984 58.7626 355.704 58.7626 357.144C58.7652 359.301 58.4139 361.443 57.7223 363.486C53.0223 362.973 48.3943 361.941 43.9226 360.406C44.1386 358.268 44.7343 356.188 45.6826 354.264C46.2826 352.924 43.8826 353.304 39.4026 348.744C39.2583 348.611 39.0692 348.536 38.8728 348.536C38.6761 348.536 38.487 348.611 38.3426 348.744C36.3426 350.384 33.7426 351.984 33.2226 351.724C32.2026 351.224 27.5026 340.564 27.2226 338.404C28.6452 337.413 30.2601 336.731 31.9626 336.404C32.1441 336.353 32.3008 336.238 32.4041 336.079C32.5066 335.921 32.5492 335.731 32.5226 335.544C32.0325 332.713 32.0325 329.816 32.5226 326.984C32.5532 326.809 32.5165 326.631 32.4201 326.483C32.3234 326.335 32.1743 326.228 32.0026 326.184C30.4946 325.789 29.0434 325.204 27.6826 324.444C27.2426 324.124 27.2826 324.144 27.3226 323.804C28.6172 319.136 30.6932 314.719 33.4626 310.744C34.5426 310.444 37.4626 312.584 38.4626 313.344C38.567 313.446 38.707 313.503 38.8525 313.503C38.9983 313.503 39.1383 313.446 39.2426 313.344C40.1615 312.391 41.151 311.509 42.2026 310.704C45.2426 308.404 46.0626 308.704 45.8026 307.904C44.883 305.898 44.3666 303.729 44.2826 301.524C44.5925 301.266 44.9445 301.064 45.3226 300.924C47.1899 300.186 49.1081 299.584 51.0626 299.124C53.4317 298.464 55.8666 298.068 58.3226 297.944C58.7426 298.124 59.1226 299.944 59.2226 300.504C59.9626 304.504 59.4626 305.324 60.0426 305.384C65.7426 305.944 66.9026 307.524 67.3026 306.824C68.4117 304.884 69.7045 303.056 71.1626 301.364C71.5826 300.944 71.5626 300.744 72.8226 301.464C76.587 303.924 79.9583 306.938 82.8226 310.404C83.1226 310.924 80.5226 313.684 78.6226 315.304C77.9626 315.884 78.9026 316.144 80.6226 319.424C82.3426 322.704 81.9423 323.624 82.8623 323.424C84.6361 322.999 86.4612 322.831 88.2826 322.924ZM365.861 155.804C361.668 154.092 357.275 152.929 352.784 152.344C349.504 151.824 345.643 151.304 342.383 150.884C345.523 146.444 354.821 135.204 356.381 132.464C356.821 131.724 355.984 130.684 355.363 130.064C351.883 126.344 345.163 124.944 340.003 124.144C337.043 123.664 324.683 122.144 322.583 123.144C320.063 124.344 301.423 152.344 300.863 156.604C300.863 157.324 301.103 157.604 301.803 157.864C304.743 158.944 318.003 160.624 320.963 161.324C316.963 168.324 299.183 191.984 297.443 195.324C297.023 196.164 297.283 196.664 297.783 196.824C299.583 197.539 301.434 198.115 303.323 198.544C304.043 198.764 305.623 197.784 307.923 196.384C318.243 190.184 362.523 160.944 365.923 157.164C366.017 157.076 366.09 156.968 366.141 156.848C366.188 156.728 366.21 156.6 366.203 156.471C366.199 156.342 366.163 156.215 366.104 156.1C366.046 155.985 365.963 155.885 365.861 155.804ZM322.883 179.804C305.883 191.024 300.143 194.304 299.943 194.444C302.683 190.264 319.703 166.944 322.623 161.364C322.672 161.256 322.699 161.139 322.699 161.019C322.699 160.901 322.671 160.783 322.619 160.676C322.568 160.568 322.493 160.475 322.399 160.399C322.308 160.324 322.199 160.271 322.083 160.244C320.083 159.524 305.523 157.964 302.083 156.744C302.523 153.024 320.683 124.904 322.883 123.784C325.083 122.664 346.423 125.204 350.424 128.064C348.323 132.164 336.723 146.524 334.843 149.864C334.463 150.544 334.343 151.204 335.083 151.384C335.823 151.564 354.621 153.764 358.723 155.104C353.723 159.284 328.483 176.044 322.883 179.724V179.804ZM194.583 57.5244C194.583 57.7044 194.703 57.9244 195.003 59.0844C195.081 59.336 195.254 59.5473 195.486 59.6742C195.716 59.8008 195.988 59.8331 196.243 59.7644C196.498 59.6902 196.712 59.5179 196.839 59.2851C196.968 59.0528 196.998 58.7789 196.923 58.5244C196.723 57.7444 196.543 57.0844 196.423 56.7644C196.306 56.5448 196.112 56.3764 195.878 56.2924C195.644 56.208 195.388 56.2138 195.158 56.3088C194.928 56.4037 194.741 56.5808 194.636 56.8055C194.529 57.0302 194.509 57.2866 194.583 57.5244Z"/>
</mask>
<path d="M87.8026 321.084C86.0615 320.484 84.1954 320.339 82.3826 320.664C81.631 318.941 80.7066 317.299 79.6226 315.764C80.9226 314.584 84.4826 311.304 83.6226 309.764C80.5619 306.103 76.9281 302.963 72.8623 300.464C71.1648 299.513 69.2957 298.908 67.3626 298.684C66.0826 298.864 63.0423 303.844 62.3623 304.964C61.9223 304.964 60.3626 304.464 60.2426 304.404C60.2426 302.964 59.8226 297.764 58.5226 297.164C57.0688 296.629 55.5594 296.259 54.0226 296.064C52.6026 295.844 39.8226 298.184 38.8826 299.904C38.2626 301.064 39.7026 305.444 40.1226 306.664C39.0441 307.258 38.0081 307.926 37.0226 308.664C35.0226 310.084 35.5626 310.024 35.2026 309.864C34.7674 309.656 34.3012 309.521 33.8226 309.464C32.2248 308.528 30.3517 308.175 28.5226 308.464C26.6826 309.064 22.3426 318.944 21.6426 321.484C21.4135 322.124 21.3517 322.813 21.4626 323.484C21.9426 324.804 25.1426 325.864 26.4826 326.284C26.1125 328.858 26.1125 331.471 26.4826 334.044C24.7226 334.524 21.0623 335.604 21.2623 337.404C21.4623 339.204 26.1423 351.084 28.0823 352.024C29.1452 352.619 30.3205 352.984 31.5328 353.098C32.7452 353.211 33.9677 353.071 35.1226 352.684C35.7728 352.359 36.4012 351.993 37.0026 351.584C37.8026 352.184 38.6426 352.724 39.5026 353.244C38.8826 354.784 37.5026 358.224 37.9426 359.784C38.1626 360.606 38.8226 360.864 39.7426 361.206C42.2826 362.126 55.9626 365.406 58.0426 365.046C58.8226 364.926 59.2426 364.104 59.4826 363.326C59.927 361.548 60.1885 359.733 60.2623 357.904C61.2895 357.803 62.311 357.65 63.3226 357.446C63.9405 358.53 64.7306 359.512 65.6626 360.344C66.6826 361.064 67.5426 360.704 68.7026 359.966C69.2626 360.686 70.1026 361.686 71.0026 361.784C73.2626 362.046 82.6026 353.244 83.5626 351.444C84.3626 349.944 81.4426 347.264 80.1426 346.084C81.5488 343.968 82.6528 341.666 83.4226 339.244C84.8652 339.461 86.3252 339.543 87.7826 339.484C88.4426 339.484 89.2026 339.244 89.4826 338.624C90.7026 335.844 90.3426 325.304 89.4826 322.624C89.3626 321.844 88.4626 321.324 87.8026 321.084ZM88.2826 322.924C88.9626 325.524 89.1823 335.344 88.1823 337.884C86.4532 338.055 84.7084 337.975 83.0023 337.644C82.8204 337.613 82.6332 337.651 82.4779 337.751C82.3223 337.851 82.2099 338.006 82.1626 338.184C81.3663 340.888 80.1295 343.443 78.5023 345.744C78.3866 345.898 78.3343 346.088 78.3568 346.279C78.379 346.469 78.4746 346.643 78.6226 346.764C80.0259 347.876 81.2179 349.231 82.1426 350.764C81.1426 352.404 73.3226 359.566 71.1626 360.166C70.8426 360.166 69.9626 358.966 69.7426 358.646C69.0037 357.533 68.3361 356.381 67.7426 355.184C67.6561 355.01 67.5074 354.875 67.3263 354.806C67.1448 354.733 66.9437 354.733 66.7623 354.806C60.9623 356.984 58.7626 355.704 58.7626 357.144C58.7652 359.301 58.4139 361.443 57.7223 363.486C53.0223 362.973 48.3943 361.941 43.9226 360.406C44.1386 358.268 44.7343 356.188 45.6826 354.264C46.2826 352.924 43.8826 353.304 39.4026 348.744C39.2583 348.611 39.0692 348.536 38.8728 348.536C38.6761 348.536 38.487 348.611 38.3426 348.744C36.3426 350.384 33.7426 351.984 33.2226 351.724C32.2026 351.224 27.5026 340.564 27.2226 338.404C28.6452 337.413 30.2601 336.731 31.9626 336.404C32.1441 336.353 32.3008 336.238 32.4041 336.079C32.5066 335.921 32.5492 335.731 32.5226 335.544C32.0325 332.713 32.0325 329.816 32.5226 326.984C32.5532 326.809 32.5165 326.631 32.4201 326.483C32.3234 326.335 32.1743 326.228 32.0026 326.184C30.4946 325.789 29.0434 325.204 27.6826 324.444C27.2426 324.124 27.2826 324.144 27.3226 323.804C28.6172 319.136 30.6932 314.719 33.4626 310.744C34.5426 310.444 37.4626 312.584 38.4626 313.344C38.567 313.446 38.707 313.503 38.8525 313.503C38.9983 313.503 39.1383 313.446 39.2426 313.344C40.1615 312.391 41.151 311.509 42.2026 310.704C45.2426 308.404 46.0626 308.704 45.8026 307.904C44.883 305.898 44.3666 303.729 44.2826 301.524C44.5925 301.266 44.9445 301.064 45.3226 300.924C47.1899 300.186 49.1081 299.584 51.0626 299.124C53.4317 298.464 55.8666 298.068 58.3226 297.944C58.7426 298.124 59.1226 299.944 59.2226 300.504C59.9626 304.504 59.4626 305.324 60.0426 305.384C65.7426 305.944 66.9026 307.524 67.3026 306.824C68.4117 304.884 69.7045 303.056 71.1626 301.364C71.5826 300.944 71.5626 300.744 72.8226 301.464C76.587 303.924 79.9583 306.938 82.8226 310.404C83.1226 310.924 80.5226 313.684 78.6226 315.304C77.9626 315.884 78.9026 316.144 80.6226 319.424C82.3426 322.704 81.9423 323.624 82.8623 323.424C84.6361 322.999 86.4612 322.831 88.2826 322.924ZM365.861 155.804C361.668 154.092 357.275 152.929 352.784 152.344C349.504 151.824 345.643 151.304 342.383 150.884C345.523 146.444 354.821 135.204 356.381 132.464C356.821 131.724 355.984 130.684 355.363 130.064C351.883 126.344 345.163 124.944 340.003 124.144C337.043 123.664 324.683 122.144 322.583 123.144C320.063 124.344 301.423 152.344 300.863 156.604C300.863 157.324 301.103 157.604 301.803 157.864C304.743 158.944 318.003 160.624 320.963 161.324C316.963 168.324 299.183 191.984 297.443 195.324C297.023 196.164 297.283 196.664 297.783 196.824C299.583 197.539 301.434 198.115 303.323 198.544C304.043 198.764 305.623 197.784 307.923 196.384C318.243 190.184 362.523 160.944 365.923 157.164C366.017 157.076 366.09 156.968 366.141 156.848C366.188 156.728 366.21 156.6 366.203 156.471C366.199 156.342 366.163 156.215 366.104 156.1C366.046 155.985 365.963 155.885 365.861 155.804ZM322.883 179.804C305.883 191.024 300.143 194.304 299.943 194.444C302.683 190.264 319.703 166.944 322.623 161.364C322.672 161.256 322.699 161.139 322.699 161.019C322.699 160.901 322.671 160.783 322.619 160.676C322.568 160.568 322.493 160.475 322.399 160.399C322.308 160.324 322.199 160.271 322.083 160.244C320.083 159.524 305.523 157.964 302.083 156.744C302.523 153.024 320.683 124.904 322.883 123.784C325.083 122.664 346.423 125.204 350.424 128.064C348.323 132.164 336.723 146.524 334.843 149.864C334.463 150.544 334.343 151.204 335.083 151.384C335.823 151.564 354.621 153.764 358.723 155.104C353.723 159.284 328.483 176.044 322.883 179.724V179.804ZM194.583 57.5244C194.583 57.7044 194.703 57.9244 195.003 59.0844C195.081 59.336 195.254 59.5473 195.486 59.6742C195.716 59.8008 195.988 59.8331 196.243 59.7644C196.498 59.6902 196.712 59.5179 196.839 59.2851C196.968 59.0528 196.998 58.7789 196.923 58.5244C196.723 57.7444 196.543 57.0844 196.423 56.7644C196.306 56.5448 196.112 56.3764 195.878 56.2924C195.644 56.208 195.388 56.2138 195.158 56.3088C194.928 56.4037 194.741 56.5808 194.636 56.8055C194.529 57.0302 194.509 57.2866 194.583 57.5244Z" stroke="#006AD0" stroke-width="2" mask="url(#path-6-inside-4_1426_419)"/>
</svg>
