<svg width="133" height="170" viewBox="0 0 133 170" fill="none" xmlns="http://www.w3.org/2000/svg">
<path d="M8.53751 152.898C9.1743 149.2 12.995 130.669 18.2087 108.837C8.85585 97.2594 2.73037 83.4162 0.458182 68.7119C-7.50172 4.44873 90.4449 -26.6887 123.837 31.1721C131.051 43.8498 134.125 58.46 132.632 72.967C130.642 86.3286 115.917 112.893 102.464 119.096C96.3222 121.918 89.8515 123.962 83.2014 125.181C76.8863 126.311 70.4691 126.777 64.0578 126.573C53.5905 147.45 44.5959 167.692 41.1333 169.441C37.6707 171.191 10.408 162.323 8.29866 157.829C8.03309 156.187 8.11274 154.507 8.53751 152.898Z" fill="#D89216"/>
<path fill-rule="evenodd" clip-rule="evenodd" d="M38.5797 155.704L38.5906 155.706C40.2413 155.988 41.1896 156.137 41.7288 156.146C41.8309 156.148 41.9042 156.144 41.9557 156.139C41.8993 156.094 41.7834 156.019 41.5475 155.898C41.1515 155.696 40.5329 155.42 39.5506 154.983C38.9805 154.728 38.288 154.42 37.4454 154.039C35.6703 153.422 31.7228 152.127 28.16 150.983C26.3723 150.409 24.684 149.874 23.4184 149.483C22.7853 149.287 22.2601 149.128 21.8818 149.018C21.6922 148.963 21.5428 148.921 21.4365 148.894C21.3829 148.88 21.3445 148.871 21.3194 148.865L21.3182 148.865H21.2848L21.2192 148.847C20.8392 148.741 20.4894 148.644 20.1672 148.554C18.6474 148.13 17.742 147.877 17.1737 147.779C16.8454 147.722 16.7124 147.735 16.6671 147.746C16.6616 147.755 16.6527 147.772 16.6413 147.8C16.631 147.825 16.6271 147.84 16.6257 147.848C16.6431 147.882 16.7124 147.973 16.949 148.14C17.3269 148.405 17.9434 148.737 18.9047 149.256C19.1417 149.383 19.3997 149.523 19.6803 149.675C25.5493 152.829 31.954 154.873 38.5688 155.703L38.5797 155.704ZM19.2058 150.555L19.2041 150.554C18.9406 150.411 18.6934 150.278 18.4621 150.153C17.4934 149.631 16.805 149.261 16.3742 148.958C16.1087 148.771 15.8669 148.563 15.7336 148.299C15.578 147.992 15.6052 147.689 15.7167 147.419C15.8187 147.171 15.9938 146.916 16.3425 146.8C16.6316 146.704 16.9743 146.73 17.3434 146.793C17.9665 146.901 18.9376 147.172 20.4554 147.596C20.7632 147.682 21.0935 147.774 21.4479 147.872C21.4827 147.877 21.5116 147.884 21.5272 147.887L21.5298 147.888C21.5749 147.897 21.6288 147.91 21.6883 147.926C21.8082 147.957 21.9681 148.002 22.1609 148.058C22.5474 148.17 23.079 148.331 23.7139 148.528C24.9843 148.921 26.6764 149.457 28.4657 150.031C32.0426 151.179 36.0178 152.483 37.7952 153.102L37.8164 153.109L37.8368 153.119C38.6551 153.488 39.3397 153.794 39.9113 154.048C40.9248 154.5 41.5833 154.794 42.0026 155.008C42.3216 155.171 42.5791 155.324 42.7463 155.514C42.9584 155.754 42.9865 156.001 42.9865 156.199C42.9865 156.462 42.9028 156.775 42.5872 156.97C42.3372 157.126 42.0171 157.151 41.7119 157.146C41.0784 157.135 40.04 156.968 38.4334 156.694C31.7 155.847 25.1805 153.766 19.2058 150.555ZM41.7831 90.9983L41.796 90.999C45.9588 91.2143 50.1089 90.3564 53.8462 88.5052L54.0657 88.3965L54.2861 88.5032C57.7721 90.1911 61.5453 91.2137 65.4103 91.5168L66.1744 91.5767L65.8117 92.2519C59.1147 104.719 45.5715 130.041 41.211 143.508L41.0636 143.963L23.1852 139.034L23.3971 138.513C27.3744 128.737 36.1671 105.839 41.2183 91.3339L41.3352 90.9983H41.7831ZM41.2553 88.8358L40.3025 88.6921C37.2226 88.2275 34.3802 86.7664 32.214 84.5331C30.0462 82.3004 28.6717 79.4201 28.2996 76.3321C27.7275 72.24 28.7472 67.8968 30.9196 64.829C33.1045 61.7437 36.4978 59.9098 40.5881 61.0317C43.1288 61.7241 44.6217 63.1064 45.3325 64.9967C46.0274 66.8445 45.9485 69.1109 45.5263 71.5414L45.525 71.5488L45.5235 71.5561C44.8118 75.0327 42.2838 83.6334 40.8373 88L41.2553 88.8358ZM39.9128 87.6105C37.2571 87.0971 34.8182 85.7818 32.9317 83.8367C30.9152 81.7599 29.637 79.0803 29.2919 76.208L29.2906 76.1982C28.7498 72.3385 29.7202 68.2532 31.7357 65.4069C33.7396 62.5772 36.7338 61.0111 40.3244 61.9963C42.5994 62.6163 43.8138 63.7992 44.3965 65.3487C44.9945 66.939 44.9547 68.9847 44.5423 71.3628C43.8446 74.7657 41.3584 83.236 39.9128 87.6105ZM51.5566 79.1536C51.4425 80.2237 51.6213 81.3084 52.0742 82.2908C52.5445 83.3103 53.2913 84.1746 54.2291 84.7875C57.383 82.8413 60.1444 80.3249 62.3791 77.3663C63.4968 75.7495 63.7746 73.6308 63.4131 71.8013C63.0509 69.9682 62.0908 68.596 60.9015 68.2127C59.6307 68.1327 58.3648 68.4046 57.2406 68.9992C56.0995 69.602 55.1493 70.5129 54.5003 71.6278L54.4926 71.641L54.4842 71.6536C53.0612 73.7882 52.1093 76.2026 51.6961 78.7342L51.6276 79.1536H51.5566ZM61.0832 67.2229L61.1356 67.2384C62.8681 67.7531 63.9953 69.5892 64.3941 71.6074C64.7982 73.6522 64.5004 76.0629 63.1951 77.9445L63.1894 77.9527L63.1834 77.9607C60.8099 81.1052 57.8604 83.7672 54.4855 85.8024L54.2312 85.9558L53.9748 85.8057C52.7424 85.0845 51.7632 84.0041 51.1661 82.7096C50.5701 81.4166 50.3804 79.9702 50.6307 78.5659L50.7042 78.1536H50.7825C51.2513 75.6387 52.2252 73.243 53.6438 71.1114C54.3869 69.8407 55.4715 68.8028 56.7731 68.1152M61.0832 67.2229L61.0287 67.219ZM15.006 28.436C10.3191 33.8879 6.83062 40.2649 4.77468 47.1519C2.71867 54.0385 2.13392 61.2812 3.06332 68.4084C4.97327 82.7927 10.6947 96.4046 19.6401 107.834C19.7359 107.883 19.8707 107.969 19.9631 108.109C20.1127 108.335 20.1081 108.606 20.0878 108.827C20.0447 109.296 19.8477 110.171 19.4674 111.845L19.4016 112.135C18.6181 115.584 17.0836 122.337 14.4136 135.711L22.2866 137.749C25.2903 130.24 30.3988 115.722 34.8885 102.963C36.3398 98.8384 37.7265 94.8976 38.9566 91.4366C35.5336 90.6843 32.4161 88.907 30.0248 86.335C27.5018 83.6221 25.9178 80.1699 25.5132 76.4884C24.801 71.3697 26.2673 66.0658 29.1686 62.3781C32.0806 58.6769 36.4735 56.5743 41.541 58.0087C43.3257 58.4579 44.9471 59.4114 46.202 60.7583C47.4614 62.1053 48.3049 63.7873 48.6302 65.6014L48.6328 65.6159L48.6345 65.6305C48.8796 67.6869 48.7849 69.7697 48.3493 71.795C47.6954 75.1345 45.3013 83.0232 43.7011 87.8129C45.9679 87.7611 48.2101 87.3322 50.3353 86.5449C49.1573 85.3094 48.3236 83.7792 47.93 82.1087L47.924 82.0833L47.9207 82.0575C47.4938 78.7199 48.0398 75.3296 49.4909 72.2943C50.9444 69.2618 53.2393 66.7115 56.1077 64.9498C57.5878 63.9721 59.3753 63.5664 61.1348 63.8097C62.8972 64.0534 64.5098 64.9312 65.6703 66.2779L65.6807 66.2899L65.6903 66.3026C67.1292 68.2044 67.9409 70.5052 68.0165 72.8882C68.0899 75.2704 67.4243 77.6178 66.1063 79.6059L66.0969 79.6202L66.0865 79.6337C64.004 82.3518 61.5521 84.764 58.8068 86.8034C61.4205 87.6526 64.1285 88.1861 66.8724 88.3919C67.9248 86.4028 68.87 84.6295 69.7072 83.1085C71.3296 80.0471 73.5531 76.6535 76.1797 74.4017C78.8114 72.1457 81.9458 70.9662 85.277 72.5902C86.9072 73.2619 88.3111 74.3834 89.3279 75.8221L89.3285 75.823C90.3443 77.2664 90.9333 78.9702 91.0174 80.7353C91.1016 82.5011 90.677 84.2533 89.8008 85.7864C88.9215 87.3205 87.6243 88.5727 86.0611 89.3957L86.0484 89.4023L86.0354 89.4083C80.5766 91.8941 74.5762 92.9564 68.5982 92.4999C68.0832 93.434 67.5283 94.4379 66.9404 95.5016C59.6387 108.712 47.2462 131.134 42.8544 143.346C45.6455 144.203 48.3688 145.26 51.0098 146.507C53.1483 142.106 55.3055 137.568 57.2089 133.565C58.9885 129.822 60.5462 126.546 61.6591 124.284L61.6634 124.275L61.6681 124.266C62.0301 123.599 62.6938 123.311 63.3472 123.18C63.9884 123.05 64.7263 123.05 65.3824 123.05H65.4248C77.7823 123.392 90.0541 120.905 101.3 115.779C104.308 114.397 107.456 111.78 110.525 108.402C113.589 105.03 116.549 100.926 119.186 96.6063C124.466 87.9582 128.406 78.5168 129.31 72.4278C130.697 58.7294 127.783 44.9404 120.975 32.9705C114.113 21.0074 103.136 11.9434 90.0837 7.46676L90.0748 7.4637C66.0361 -1.29199 32.7071 7.15692 15.0112 28.4298L15.006 28.436ZM121.843 32.4742L121.844 32.4758C128.757 44.6296 131.714 58.6312 130.304 72.5402L130.303 72.5516L130.301 72.563C129.372 78.8418 125.354 88.4225 120.04 97.1273C117.378 101.487 114.381 105.645 111.265 109.075C108.154 112.499 104.899 115.226 101.718 116.688L101.717 116.688C90.3332 121.877 77.912 124.395 65.4042 124.05C64.7167 124.05 64.0764 124.053 63.5447 124.16C63.0188 124.266 62.7083 124.453 62.5515 124.735C61.435 127.005 59.8857 130.264 58.1143 133.99C56.1508 138.12 53.9144 142.824 51.692 147.391L51.474 147.839L51.0253 147.622C48.1336 146.228 45.1402 145.067 42.0652 144.152L41.563 144.002L41.736 143.507C45.9954 131.327 58.6694 108.398 66.0582 95.0303C66.7091 93.8527 67.319 92.7494 67.8785 91.7342L68.0353 91.4496L68.359 91.4773C74.2683 91.9829 80.2103 90.9594 85.6078 88.5042C86.997 87.7698 88.1499 86.6555 88.9326 85.2903C89.715 83.9211 90.0936 82.3575 90.0186 80.7829C89.9435 79.209 89.4182 77.688 88.5107 76.3985C87.6001 75.1104 86.3424 74.1077 84.8823 73.5091L84.867 73.5028L84.852 73.4955C82.0199 72.108 79.3092 73.0361 76.8306 75.1609C74.344 77.2926 72.1902 80.5583 70.589 83.5802L70.5853 83.5872C69.7119 85.1739 68.7185 87.0396 67.6042 89.1472L67.4528 89.4336L67.1295 89.4124C63.8633 89.1982 60.6433 88.5331 57.562 87.4359L56.6513 87.1116L57.4422 86.5558C60.4209 84.4625 63.0664 81.9285 65.2822 79.0392C66.4792 77.2272 67.0839 75.0896 67.017 72.9194C66.948 70.7485 66.2102 68.6526 64.9025 66.9187C63.9017 65.7632 62.514 65.01 60.9978 64.8003C59.4764 64.5899 57.931 64.9417 56.6526 65.7884L56.6454 65.7932L56.638 65.7977C53.9306 67.4587 51.7646 69.8642 50.3929 72.7261C49.0286 75.5799 48.513 78.7666 48.9093 81.9045C49.32 83.6239 50.2516 85.177 51.5745 86.3525L52.1714 86.8829L51.4336 87.1883C48.7612 88.2943 45.8916 88.8488 42.9984 88.8169L42.3088 88.8093L42.5304 88.1563C44.1225 83.4634 46.6993 75.0216 47.3688 71.5985L47.3706 71.5891C47.7826 69.6759 47.8734 67.7078 47.6433 65.7635C47.3502 64.1447 46.5959 62.6436 45.471 61.4406C44.3469 60.2341 42.8921 59.3787 41.2903 58.9768L41.2828 58.9749L41.2755 58.9729C36.6747 57.6675 32.6729 59.5413 29.9546 62.9964C27.2256 66.465 25.8264 71.4971 26.5047 76.3576L26.5057 76.3649L26.5065 76.3723C26.8862 79.8418 28.3786 83.0964 30.7572 85.6541C33.1348 88.2115 36.2751 89.935 39.7116 90.5692L40.2887 90.6757L40.092 91.2285C38.8192 94.8053 37.3664 98.9338 35.841 103.269C31.2667 116.268 26.0389 131.125 23.0504 138.531L22.8862 138.938L13.2481 136.443L13.3405 135.979C14.8497 128.407 16.0022 122.919 16.8653 118.935C12.8631 136.275 10.0565 149.97 9.52301 153.068L9.51557 153.111L9.50437 153.154C9.12941 154.574 9.04804 156.056 9.26112 157.509C9.45219 157.821 9.91068 158.285 10.7473 158.872C11.6436 159.5 12.8455 160.183 14.275 160.889C17.1302 162.3 20.8006 163.759 24.5311 165.03C28.2606 166.301 32.0198 167.374 35.0472 168.019C36.5633 168.342 37.8728 168.553 38.8921 168.632C39.4022 168.672 39.8185 168.676 40.1403 168.652C40.4792 168.625 40.6369 168.572 40.6823 168.549C40.904 168.437 41.3088 168.085 41.8965 167.336C42.4586 166.62 43.1111 165.642 43.8484 164.423C45.3215 161.987 47.0836 158.669 49.0764 154.729C51.0776 150.772 53.2774 146.258 55.634 141.423C58 136.569 60.524 131.39 63.1639 126.124L63.4505 125.553L64.0897 125.573C70.4304 125.776 76.7768 125.314 83.0222 124.197C89.5901 122.993 95.9808 120.974 102.047 118.188C105.243 116.714 108.581 113.994 111.839 110.472C115.089 106.958 118.216 102.693 120.996 98.1905C126.567 89.1702 130.667 79.3338 131.64 72.8419C133.105 58.5509 130.075 44.1592 122.969 31.67C106.568 3.25281 74.2853 -3.38561 46.9369 5.10059C19.5861 13.5876 -2.44528 37.0726 1.44875 68.5741C2.97336 78.4286 6.24948 87.8917 11.0842 96.5299C6.44262 87.8493 3.37746 78.3725 2.0719 68.5391L2.07175 68.538C1.12411 61.2711 1.72032 53.8869 3.81647 46.8659C5.91232 39.8451 9.46817 33.3447 14.2451 27.7872C32.2092 6.19489 65.9771 -2.37532 90.4127 6.52239C103.692 11.0784 114.861 20.3015 121.843 32.4742ZM0.458182 68.7119C-7.50172 4.44873 90.4449 -26.6887 123.837 31.1721C131.051 43.8498 134.125 58.46 132.632 72.967C130.642 86.3286 115.917 112.893 102.464 119.096C96.3222 121.918 89.8515 123.962 83.2014 125.181C76.8863 126.311 70.4691 126.777 64.0578 126.573C61.4375 131.799 58.9094 136.986 56.5373 141.852C49.4338 156.426 43.7291 168.13 41.1333 169.441C37.6707 171.191 10.408 162.323 8.29866 157.829C8.03309 156.187 8.11274 154.507 8.53751 152.898C9.1743 149.2 12.995 130.669 18.2087 108.837C8.85585 97.2594 2.73037 83.4162 0.458182 68.7119ZM70.7088 88.6595C73.9748 88.6516 77.8827 88.3256 81.0771 87.2896C84.6125 86.143 87.0684 84.2077 87.1188 81.0625C87.0046 80.0022 86.6082 78.9937 85.966 78.1428L85.9653 78.1419C85.3207 77.2833 84.4494 76.6165 83.4522 76.2144L83.4336 76.2069L83.4157 76.1979C82.2466 75.6138 81.061 75.7536 79.8381 76.431C78.5964 77.1187 77.3543 78.3447 76.161 79.8536C74.0744 82.4919 72.2328 85.8668 70.8643 88.3746C70.8117 88.4709 70.7599 88.5658 70.7088 88.6595ZM69.7058 89.0623L69.4307 88.9105C69.6033 88.5977 69.7873 88.2605 69.9819 87.9037C71.3457 85.4033 73.2323 81.9445 75.3767 79.2332C76.6011 77.685 77.9411 76.3386 79.3535 75.5562C80.7792 74.7665 82.3134 74.5372 83.8446 75.2944C85.0015 75.7648 86.0134 76.5408 86.7642 77.5404M42.0412 92.0112C37.0538 106.297 28.577 128.39 24.5349 138.369L40.4088 142.746C44.8742 129.308 57.8568 104.952 64.5728 92.4451C60.9301 92.0722 57.3777 91.0792 54.0704 89.5088C50.3259 91.3187 46.194 92.1773 42.0412 92.0112ZM61.0287 67.219C59.5528 67.1141 58.0795 67.4244 56.7731 68.1152Z" fill="black" fill-opacity="0.5"/>
</svg>
