<svg width="187" height="46" viewBox="0 0 187 46" fill="none" xmlns="http://www.w3.org/2000/svg">
<rect width="187" height="46" fill="#4A4A4A"/>
<g id="Desktop">
<rect width="966" height="2131.76" transform="translate(-727 -32)" fill="black"/>
<g id="Nav">
<rect x="-697" y="-22" width="906" height="89.7555" rx="10" fill="#101010"/>
<g id="Logo">
<rect x="-11.9697" y="-12" width="210.97" height="69.7555" rx="5" fill="#2B2B2B"/>
<g id="Group 1">
<path id="Vector" d="M65.6483 20.4974L64.8646 20.2934C64.6245 20.2232 64.3644 20.338 64.2944 20.5421C63.0572 23.8583 62.3469 26.9929 59.4256 26.9929H54.9103C55.5772 25.1976 56.0974 23.176 56.7177 21.0842C56.7877 20.8131 56.6477 20.5644 56.3842 20.4974L55.6006 20.2934C55.3638 20.2232 55.1037 20.338 55.0303 20.5421C53.7964 23.8583 53.0828 26.9929 50.1615 26.9929H45.6495C46.3131 25.1976 46.8367 23.176 47.4536 21.0842C47.527 20.8131 47.3836 20.5644 47.1202 20.4974L46.3365 20.2934C46.0997 20.2232 45.8396 20.338 45.7696 20.5867C44.579 23.8807 43.7954 26.9929 40.8741 26.9929H25.4173C24.0133 26.9929 22.9929 27.9686 22.9929 29.3079V32.8728C22.9929 37.6878 12.3782 37.9588 4.82489 38.4595L0.0961429 45.2737C-0.0705971 45.5001 0.0961429 45.7489 0.406279 45.7489C11.4478 45.7489 26.1776 46.4312 26.1776 33.9411L30.9964 27.8634V33.0961L31.0097 33.9411H36.2687C36.2921 33.9411 36.3154 33.9379 36.3387 33.9347C38.0328 33.8869 39.4168 33.5999 40.5673 33.1216L40.0904 33.6923C39.997 33.8039 40.0904 33.9411 40.2338 33.9411H45.1259C47.0268 33.9411 48.5708 33.6445 49.828 33.1216L49.3545 33.6923C49.2578 33.8039 49.3545 33.9411 49.4979 33.9411H54.39C63.0838 33.9411 63.9376 27.8761 65.9818 21.0842C66.0518 20.8131 65.9084 20.5644 65.6483 20.4974Z" fill="#E0DFDF"/>
<path id="Vector_2" d="M54.1767 10.0959L57.9284 13.5237C58.0251 13.613 58.1652 13.613 58.2385 13.5237L63.4875 7.64056C63.5575 7.57359 63.5809 7.43648 63.4875 7.3472L58.2619 2.46209C58.1652 2.39512 58.0251 2.3728 57.9517 2.46209L46.7168 16.4542H49.0912L54.1767 10.0959Z" fill="#E0DFDF"/>
<path id="Vector_3" d="M186.649 20.4972L185.865 20.2931C185.628 20.223 185.365 20.3378 185.295 20.5865C184.107 23.8805 183.324 26.9926 180.403 26.9926H76.5935V0.169182C76.5935 0.00974631 76.4035 -0.0572167 76.2867 0.057577L70.751 5.93756V33.9408H71.0845L75.9066 27.9365V33.488C75.9066 33.7368 76.12 33.9408 76.3801 33.9408H175.367C184.084 33.9408 184.965 27.8759 186.982 21.084C187.052 20.8129 186.909 20.5642 186.649 20.4972Z" fill="#E0DFDF"/>
<path id="Vector_4" d="M180.472 16.2278C180.569 16.3171 180.712 16.3171 180.806 16.2278L186.625 11.0493C186.722 10.9568 186.722 10.8197 186.648 10.7304L183.063 7.0985C182.99 7.02835 182.85 7.00603 182.753 7.0985L176.911 12.2961C176.841 12.3663 176.814 12.5002 176.911 12.5927L180.472 16.2278Z" fill="#E0DFDF"/>
</g>
</g>
</g>
</g>
</svg>
