<svg width="11" height="11" viewBox="0 0 11 11" fill="none" xmlns="http://www.w3.org/2000/svg">
<path fill-rule="evenodd" clip-rule="evenodd" d="M6.06006 1.92871C6.06006 1.37643 5.61234 0.928711 5.06006 0.928711C4.50778 0.928711 4.06006 1.37643 4.06006 1.92871L4.06006 4.92871L1.06006 4.92871C0.507774 4.92871 0.0600586 5.37643 0.0600586 5.92871C0.0600586 6.48099 0.507774 6.92871 1.06006 6.92871L4.06006 6.92871L4.06006 9.92871C4.06006 10.481 4.50777 10.9287 5.06006 10.9287C5.61234 10.9287 6.06006 10.481 6.06006 9.92871L6.06006 6.92871L9.06006 6.92871C9.61234 6.92871 10.0601 6.481 10.0601 5.92871C10.0601 5.37643 9.61234 4.92871 9.06006 4.92871L6.06006 4.92871L6.06006 1.92871Z" fill="white"/>
</svg>
