<svg width="21" height="23" viewBox="0 0 21 23" fill="none" xmlns="http://www.w3.org/2000/svg">
<path fill-rule="evenodd" clip-rule="evenodd" d="M4.76826 2.47464C3.98376 2.57992 3.6204 2.76555 3.3731 3.01241C3.1258 3.25926 2.93983 3.62195 2.83436 4.40503C2.72459 5.22001 2.72223 6.30832 2.72223 7.90817V14.5627C2.72223 16.1625 2.72459 17.2508 2.83436 18.0658C2.93983 18.8489 3.1258 19.2116 3.37311 19.4585C3.62041 19.7053 3.98377 19.891 4.76827 19.9962C5.58473 20.1058 6.67502 20.1082 8.27778 20.1082H10.5C12.1028 20.1082 13.193 20.1058 14.0095 19.9962C14.794 19.891 15.1573 19.7053 15.4047 19.4585C15.652 19.2116 15.838 18.8489 15.9434 18.0658C16.0532 17.2508 16.0556 16.1625 16.0556 14.5627V12.3445H18.2778L18.2778 14.641C18.2778 16.1428 18.2779 17.3812 18.1458 18.3614C18.0072 19.3904 17.705 20.2993 16.976 21.0269C16.247 21.7546 15.3365 22.0563 14.3056 22.1946C13.3237 22.3264 12.083 22.3264 10.5784 22.3264H8.19936C6.69479 22.3264 5.4541 22.3264 4.47215 22.1946C3.44122 22.0563 2.53075 21.7546 1.80174 21.0269C1.07274 20.2992 0.770554 19.3904 0.63195 18.3614C0.499929 17.3812 0.499962 16.1428 0.500001 14.641V7.8299C0.499962 6.32806 0.499929 5.08963 0.63195 4.10946C0.770554 3.08041 1.07274 2.1716 1.80175 1.44391C2.53076 0.716231 3.44123 0.414593 4.47216 0.276241C5.45411 0.144461 6.69479 0.144493 8.19937 0.144533L8.27778 0.144534V2.36272C6.67502 2.36272 5.58473 2.36507 4.76826 2.47464ZM16.0556 0.144534C16.6692 0.144534 17.1667 0.641091 17.1667 1.25362V3.47181H19.3889C20.0025 3.47181 20.5 3.96836 20.5 4.5809C20.5 5.19343 20.0025 5.68999 19.3889 5.68999H17.1667V7.90817C17.1667 8.5207 16.6692 9.01726 16.0556 9.01726C15.4419 9.01726 14.9444 8.5207 14.9444 7.90817V5.68999H12.7222C12.1086 5.68999 11.6111 5.19343 11.6111 4.5809C11.6111 3.96836 12.1086 3.47181 12.7222 3.47181H14.9444V1.25362C14.9444 0.641091 15.4419 0.144534 16.0556 0.144534ZM4.94444 7.90817C4.94444 7.29564 5.4419 6.79908 6.05555 6.79908H10.5C11.1136 6.79908 11.6111 7.29564 11.6111 7.90817C11.6111 8.5207 11.1136 9.01726 10.5 9.01726H6.05555C5.4419 9.01726 4.94444 8.5207 4.94444 7.90817ZM4.94444 12.3445C4.94444 11.732 5.4419 11.2354 6.05555 11.2354H12.7222C13.3359 11.2354 13.8333 11.732 13.8333 12.3445C13.8333 12.9571 13.3359 13.4536 12.7222 13.4536H6.05555C5.4419 13.4536 4.94444 12.9571 4.94444 12.3445ZM4.94444 16.7809C4.94444 16.1684 5.4419 15.6718 6.05555 15.6718H10.5C11.1136 15.6718 11.6111 16.1684 11.6111 16.7809C11.6111 17.3934 11.1136 17.89 10.5 17.89H6.05555C5.4419 17.89 4.94444 17.3934 4.94444 16.7809Z" fill="#EAEAEA"/>
</svg>
