<svg width="16" height="21" viewBox="0 0 16 21" fill="none" xmlns="http://www.w3.org/2000/svg">
<path d="M11.8673 10.4867C13.0096 9.67411 14.0043 8.36619 14.0043 6.27542V6.22189C14.0043 4.89292 13.5338 3.7387 12.6058 2.79121C12.6014 2.78666 12.5968 2.78218 12.5922 2.77777C11.3362 1.5681 9.45687 0.928711 7.15716 0.928711H0.734988C0.362202 0.928711 0.0600586 1.21513 0.0600586 1.56852V20.2889C0.0600586 20.6423 0.362202 20.9287 0.734988 20.9287H7.5091C9.71274 20.9287 11.5809 20.4159 12.9118 19.4456C14.3172 18.4209 15.0601 16.9462 15.0601 15.181V15.1275C15.0601 13.0301 13.9626 11.4458 11.8673 10.4867ZM7.56325 17.7504H3.52147V12.4244H7.18424C8.66421 12.4244 9.83446 12.6768 10.5686 13.1545C11.2253 13.5818 11.5446 14.1834 11.5446 14.9937V15.0472C11.5446 17.487 8.76027 17.7504 7.56325 17.7504ZM6.80365 9.27273H3.52147V4.10709H6.96773C9.20542 4.10709 10.4888 4.98513 10.4888 6.51606V6.56952C10.4887 8.92155 8.17991 9.27273 6.80365 9.27273Z" fill="#EAEAEA"/>
</svg>
