<svg width="18" height="26" viewBox="0 0 18 26" fill="none" xmlns="http://www.w3.org/2000/svg">
<path fill-rule="evenodd" clip-rule="evenodd" d="M6.023 15.3341H12.0365C13.1606 15.3341 13.7226 15.3341 14.1413 15.5759C14.4155 15.7342 14.6433 15.962 14.8016 16.2362C15.0433 16.6548 15.0433 17.2169 15.0433 18.3409C15.0433 19.465 15.0433 20.027 14.8016 20.4457C14.6433 20.7199 14.4155 20.9477 14.1413 21.1059C13.7226 21.3477 13.1606 21.3477 12.0365 21.3477H6.023C4.89895 21.3477 4.33692 21.3477 3.91826 21.1059C3.64404 20.9477 3.41625 20.7199 3.25797 20.4457C3.01623 20.027 3.01623 19.465 3.01623 18.3409C3.01623 17.2169 3.01623 16.6548 3.25797 16.2362C3.41625 15.962 3.64404 15.7342 3.91826 15.5759C4.33692 15.3341 4.89895 15.3341 6.023 15.3341Z" fill="#EAEAEA"/>
<path d="M0.610813 7.51654C0.610813 6.39247 0.610815 5.83044 0.852558 5.4118C1.01084 5.13754 1.23863 4.90981 1.51285 4.75146C1.93151 4.50977 2.49353 4.50977 3.61759 4.50977H14.442C15.566 4.50977 16.1281 4.50977 16.5467 4.75146C16.821 4.9098 17.0487 5.13754 17.207 5.4118C17.4487 5.83044 17.4487 6.39246 17.4487 7.51654C17.4487 8.64061 17.4487 9.20264 17.207 9.62128C17.0487 9.89553 16.821 10.1233 16.5467 10.2816C16.1281 10.5233 15.566 10.5233 14.442 10.5233H3.61759C2.49353 10.5233 1.93151 10.5233 1.51285 10.2816C1.23863 10.1233 1.01084 9.89553 0.852558 9.62128C0.610815 9.20264 0.610813 8.64061 0.610813 7.51654Z" fill="#EAEAEA"/>
<g opacity="0.5">
<path d="M8.12758 4.51016V0.902031C8.12758 0.403857 8.53145 0 9.02961 0C9.52777 0 9.93164 0.403857 9.93164 0.902031V4.51016H8.12758Z" fill="#EAEAEA"/>
<path d="M9.93164 10.5237V15.3345H8.12758V10.5237H9.93164Z" fill="#EAEAEA"/>
<path d="M9.93164 21.3481V24.9562C9.93164 25.4544 9.52777 25.8582 9.02961 25.8582C8.53145 25.8582 8.12758 25.4544 8.12758 24.9562V21.3481H9.93164Z" fill="#EAEAEA"/>
</g>
</svg>
