<svg width="21" height="20" viewBox="0 0 21 20" fill="none" xmlns="http://www.w3.org/2000/svg">
<path d="M9.47025 3.35703C11.2516 1.58841 12.1422 0.704102 13.249 0.704102C14.3559 0.704102 15.2466 1.58841 17.0279 3.35703C18.8093 5.12565 19.7 6.00996 19.7 7.10884C19.7 8.20773 18.8093 9.09202 17.0279 10.8606L12.5552 15.3014L4.99744 7.79776L9.47025 3.35703Z" fill="#EAEAEA"/>
<path d="M3.86608 8.92111L11.4238 16.4246L10.7298 17.1136C10.3269 17.5137 9.96955 17.8685 9.64496 18.1781H19.7C20.1418 18.1781 20.5 18.5337 20.5 18.9723C20.5 19.411 20.1418 19.7666 19.7 19.7666H6.9C5.81651 19.7398 4.92603 18.8551 3.17206 17.1136C1.39069 15.3451 0.5 14.4608 0.5 13.3618C0.5 12.263 1.39069 11.3787 3.17206 9.61011L3.86608 8.92111Z" fill="#EAEAEA"/>
</svg>
