<svg width="25" height="26" viewBox="0 0 25 26" fill="none" xmlns="http://www.w3.org/2000/svg">
<path d="M24.6093 11.1793L23.3834 16.679C22.3327 21.4288 20.2563 23.3498 16.3536 22.9551C15.7281 22.9024 15.0527 22.784 14.3272 22.5998L12.2257 22.0735C7.00963 20.771 5.39602 18.0606 6.62187 12.5608L7.84771 7.04794C8.09788 5.92958 8.39809 4.95594 8.77334 4.15335C10.2369 0.969289 12.7261 0.114067 16.904 1.15349L18.9929 1.66662C24.234 2.95604 25.8351 5.67959 24.6093 11.1793Z" fill="#EAEAEA"/>
<path d="M16.3536 22.9551C15.578 23.5077 14.6025 23.9683 13.4142 24.3762L11.4378 25.0604C6.47196 26.7445 3.85767 25.3367 2.24406 20.1132L0.642958 14.9161C-0.958142 9.69267 0.367769 6.92965 5.33368 5.24552L7.31004 4.56134C7.82289 4.39029 8.31053 4.24545 8.77334 4.15335C8.39809 4.95594 8.09788 5.92958 7.84771 7.04794L6.62187 12.5608C5.39602 18.0606 7.00963 20.771 12.2257 22.0735L14.3272 22.5998C15.0527 22.784 15.7281 22.9024 16.3536 22.9551Z" fill="#7A7A7A"/>
<path d="M19.3922 11.2717C19.3171 11.2717 19.242 11.2586 19.1545 11.2454L13.0878 9.6271C12.5875 9.49553 12.2873 8.95608 12.4124 8.42979C12.5374 7.9035 13.0503 7.58773 13.5506 7.7193L19.6173 9.33764C20.1176 9.46922 20.4179 10.0087 20.2928 10.535C20.1927 10.9691 19.8049 11.2717 19.3922 11.2717Z" fill="black"/>
<path d="M15.7268 15.7191C15.6518 15.7191 15.5767 15.7059 15.4892 15.6928L11.8492 14.7191C11.3488 14.5875 11.0486 14.0481 11.1737 13.5218C11.2988 12.9955 11.8116 12.6797 12.312 12.8113L15.952 13.785C16.4523 13.9165 16.7525 14.456 16.6275 14.9823C16.5274 15.4296 16.1521 15.7191 15.7268 15.7191Z" fill="black"/>
</svg>
