<svg width="14" height="23" viewBox="0 0 14 23" fill="none" xmlns="http://www.w3.org/2000/svg">
<path d="M4 17.5H10" stroke="white" stroke-width="2" stroke-linecap="round" stroke-linejoin="round"/>
<path d="M5 21.5H9" stroke="white" stroke-width="2" stroke-linecap="round" stroke-linejoin="round"/>
<path d="M10.09 13.5C10.27 12.52 10.74 11.76 11.5 11C11.9829 10.5555 12.3662 10.0138 12.6247 9.41058C12.8832 8.80734 13.0111 8.15621 13 7.5C13 5.9087 12.3679 4.38258 11.2426 3.25736C10.1174 2.13214 8.5913 1.5 7 1.5C5.4087 1.5 3.88258 2.13214 2.75736 3.25736C1.63214 4.38258 1 5.9087 1 7.5C1 8.5 1.23 9.73 2.5 11C3.22405 11.6621 3.718 12.5379 3.91 13.5" fill="white"/>
<path d="M10.09 13.5C10.27 12.52 10.74 11.76 11.5 11C11.9829 10.5555 12.3662 10.0138 12.6247 9.41058C12.8832 8.80734 13.0111 8.15621 13 7.5C13 5.9087 12.3679 4.38258 11.2426 3.25736C10.1174 2.13214 8.5913 1.5 7 1.5C5.4087 1.5 3.88258 2.13214 2.75736 3.25736C1.63214 4.38258 1 5.9087 1 7.5C1 8.5 1.23 9.73 2.5 11C3.22405 11.6621 3.718 12.5379 3.91 13.5" stroke="white" stroke-width="2" stroke-linecap="round" stroke-linejoin="round"/>
</svg>
