<svg width="11" height="21" viewBox="0 0 11 21" fill="none" xmlns="http://www.w3.org/2000/svg">
<path fill-rule="evenodd" clip-rule="evenodd" d="M2.02706 17.5954L4.70139 4.22338C3.95339 4.05933 3.39339 3.39274 3.39339 2.59538C3.39339 1.67491 4.13956 0.928711 5.06006 0.928711H8.39339C9.31389 0.928711 10.0601 1.67491 10.0601 2.59538C10.0601 3.51584 9.31389 4.26204 8.39339 4.26204H8.09306L5.41873 17.634C6.16673 17.798 6.72673 18.4647 6.72673 19.262C6.72673 20.1825 5.98056 20.9287 5.06006 20.9287H1.72673C0.806259 20.9287 0.0600586 20.1825 0.0600586 19.262C0.0600586 18.3415 0.806259 17.5954 1.72673 17.5954H2.02706Z" fill="#EAEAEA"/>
</svg>
