<svg width="23" height="26" viewBox="0 0 23 26" fill="none" xmlns="http://www.w3.org/2000/svg">
<path opacity="0.5" fill-rule="evenodd" clip-rule="evenodd" d="M0.962227 0C1.46039 0 1.86426 0.403857 1.86426 0.902031V24.9562C1.86426 25.4544 1.46039 25.8582 0.962227 25.8582C0.464065 25.8582 0.0601953 25.4544 0.0601953 24.9562V0.902031C0.0601953 0.403857 0.464065 0 0.962227 0Z" fill="#EAEAEA"/>
<path d="M5.77292 7.51654C5.77292 6.39246 5.77292 5.83044 6.01467 5.4118C6.17295 5.13754 6.40074 4.9098 6.67495 4.75146C7.09362 4.50977 7.65564 4.50977 8.77969 4.50977H19.6041C20.7281 4.50977 21.2902 4.50977 21.7088 4.75146C21.9831 4.9098 22.2108 5.13754 22.3691 5.4118C22.6108 5.83042 22.6108 6.39246 22.6108 7.51654C22.6108 8.6406 22.6108 9.20264 22.3691 9.62128C22.2108 9.89553 21.9831 10.1233 21.7088 10.2816C21.2902 10.5233 20.7281 10.5233 19.6041 10.5233H8.77969C7.65564 10.5233 7.09362 10.5233 6.67495 10.2816C6.40074 10.1233 6.17295 9.89553 6.01467 9.62128C5.77292 9.20264 5.77292 8.64061 5.77292 7.51654Z" fill="#EAEAEA"/>
<path d="M5.77292 18.3409C5.77292 17.2169 5.77292 16.6548 6.01467 16.2362C6.17295 15.962 6.40074 15.7342 6.67495 15.5759C7.09362 15.3341 7.65564 15.3341 8.77969 15.3341H15.9959C17.12 15.3341 17.682 15.3341 18.1007 15.5759C18.3749 15.7342 18.6027 15.962 18.761 16.2362C19.0027 16.6548 19.0027 17.2169 19.0027 18.3409C19.0027 19.465 19.0027 20.027 18.761 20.4457C18.6027 20.7199 18.3749 20.9477 18.1007 21.1059C17.682 21.3477 17.12 21.3477 15.9959 21.3477H8.77969C7.65564 21.3477 7.09362 21.3477 6.67495 21.1059C6.40074 20.9477 6.17295 20.7199 6.01467 20.4457C5.77292 20.027 5.77292 19.465 5.77292 18.3409Z" fill="#EAEAEA"/>
</svg>
