<svg width="21" height="21" viewBox="0 0 21 21" fill="none" xmlns="http://www.w3.org/2000/svg">
<path d="M9.90011 16.3966L17.296 9.00066C16.2894 8.58176 15.0972 7.89356 13.9697 6.76604C12.842 5.63834 12.1537 4.44594 11.7348 3.43926L4.33882 10.8353C3.76169 11.4125 3.47307 11.7011 3.2249 12.0192C2.93213 12.3946 2.68114 12.8007 2.47634 13.2304C2.30273 13.5947 2.17368 13.9819 1.91556 14.7562L0.554449 18.8396C0.427429 19.2206 0.526599 19.6407 0.81063 19.9248C1.09466 20.2088 1.51478 20.308 1.89584 20.181L5.97919 18.8198C6.75352 18.5617 7.14071 18.4327 7.50499 18.2591C7.9347 18.0543 8.34083 17.8033 8.71621 17.5105C9.03431 17.2623 9.32301 16.9737 9.90011 16.3966Z" fill="#EAEAEA"/>
<path d="M19.3482 6.94842C20.8839 5.41271 20.8839 2.92284 19.3482 1.38714C17.8125 -0.148576 15.3226 -0.148576 13.7869 1.38714L12.8999 2.27418C12.9121 2.31086 12.9246 2.34804 12.9377 2.38571C13.2628 3.32286 13.8763 4.55137 15.0303 5.70538C16.1843 6.85939 17.4128 7.47285 18.35 7.79798C18.3875 7.81099 18.4245 7.82353 18.461 7.83562L19.3482 6.94842Z" fill="#EAEAEA"/>
</svg>
