<svg width="23" height="26" viewBox="0 0 23 26" fill="none" xmlns="http://www.w3.org/2000/svg">
<path d="M17.2866 7.51654C17.2866 6.39247 17.2866 5.83044 17.0449 5.4118C16.8866 5.13754 16.6588 4.90981 16.3846 4.75146C15.966 4.50977 15.4039 4.50977 14.2799 4.50977H3.45548C2.33142 4.50977 1.7694 4.50977 1.35074 4.75146C1.07652 4.9098 0.848726 5.13754 0.690449 5.4118C0.448706 5.83044 0.448704 6.39246 0.448704 7.51654C0.448704 8.64061 0.448706 9.20264 0.690449 9.62128C0.848726 9.89553 1.07652 10.1233 1.35074 10.2816C1.7694 10.5233 2.33142 10.5233 3.45548 10.5233H14.2799C15.4039 10.5233 15.966 10.5233 16.3846 10.2816C16.6588 10.1233 16.8866 9.89553 17.0449 9.62128C17.2866 9.20264 17.2866 8.64061 17.2866 7.51654Z" fill="#EAEAEA"/>
<path d="M17.2866 18.3409C17.2866 17.2169 17.2866 16.6548 17.0449 16.2362C16.8866 15.962 16.6588 15.7342 16.3846 15.5759C15.966 15.3341 15.4039 15.3341 14.2799 15.3341H7.0636C5.93955 15.3341 5.37752 15.3341 4.95886 15.5759C4.68464 15.7342 4.45685 15.962 4.29857 16.2362C4.05683 16.6548 4.05683 17.2169 4.05683 18.3409C4.05683 19.465 4.05683 20.027 4.29857 20.4457C4.45685 20.7199 4.68464 20.9477 4.95886 21.1059C5.37752 21.3477 5.93955 21.3477 7.0636 21.3477H14.2799C15.4039 21.3477 15.966 21.3477 16.3846 21.1059C16.6588 20.9477 16.8866 20.7199 17.0449 20.4457C17.2866 20.027 17.2866 19.465 17.2866 18.3409Z" fill="#EAEAEA"/>
<path opacity="0.5" fill-rule="evenodd" clip-rule="evenodd" d="M22.0975 25.8582C21.5993 25.8582 21.1954 25.4544 21.1954 24.9562V0.902031C21.1954 0.403857 21.5993 0 22.0975 0C22.5957 0 22.9995 0.403857 22.9995 0.902031V24.9562C22.9995 25.4544 22.5957 25.8582 22.0975 25.8582Z" fill="#EAEAEA"/>
</svg>
