<svg width="22" height="21" viewBox="0 0 22 21" fill="none" xmlns="http://www.w3.org/2000/svg">
<path d="M21 9.50002H20.949C20.7298 7.33858 19.8093 5.30825 18.328 3.71902L18.82 3.16202C18.9956 2.96311 19.0849 2.7026 19.0684 2.4378C19.0519 2.173 18.9309 1.9256 18.732 1.75002C18.5331 1.57445 18.2726 1.48509 18.0078 1.50159C17.743 1.51809 17.4956 1.63911 17.32 1.83802L16.829 2.39302C15.1337 1.16262 13.0927 0.5 10.998 0.5C8.90329 0.5 6.86226 1.16262 5.167 2.39302L4.676 1.83802C4.58907 1.73953 4.48358 1.65913 4.36557 1.6014C4.24756 1.54368 4.11934 1.50976 3.98823 1.50159C3.72342 1.48509 3.46291 1.57445 3.264 1.75002C3.06509 1.9256 2.94407 2.173 2.92757 2.4378C2.91106 2.7026 3.00043 2.96311 3.176 3.16202L3.668 3.71902C2.18815 5.30879 1.26907 7.33906 1.051 9.50002H1C0.734784 9.50002 0.48043 9.60538 0.292893 9.79292C0.105357 9.98045 0 10.2348 0 10.5C0 10.7652 0.105357 11.0196 0.292893 11.2071C0.48043 11.3947 0.734784 11.5 1 11.5H1.051C1.27061 13.6614 2.19107 15.6916 3.672 17.281L3.18 17.838C3.09306 17.9365 3.02638 18.0512 2.98375 18.1754C2.94113 18.2997 2.92339 18.4311 2.93157 18.5622C2.93974 18.6934 2.97365 18.8216 3.03138 18.9396C3.0891 19.0576 3.16951 19.1631 3.268 19.25C3.36649 19.337 3.48114 19.4036 3.6054 19.4463C3.72967 19.4889 3.86111 19.5066 3.99223 19.4985C4.12334 19.4903 4.25156 19.4564 4.36957 19.3986C4.48758 19.3409 4.59306 19.2605 4.68 19.162L5.171 18.607C6.86626 19.8374 8.90729 20.5 11.002 20.5C13.0967 20.5 15.1377 19.8374 16.833 18.607L17.324 19.162C17.4996 19.3609 17.747 19.482 18.0118 19.4985C18.2766 19.515 18.5371 19.4256 18.736 19.25C18.9349 19.0744 19.0559 18.827 19.0724 18.5622C19.0889 18.2974 18.9996 18.0369 18.824 17.838L18.332 17.281C19.8115 15.691 20.7305 13.6609 20.949 11.5H21C21.2652 11.5 21.5196 11.3947 21.7071 11.2071C21.8946 11.0196 22 10.7652 22 10.5C22 10.2348 21.8946 9.98045 21.7071 9.79292C21.5196 9.60538 21.2652 9.50002 21 9.50002ZM18.931 9.50002H16.91C16.7396 8.48587 16.3104 7.53283 15.664 6.73302L17 5.22402C18.0582 6.42325 18.7311 7.91319 18.931 9.50002ZM7 10.5C7 9.7089 7.2346 8.93554 7.67412 8.27774C8.11365 7.61995 8.73836 7.10726 9.46927 6.8045C10.2002 6.50175 11.0044 6.42254 11.7804 6.57688C12.5563 6.73122 13.269 7.11219 13.8284 7.6716C14.3878 8.23101 14.7688 8.94374 14.9231 9.71966C15.0775 10.4956 14.9983 11.2999 14.6955 12.0308C14.3928 12.7617 13.8801 13.3864 13.2223 13.8259C12.5645 14.2654 11.7911 14.5 11 14.5C9.93913 14.5 8.92172 14.0786 8.17157 13.3284C7.42143 12.5783 7 11.5609 7 10.5ZM11 2.50002C12.6064 2.49957 14.1752 2.98556 15.5 3.89402L14.163 5.41102C13.2154 4.81573 12.1191 4.49994 11 4.49994C9.88094 4.49994 8.78459 4.81573 7.837 5.41102L6.5 3.89402C7.8248 2.98556 9.39364 2.49957 11 2.50002ZM5 5.22402L6.336 6.73302C5.68958 7.53283 5.26042 8.48587 5.09 9.50002H3.069C3.26893 7.91319 3.94177 6.42325 5 5.22402ZM3.069 11.5H5.09C5.26042 12.5142 5.68958 13.4672 6.336 14.267L5 15.776C3.94177 14.5768 3.26893 13.0869 3.069 11.5ZM11 18.5C9.39364 18.5005 7.8248 18.0145 6.5 17.106L7.841 15.589C8.78859 16.1843 9.88494 16.5001 11.004 16.5001C12.1231 16.5001 13.2194 16.1843 14.167 15.589L15.5 17.106C14.1752 18.0145 12.6064 18.5005 11 18.5ZM17 15.776L15.666 14.267C16.3117 13.467 16.7402 12.514 16.91 11.5H18.931C18.7311 13.0869 18.0582 14.5768 17 15.776ZM11 12.5C10.6044 12.5 10.2178 12.3827 9.88886 12.163C9.55996 11.9432 9.30362 11.6308 9.15224 11.2654C9.00087 10.8999 8.96126 10.4978 9.03843 10.1098C9.1156 9.72188 9.30608 9.36551 9.58579 9.08581C9.86549 8.8061 10.2219 8.61562 10.6098 8.53845C10.9978 8.46128 11.3999 8.50089 11.7654 8.65226C12.1308 8.80364 12.4432 9.05998 12.6629 9.38888C12.8827 9.71778 13 10.1045 13 10.5C13 11.0305 12.7893 11.5392 12.4142 11.9142C12.0391 12.2893 11.5304 12.5 11 12.5Z" fill="white"/>
</svg>
