<svg width="43" height="43" viewBox="0 0 43 43" fill="none" xmlns="http://www.w3.org/2000/svg">
<path d="M1.5 21.5C1.5 10.4543 10.4543 1.5 21.5 1.5C32.5457 1.5 41.5 10.4543 41.5 21.5C41.5 32.5457 32.5457 41.5 21.5 41.5C10.4543 41.5 1.5 32.5457 1.5 21.5Z" fill="white"/>
<path fill-rule="evenodd" clip-rule="evenodd" d="M21.5 3C11.2827 3 3 11.2827 3 21.5C3 31.7173 11.2827 40 21.5 40C31.7173 40 40 31.7173 40 21.5C40 11.2827 31.7173 3 21.5 3ZM0 21.5C0 9.62588 9.62588 0 21.5 0C33.3741 0 43 9.62588 43 21.5C43 33.3741 33.3741 43 21.5 43C9.62588 43 0 33.3741 0 21.5ZM21.0147 10.8934L30.5607 20.4393C31.1464 21.0251 31.1464 21.9749 30.5607 22.5607L21.0147 32.1066C20.4289 32.6924 19.4792 32.6924 18.8934 32.1066C18.3076 31.5208 18.3076 30.5711 18.8934 29.9853L25.8787 23H13.5C12.6716 23 12 22.3284 12 21.5C12 20.6716 12.6716 20 13.5 20H25.8787L18.8934 13.0147C18.3076 12.4289 18.3076 11.4792 18.8934 10.8934C19.4792 10.3076 20.4289 10.3076 21.0147 10.8934Z" fill="black"/>
</svg>
