<svg width="18" height="18" viewBox="0 0 18 18" fill="none" xmlns="http://www.w3.org/2000/svg">
<path fill-rule="evenodd" clip-rule="evenodd" d="M9 7.20508C7.96447 7.20508 7.125 8.04454 7.125 9.08008C7.125 10.1156 7.96447 10.9551 9 10.9551C10.0355 10.9551 10.875 10.1156 10.875 9.08008C10.875 8.04454 10.0355 7.20508 9 7.20508ZM5.875 9.08008C5.875 7.35419 7.27411 5.95508 9 5.95508C10.7259 5.95508 12.125 7.35419 12.125 9.08008C12.125 10.806 10.7259 12.2051 9 12.2051C7.27411 12.2051 5.875 10.806 5.875 9.08008Z" fill="white"/>
<path fill-rule="evenodd" clip-rule="evenodd" d="M7.00273 2.222C6.77967 1.85037 6.30992 1.73477 5.96106 1.94232L5.95197 1.94773L4.51026 2.77265C4.05412 3.0333 3.89675 3.62426 4.15767 4.07585L3.6165 4.38852L4.15724 4.0751C4.60313 4.84438 4.72299 5.68753 4.32469 6.37871C3.92644 7.06979 3.13716 7.38852 2.24984 7.38852C1.72215 7.38852 1.2915 7.82323 1.2915 8.34686V9.81352C1.2915 10.3372 1.72215 10.7719 2.24984 10.7719C3.13716 10.7719 3.92644 11.0906 4.32469 11.7817C4.72294 12.4728 4.60316 13.3158 4.15741 14.085C3.89685 14.5365 4.05393 15.127 4.50992 15.3875L5.96111 16.218C6.30995 16.4255 6.77965 16.31 7.00271 15.9384L7.09228 15.7837C7.53801 15.0147 8.20987 14.4906 9.00713 14.4906C9.805 14.4906 10.4748 15.0151 10.9165 15.785C10.9167 15.7853 10.9169 15.7857 10.9171 15.786L11.0053 15.9384C11.2283 16.31 11.6981 16.4256 12.0469 16.2181L12.056 16.2127L13.4977 15.3877C13.9527 15.1278 14.1125 14.545 13.8497 14.0833C13.4047 13.3146 13.2853 12.4723 13.6833 11.7817C14.0816 11.0906 14.8708 10.7719 15.7582 10.7719C16.2859 10.7719 16.7165 10.3372 16.7165 9.81352V8.34686C16.7165 7.81917 16.2818 7.38852 15.7582 7.38852C14.8708 7.38852 14.0816 7.06979 13.6833 6.37871C13.2851 5.68767 13.4048 4.84471 13.8505 4.07555C14.1112 3.624 13.9541 3.03344 13.4981 2.77284L12.0469 1.9424C11.698 1.73485 11.2283 1.85038 11.0053 2.222L10.9157 2.37667C10.47 3.14568 9.79814 3.66977 9.00088 3.66977C8.20309 3.66977 7.53335 3.14539 7.09168 2.37564C7.09143 2.37521 7.09119 2.37478 7.09094 2.37435L7.00273 2.222ZM5.32691 0.865118C6.2931 0.293981 7.51865 0.644378 8.07863 1.58563L8.08243 1.59202L8.17406 1.75038L8.1754 1.75269C8.48374 2.29057 8.80536 2.41977 9.00088 2.41977C9.19734 2.41977 9.52139 2.28947 9.83395 1.75037C9.834 1.75028 9.83389 1.75046 9.83395 1.75037L9.92934 1.58561C10.4893 0.644351 11.7149 0.293978 12.6811 0.865126L14.1183 1.68754C15.1788 2.29355 15.5384 3.65279 14.9327 4.7012L14.9322 4.70194C14.6198 5.241 14.6688 5.58534 14.7664 5.75459C14.8639 5.92392 15.1372 6.13852 15.7582 6.13852C16.9679 6.13852 17.9665 7.12454 17.9665 8.34686V9.81352C17.9665 11.0232 16.9805 12.0219 15.7582 12.0219C15.1372 12.0219 14.8639 12.2365 14.7664 12.4058C14.6688 12.575 14.6198 12.9194 14.9322 13.4584L14.9342 13.4618C15.5368 14.5164 15.1796 15.8661 14.1186 16.4726C14.1185 16.4727 14.1187 16.4726 14.1186 16.4726L12.681 17.2953C11.7149 17.8664 10.4894 17.516 9.92938 16.5747L9.92557 16.5684L9.83395 16.41L9.83261 16.4077C9.52427 15.8698 9.20265 15.7406 9.00713 15.7406C8.81067 15.7406 8.48662 15.8709 8.17406 16.41C8.17401 16.4101 8.17412 16.4099 8.17406 16.41L8.07867 16.5748C7.5187 17.516 6.29316 17.8664 5.32698 17.2953L3.88975 16.4728C3.88964 16.4728 3.88986 16.4729 3.88975 16.4728C2.82949 15.8667 2.46965 14.5075 3.07534 13.4592L3.07577 13.4584C3.38822 12.9194 3.33918 12.575 3.24165 12.4058C3.14407 12.2365 2.87085 12.0219 2.24984 12.0219C1.02752 12.0219 0.0415039 11.0232 0.0415039 9.81352V8.34686C0.0415039 7.13715 1.02752 6.13852 2.24984 6.13852C2.87085 6.13852 3.14407 5.92392 3.24165 5.75459C3.33918 5.58535 3.38822 5.241 3.07577 4.70194L3.07534 4.7012C2.46965 3.6529 2.82915 2.29384 3.88941 1.68773L5.32691 0.865118Z" fill="white"/>
</svg>
