<svg width="21" height="21" viewBox="0 0 21 21" fill="none" xmlns="http://www.w3.org/2000/svg">
<path d="M11.5701 12.8985H2.8247C1.06205 12.8985 -0.0613994 11.0099 0.790872 9.46035L5.15876 1.50905C6.04009 -0.0889553 8.34505 -0.0889553 9.22638 1.50905L11.3474 5.35396L13.604 9.46035C14.4562 11.0099 13.3328 12.8985 11.5701 12.8985Z" fill="#EAEAEA"/>
<path d="M20.5 13.8647C20.5 17.3415 17.6817 20.1598 14.2048 20.1598C11.2509 20.1598 8.78127 18.1357 8.09369 15.3852C8.0259 15.0946 8.2486 14.8331 8.54883 14.8331H12.2C13.5462 14.8331 14.7665 14.1358 15.4542 12.9833C16.1321 11.8211 16.1612 10.4265 15.5026 9.24496L15.0183 8.35395C14.8343 8.02464 15.0958 7.62756 15.4639 7.69535C18.3306 8.27647 20.5 10.8139 20.5 13.8647Z" fill="#EAEAEA"/>
</svg>
