<svg width="21" height="21" viewBox="0 0 21 21" fill="none" xmlns="http://www.w3.org/2000/svg">
<path fill-rule="evenodd" clip-rule="evenodd" d="M10.2873 0.928711H10.3816C13.3748 0.928686 15.1351 2.42994 15.8934 3.14251C16.3968 3.61533 16.4217 4.40685 15.9491 4.91041C15.4766 5.41398 14.6854 5.43888 14.1822 4.96607C13.6103 4.42872 12.4404 3.43015 10.3816 3.43015H10.2873C9.23156 3.43015 8.27843 4.06076 7.86418 5.03378C7.26011 6.45261 7.99656 8.08508 9.45968 8.57023L10.9319 9.05838H18.8101C19.5004 9.05838 20.0601 9.61833 20.0601 10.3091C20.0601 10.9999 19.5004 11.5598 18.8101 11.5598H1.31006C0.619709 11.5598 0.0600586 10.9999 0.0600586 10.3091C0.0600586 9.61833 0.619709 9.05838 1.31006 9.05838H6.11235C5.11061 7.65467 4.83186 5.77348 5.5642 4.05341C6.3707 2.15911 8.22831 0.928711 10.2873 0.928711ZM12.9359 12.8105H15.8568C16.3991 14.106 16.4807 15.6004 15.9731 17.031C15.1441 19.3676 12.9344 20.9287 10.4563 20.9287H9.71631C7.37066 20.9287 5.74192 20.1595 4.20435 18.7149C3.70107 18.2422 3.67618 17.4506 4.14873 16.947C4.6213 16.4435 5.41235 16.4186 5.91562 16.8914C7.03882 17.9466 8.07081 18.4273 9.71631 18.4273H10.4563C11.8762 18.4273 13.1422 17.5329 13.6171 16.1941C14.0462 14.9847 13.7404 13.6956 12.9359 12.8105Z" fill="#EAEAEA"/>
</svg>
