<svg width="18" height="21" viewBox="0 0 18 21" fill="none" xmlns="http://www.w3.org/2000/svg">
<path fill-rule="evenodd" clip-rule="evenodd" d="M9.1719 1.28161L8.56006 2.3187L7.94822 1.28161L8.56006 0.928711L9.1719 1.28161ZM8.56006 3.7434C8.43134 3.82917 8.28585 3.92845 8.12691 4.04057C7.47922 4.49748 6.6194 5.15983 5.76431 5.98307C4.00754 7.67439 2.48863 9.83378 2.48863 12.145C2.48863 15.7287 5.26484 18.5274 8.56006 18.5274C11.8553 18.5274 14.6315 15.7287 14.6315 12.145C14.6315 9.83378 13.1126 7.67439 11.3558 5.98307C10.5007 5.15983 9.6409 4.49748 8.99321 4.04057C8.83427 3.92845 8.68877 3.82917 8.56006 3.7434ZM7.94822 1.28161C7.94822 1.28161 7.94822 1.28161 8.56006 2.3187C9.1719 1.28161 9.1719 1.28161 9.1719 1.28161L9.17343 1.28249L9.17563 1.28377L9.18201 1.28748L9.20258 1.29953C9.21969 1.30962 9.24357 1.3238 9.27375 1.34198C9.33409 1.37834 9.41972 1.43076 9.52703 1.49857C9.7415 1.6341 10.0434 1.83164 10.4037 2.08579C11.1221 2.59256 12.0837 3.33228 13.05 4.26261C14.9361 6.07844 17.0601 8.83221 17.0601 12.145C17.0601 16.9373 13.3124 20.9287 8.56006 20.9287C3.80769 20.9287 0.0600586 16.9373 0.0600586 12.145C0.0600586 8.83221 2.18401 6.07844 4.0701 4.26261C5.03643 3.33228 5.99804 2.59256 6.71642 2.08579C7.0767 1.83164 7.37861 1.6341 7.59309 1.49857C7.7004 1.43076 7.78603 1.37834 7.84637 1.34198C7.87655 1.3238 7.90042 1.30962 7.91754 1.29953L7.93811 1.28748L7.94449 1.28377L7.94669 1.28249L7.94822 1.28161Z" fill="#EAEAEA"/>
<path fill-rule="evenodd" clip-rule="evenodd" d="M6.13149 11.3235C6.80212 11.3235 7.34577 11.8611 7.34577 12.5242C7.34577 13.1873 7.88939 13.7248 8.56006 13.7248C9.23069 13.7248 9.77434 14.2624 9.77434 14.9255C9.77434 15.5886 9.23069 16.1261 8.56006 16.1261C6.54813 16.1261 4.9172 14.5135 4.9172 12.5242C4.9172 11.8611 5.46086 11.3235 6.13149 11.3235Z" fill="#EAEAEA"/>
</svg>
