<svg width="23" height="24" viewBox="0 0 23 24" fill="none" xmlns="http://www.w3.org/2000/svg">
<path fill-rule="evenodd" clip-rule="evenodd" d="M2.94186 2.33903C2.20334 2.33903 1.60465 2.93771 1.60465 3.67624C1.60465 4.41476 2.20334 5.01344 2.94186 5.01344C3.68038 5.01344 4.27907 4.41476 4.27907 3.67624C4.27907 2.93771 3.68038 2.33903 2.94186 2.33903ZM0 3.67624C0 2.05149 1.31712 0.734375 2.94186 0.734375C4.28846 0.734375 5.42374 1.63913 5.77298 2.87391H17.227C17.5763 1.63913 18.7115 0.734375 20.0581 0.734375C21.6829 0.734375 23 2.0515 23 3.67624C23 5.02283 22.0953 6.15812 20.8605 6.50736L20.8605 7.95531C20.8605 8.39842 20.5012 8.75763 20.0581 8.75763C19.615 8.75763 19.2558 8.39842 19.2558 7.9553L19.2558 6.50736C18.2761 6.23026 17.5041 5.45829 17.227 4.47856H5.77298C5.49588 5.45829 4.72392 6.23025 3.74419 6.50736V17.9614C4.72392 18.2385 5.49588 19.0104 5.77299 19.9902L7.22093 19.9902C7.66404 19.9902 8.02326 20.3494 8.02326 20.7925C8.02326 21.2356 7.66404 21.5948 7.22093 21.5948L5.77299 21.5948C5.42375 22.8296 4.28846 23.7344 2.94186 23.7344C1.31712 23.7344 0 22.4173 0 20.7925C0 19.4459 0.904757 18.3106 2.13953 17.9614V6.50736C0.904753 6.15812 0 5.02284 0 3.67624ZM20.0581 2.33903C19.3196 2.33903 18.7209 2.93771 18.7209 3.67624C18.7209 4.41476 19.3196 5.01344 20.0581 5.01344C20.7967 5.01344 21.3953 4.41477 21.3953 3.67624C21.3953 2.93771 20.7967 2.33903 20.0581 2.33903ZM7.48837 9.02507C7.48837 8.58196 7.84759 8.22275 8.2907 8.22275H14.7093C15.1524 8.22275 15.5116 8.58196 15.5116 9.02507C15.5116 9.46818 15.1524 9.8274 14.7093 9.8274H12.3023V15.4437C12.3023 15.8868 11.9431 16.246 11.5 16.246C11.0569 16.246 10.6977 15.8868 10.6977 15.4437V9.8274H8.2907C7.84759 9.8274 7.48837 9.46818 7.48837 9.02507ZM20.0581 11.432C20.5013 11.432 20.8605 11.7913 20.8605 12.2344L20.8605 17.9614C22.0953 18.3106 23 19.4459 23 20.7925C23 22.4173 21.6829 23.7344 20.0581 23.7344C18.7115 23.7344 17.5762 22.8296 17.227 21.5948L11.5 21.5948C11.0569 21.5948 10.6977 21.2356 10.6977 20.7925C10.6977 20.3494 11.0569 19.9902 11.5 19.9902L17.227 19.9902C17.5041 19.0104 18.2761 18.2385 19.2558 17.9614L19.2558 12.2344C19.2558 11.7913 19.615 11.432 20.0581 11.432ZM2.94186 19.4553C2.20333 19.4553 1.60465 20.054 1.60465 20.7925C1.60465 21.5311 2.20333 22.1297 2.94186 22.1297C3.68039 22.1297 4.27907 21.5311 4.27907 20.7925C4.27907 20.054 3.68039 19.4553 2.94186 19.4553ZM20.0581 19.4553C19.3196 19.4553 18.7209 20.054 18.7209 20.7925C18.7209 21.5311 19.3196 22.1297 20.0581 22.1297C20.7967 22.1297 21.3953 21.5311 21.3953 20.7925C21.3953 20.054 20.7967 19.4553 20.0581 19.4553Z" fill="#EAEAEA"/>
</svg>
