<svg width="19" height="21" viewBox="0 0 19 21" fill="none" xmlns="http://www.w3.org/2000/svg">
<path fill-rule="evenodd" clip-rule="evenodd" d="M3.60551 0.928711C4.35863 0.928711 4.96915 1.53373 4.96915 2.28006V9.84763C4.96915 12.0866 6.80072 13.9017 9.06006 13.9017C11.3194 13.9017 13.151 12.0866 13.151 9.84763V2.28006C13.151 1.53373 13.7615 0.928711 14.5146 0.928711C15.2677 0.928711 15.8782 1.53373 15.8782 2.28006V9.84763C15.8782 13.5793 12.8256 16.6044 9.06006 16.6044C5.29448 16.6044 2.24188 13.5793 2.24188 9.84763V2.28006C2.24188 1.53373 2.8524 0.928711 3.60551 0.928711ZM0.0600586 19.5774C0.0600586 18.831 0.670579 18.226 1.42369 18.226H16.6964C17.4495 18.226 18.0601 18.831 18.0601 19.5774C18.0601 20.3237 17.4495 20.9287 16.6964 20.9287H1.42369C0.670579 20.9287 0.0600586 20.3237 0.0600586 19.5774Z" fill="#EAEAEA"/>
</svg>
