<svg width="24" height="25" viewBox="0 0 24 25" fill="none" xmlns="http://www.w3.org/2000/svg">
<path d="M16.19 2.5H7.81C4.17 2.5 2 4.67 2 8.31V16.68C2 20.33 4.17 22.5 7.81 22.5H16.18C19.82 22.5 21.99 20.33 21.99 16.69V8.31C22 4.67 19.83 2.5 16.19 2.5ZM10.95 18.01C10.66 18.3 10.11 18.58 9.71 18.64L7.25 18.99C7.16 19 7.07 19.01 6.98 19.01C6.57 19.01 6.19 18.87 5.92 18.6C5.59 18.27 5.45 17.79 5.53 17.26L5.88 14.8C5.94 14.39 6.21 13.85 6.51 13.56L10.97 9.1C11.05 9.31 11.13 9.52 11.24 9.76C11.34 9.97 11.45 10.19 11.57 10.39C11.67 10.56 11.78 10.72 11.87 10.84C11.98 11.01 12.11 11.17 12.19 11.26C12.24 11.33 12.28 11.38 12.3 11.4C12.55 11.7 12.84 11.98 13.09 12.19C13.16 12.26 13.2 12.3 13.22 12.31C13.37 12.43 13.52 12.55 13.65 12.64C13.81 12.76 13.97 12.87 14.14 12.96C14.34 13.08 14.56 13.19 14.78 13.3C15.01 13.4 15.22 13.49 15.43 13.56L10.95 18.01ZM17.37 11.59L16.45 12.52C16.39 12.58 16.31 12.61 16.23 12.61C16.2 12.61 16.16 12.61 16.14 12.6C14.11 12.02 12.49 10.4 11.91 8.37C11.88 8.26 11.91 8.14 11.99 8.07L12.92 7.14C14.44 5.62 15.89 5.65 17.38 7.14C18.14 7.9 18.51 8.63 18.51 9.39C18.5 10.11 18.13 10.83 17.37 11.59Z" fill="white"/>
</svg>
