<svg width="197" height="48" viewBox="0 0 197 48" fill="none" xmlns="http://www.w3.org/2000/svg">
<path d="M68.7432 21.7433L67.9222 21.5336C67.6707 21.4615 67.3982 21.5795 67.3248 21.7892C66.0287 25.1974 65.2846 28.4187 62.2241 28.4187H57.4938C58.1925 26.5737 58.7375 24.4961 59.3873 22.3463C59.4607 22.0678 59.3139 21.8122 59.0379 21.7433L58.2169 21.5336C57.9689 21.4615 57.6964 21.5795 57.6195 21.7892C56.3269 25.1974 55.5793 28.4187 52.5188 28.4187H47.792C48.4872 26.5737 49.0357 24.4961 49.682 22.3463C49.7589 22.0678 49.6086 21.8122 49.3326 21.7433L48.5116 21.5336C48.2636 21.4615 47.9911 21.5795 47.9177 21.8351C46.6705 25.2203 45.8495 28.4187 42.7891 28.4187H26.5961C25.1253 28.4187 24.0563 29.4215 24.0563 30.7979V34.4617C24.0563 39.4101 12.936 39.6886 5.02297 40.2031L0.0690066 47.2062C-0.105675 47.4389 0.0690066 47.6945 0.393914 47.6945C11.9613 47.6945 27.3927 48.3958 27.3927 35.5595L32.441 29.3134V34.6911L32.4549 35.5595H37.9644C37.9888 35.5595 38.0133 35.5562 38.0377 35.5529C39.8125 35.5038 41.2624 35.2089 42.4677 34.7173L41.9681 35.3039C41.8703 35.4186 41.9681 35.5595 42.1183 35.5595H47.2435C49.2348 35.5595 50.8524 35.2547 52.1695 34.7173L51.6734 35.3039C51.5721 35.4186 51.6734 35.5595 51.8236 35.5595H56.9488C66.0566 35.5595 66.951 29.3265 69.0926 22.3463C69.166 22.0678 69.0157 21.8122 68.7432 21.7433Z" fill="white"/>
<path d="M56.4289 10.487L60.3839 13.9097C60.4859 13.9989 60.6335 13.9989 60.7109 13.9097L66.2444 8.03543C66.3182 7.96857 66.3428 7.83166 66.2444 7.74251L60.7355 2.86476C60.6335 2.79789 60.4859 2.77561 60.4085 2.86476L48.5646 16.8358H51.0676L56.4289 10.487Z" fill="white"/>
<path d="M195.757 21.4643L194.932 21.2506C194.683 21.1771 194.405 21.2973 194.332 21.5578C193.082 25.0071 192.257 28.2662 189.183 28.2662H79.9298V0.177164C79.9298 0.0102061 79.7297 -0.0599161 79.6069 0.0602935L73.7808 6.2177V35.5422H74.1318L79.2068 29.2545V35.068C79.2068 35.3285 79.4314 35.5422 79.7052 35.5422H183.883C193.058 35.5422 193.984 29.1911 196.108 22.0787C196.181 21.7949 196.03 21.5344 195.757 21.4643Z" fill="white"/>
<path d="M188.698 16.7681C188.799 16.8583 188.948 16.8583 189.046 16.7681L195.113 11.5361C195.214 11.4427 195.214 11.3042 195.138 11.2139L191.4 7.54446C191.323 7.47359 191.177 7.45103 191.076 7.54446L184.985 12.7958C184.912 12.8667 184.884 13.002 184.985 13.0954L188.698 16.7681Z" fill="white"/>
</svg>
