<svg width="24" height="25" viewBox="0 0 24 25" fill="none" xmlns="http://www.w3.org/2000/svg">
<path d="M6.67 14.5H4C2.9 14.5 2 15.4 2 16.5V21.5C2 22.05 2.45 22.5 3 22.5H6.67C7.22 22.5 7.67 22.05 7.67 21.5V15.5C7.67 14.95 7.22 14.5 6.67 14.5Z" fill="white"/>
<path d="M13.3302 10.5H10.6602C9.56016 10.5 8.66016 11.4 8.66016 12.5V21.5C8.66016 22.05 9.11016 22.5 9.66016 22.5H14.3302C14.8802 22.5 15.3302 22.05 15.3302 21.5V12.5C15.3302 11.4 14.4402 10.5 13.3302 10.5Z" fill="white"/>
<path d="M20.0001 17.5H17.3301C16.7801 17.5 16.3301 17.95 16.3301 18.5V21.5C16.3301 22.05 16.7801 22.5 17.3301 22.5H21.0001C21.5501 22.5 22.0001 22.05 22.0001 21.5V19.5C22.0001 18.4 21.1001 17.5 20.0001 17.5Z" fill="white"/>
<path d="M15.0099 5.34998C15.3199 5.03998 15.4399 4.66998 15.3399 4.34998C15.2399 4.02998 14.9299 3.79998 14.4899 3.72998L13.5299 3.56998C13.4899 3.56998 13.3999 3.49998 13.3799 3.45998L12.8499 2.39998C12.4499 1.58998 11.5399 1.58998 11.1399 2.39998L10.6099 3.45998C10.5999 3.49998 10.5099 3.56998 10.4699 3.56998L9.50994 3.72998C9.06994 3.79998 8.76994 4.02998 8.65994 4.34998C8.55994 4.66998 8.67994 5.03998 8.98994 5.34998L9.72994 6.09998C9.76994 6.12998 9.79994 6.24998 9.78994 6.28998L9.57994 7.20998C9.41994 7.89998 9.67994 8.20998 9.84994 8.32998C10.0199 8.44998 10.3899 8.60998 10.9999 8.24998L11.8999 7.71998C11.9399 7.68998 12.0699 7.68998 12.1099 7.71998L12.9999 8.24998C13.2799 8.41998 13.5099 8.46998 13.6899 8.46998C13.8999 8.46998 14.0499 8.38998 14.1399 8.32998C14.3099 8.20998 14.5699 7.89998 14.4099 7.20998L14.1999 6.28998C14.1899 6.23998 14.2199 6.12998 14.2599 6.09998L15.0099 5.34998Z" fill="white"/>
</svg>
